<svg width="255" height="158" viewBox="0 0 255 158" fill="none" xmlns="http://www.w3.org/2000/svg">
<g clip-path="url(#clip0)">
<path d="M136.088 137.31H139.554V138.97H139.781C140.165 138.342 140.71 137.827 141.36 137.478C142.172 137.041 143.086 136.826 144.009 136.857C144.881 136.854 145.742 137.042 146.533 137.409C147.33 137.772 148.048 138.288 148.647 138.927C149.276 139.601 149.77 140.389 150.101 141.249C150.818 143.154 150.818 145.254 150.101 147.159C149.77 148.019 149.276 148.807 148.647 149.481C148.048 150.121 147.33 150.637 146.533 151.002C145.742 151.366 144.88 151.553 144.009 151.551C143.086 151.583 142.172 151.368 141.36 150.929C140.71 150.581 140.165 150.066 139.781 149.437H139.554L139.781 151.408V157.179H136.088V137.31ZM143.247 148.143C143.727 148.141 144.202 148.042 144.643 147.853C145.077 147.665 145.472 147.397 145.806 147.063C146.157 146.707 146.434 146.286 146.623 145.824C147.034 144.775 147.034 143.61 146.623 142.561C146.434 142.099 146.156 141.678 145.806 141.321C145.472 140.987 145.078 140.72 144.643 140.535C144.202 140.344 143.727 140.245 143.247 140.245C142.769 140.242 142.295 140.332 141.851 140.512C141.415 140.687 141.019 140.95 140.688 141.284C140.339 141.641 140.061 142.061 139.871 142.523C139.456 143.591 139.456 144.776 139.871 145.844C140.061 146.306 140.339 146.726 140.688 147.083C141.019 147.417 141.415 147.68 141.851 147.855C142.29 148.04 142.76 148.138 143.235 148.143H143.247Z" fill="#FF9000"/>
<path d="M161.506 149.635H161.282C160.839 150.169 160.31 150.626 159.718 150.988C159 151.389 158.184 151.584 157.362 151.551C156.675 151.555 155.992 151.435 155.347 151.197C154.741 150.978 154.181 150.649 153.695 150.227C153.226 149.814 152.851 149.305 152.596 148.735C152.33 148.133 152.196 147.48 152.204 146.822C152.193 146.156 152.337 145.496 152.625 144.895C152.908 144.322 153.312 143.818 153.809 143.417C154.34 142.991 154.948 142.67 155.6 142.474C156.326 142.252 157.083 142.143 157.842 142.149C158.59 142.134 159.338 142.205 160.07 142.361C160.557 142.474 161.037 142.619 161.506 142.796V142.375C161.511 142.026 161.435 141.679 161.284 141.364C161.133 141.049 160.91 140.773 160.634 140.558C160.017 140.07 159.248 139.816 158.461 139.841C157.833 139.839 157.213 139.984 156.651 140.262C156.088 140.541 155.598 140.946 155.219 141.446L152.541 139.618C154.007 137.777 156.008 136.857 158.546 136.857C160.69 136.857 162.325 137.359 163.451 138.364C164.578 139.368 165.142 140.855 165.144 142.825V151.101H161.506V149.635ZM161.506 145.498C161.076 145.294 160.628 145.129 160.168 145.005C159.675 144.879 159.168 144.818 158.659 144.822C157.787 144.822 157.095 145.017 156.624 145.403C156.4 145.567 156.219 145.781 156.094 146.028C155.97 146.275 155.905 146.548 155.905 146.825C155.899 147.089 155.958 147.351 156.079 147.587C156.199 147.823 156.376 148.025 156.595 148.175C157.056 148.514 157.616 148.692 158.188 148.683C158.653 148.687 159.114 148.596 159.543 148.416C159.937 148.25 160.295 148.011 160.599 147.71C161.185 147.124 161.515 146.33 161.515 145.501L161.506 145.498Z" fill="#FF9000"/>
<path d="M168.075 137.31H171.544V139.223H171.768C171.943 138.879 172.172 138.566 172.446 138.294C172.729 138.011 173.047 137.765 173.391 137.56C173.746 137.347 174.124 137.176 174.519 137.052C174.906 136.926 175.31 136.86 175.717 136.857C176.14 136.85 176.562 136.903 176.97 137.014C177.286 137.103 177.586 137.24 177.86 137.42L176.872 140.715C176.634 140.596 176.383 140.507 176.124 140.448C175.796 140.376 175.46 140.342 175.124 140.349C174.647 140.341 174.175 140.44 173.743 140.639C173.332 140.835 172.971 141.121 172.687 141.475C172.385 141.85 172.155 142.277 172.01 142.735C171.845 143.241 171.763 143.771 171.768 144.303V151.095H168.075V137.31Z" fill="#FF9000"/>
<path d="M191.814 147.583C191.226 148.731 190.358 149.713 189.29 150.439C188.21 151.178 186.862 151.549 185.245 151.551C184.237 151.562 183.236 151.376 182.3 151.002C181.432 150.653 180.645 150.131 179.988 149.467C179.332 148.8 178.814 148.011 178.464 147.144C178.091 146.213 177.904 145.218 177.915 144.215C177.904 143.204 178.09 142.201 178.464 141.261C178.806 140.393 179.323 139.604 179.983 138.943C180.643 138.283 181.431 137.764 182.3 137.42C183.235 137.044 184.237 136.857 185.245 136.869C186.67 136.821 188.076 137.205 189.278 137.969C190.336 138.664 191.169 139.651 191.675 140.811L188.29 142.218C188.017 141.635 187.593 141.134 187.063 140.767C186.501 140.422 185.849 140.251 185.19 140.276C184.714 140.276 184.244 140.375 183.809 140.567C183.379 140.751 182.991 141.018 182.666 141.353C182.326 141.71 182.061 142.131 181.89 142.593C181.514 143.648 181.514 144.8 181.89 145.856C182.054 146.307 182.309 146.72 182.639 147.069C182.969 147.419 183.367 147.697 183.809 147.887C184.244 148.078 184.714 148.177 185.19 148.178C185.88 148.2 186.562 148.02 187.15 147.658C187.709 147.285 188.153 146.763 188.432 146.152L191.814 147.583Z" fill="#FF9000"/>
<path d="M207.011 147.78C206.39 148.888 205.504 149.825 204.432 150.509C203.241 151.233 201.865 151.595 200.472 151.551C199.476 151.559 198.488 151.373 197.564 151.002C196.693 150.651 195.902 150.129 195.239 149.466C194.575 148.803 194.053 148.014 193.702 147.144C193.325 146.214 193.134 145.219 193.141 144.215C193.136 143.248 193.317 142.288 193.676 141.388C194.366 139.632 195.725 138.22 197.456 137.461C198.366 137.062 199.35 136.864 200.344 136.88C201.359 136.862 202.367 137.049 203.307 137.432C204.134 137.771 204.875 138.289 205.476 138.95C206.069 139.617 206.52 140.397 206.802 141.243C207.109 142.169 207.261 143.139 207.253 144.114V144.453C207.235 144.555 207.225 144.658 207.224 144.761C207.205 144.864 207.197 144.968 207.197 145.072H196.779C196.836 145.582 196.994 146.075 197.244 146.523C197.467 146.913 197.763 147.257 198.116 147.536C198.457 147.8 198.845 147.997 199.259 148.117C199.671 148.238 200.098 148.3 200.527 148.3C201.271 148.328 202.006 148.125 202.629 147.719C203.174 147.344 203.623 146.847 203.941 146.268L207.011 147.78ZM203.659 142.43C203.627 142.146 203.546 141.87 203.417 141.615C203.264 141.298 203.054 141.011 202.798 140.77C202.503 140.493 202.158 140.274 201.783 140.123C201.32 139.944 200.826 139.858 200.329 139.87C199.578 139.858 198.845 140.096 198.244 140.546C197.627 141.019 197.181 141.681 196.976 142.43H203.659Z" fill="#FF9000"/>
<path d="M211.664 135.452C211.349 135.453 211.038 135.391 210.748 135.269C210.178 135.032 209.723 134.582 209.48 134.015C209.236 133.42 209.236 132.753 209.48 132.158C209.601 131.879 209.772 131.626 209.986 131.412C210.205 131.196 210.464 131.024 210.748 130.906C211.185 130.724 211.667 130.675 212.133 130.765C212.598 130.854 213.027 131.079 213.365 131.412C213.588 131.63 213.765 131.891 213.886 132.178C214.006 132.466 214.069 132.775 214.069 133.086C214.069 133.398 214.006 133.707 213.886 133.995C213.765 134.282 213.588 134.543 213.365 134.761C213.143 134.986 212.878 135.163 212.586 135.281C212.293 135.4 211.98 135.458 211.664 135.452ZM209.832 151.101V137.31H213.525V151.101H209.832Z" fill="#FF9000"/>
<path d="M216.909 137.31H220.375V139.223H220.602C220.775 138.879 221.003 138.565 221.277 138.294C221.561 138.012 221.878 137.765 222.222 137.56C222.577 137.347 222.955 137.176 223.35 137.052C223.737 136.926 224.141 136.86 224.548 136.857C224.972 136.85 225.395 136.903 225.804 137.014C226.119 137.104 226.418 137.241 226.691 137.42L225.705 140.715C225.468 140.597 225.217 140.508 224.958 140.448C224.63 140.376 224.294 140.343 223.958 140.349C223.48 140.341 223.007 140.44 222.574 140.639C222.163 140.835 221.802 141.121 221.518 141.475C221.217 141.851 220.988 142.277 220.841 142.735C220.677 143.241 220.597 143.771 220.602 144.303V151.095H216.909V137.31Z" fill="#FF9000"/>
<path d="M234.084 136.857C235.093 136.845 236.096 137.032 237.032 137.409C237.901 137.752 238.689 138.27 239.348 138.931C240.008 139.592 240.524 140.381 240.865 141.249C241.598 143.151 241.598 145.257 240.865 147.159C240.523 148.027 240.007 148.816 239.348 149.477C238.689 150.138 237.9 150.657 237.032 151.002C235.136 151.734 233.034 151.734 231.138 151.002C230.27 150.657 229.482 150.138 228.823 149.477C228.163 148.816 227.647 148.027 227.305 147.159C226.573 145.257 226.573 143.151 227.305 141.249C227.646 140.381 228.163 139.592 228.822 138.931C229.481 138.27 230.27 137.752 231.138 137.409C232.074 137.032 233.075 136.845 234.084 136.857V136.857ZM234.084 148.143C234.553 148.144 235.019 148.053 235.453 147.876C235.889 147.699 236.285 147.437 236.616 147.104C236.965 146.749 237.238 146.327 237.419 145.864C237.814 144.793 237.814 143.615 237.419 142.544C237.238 142.08 236.965 141.659 236.616 141.304C236.285 140.971 235.889 140.708 235.453 140.532C235.019 140.354 234.553 140.264 234.084 140.265C233.613 140.26 233.146 140.35 232.711 140.529C232.275 140.707 231.88 140.971 231.548 141.304C231.199 141.659 230.925 142.081 230.743 142.544C230.351 143.616 230.351 144.792 230.743 145.864C230.925 146.327 231.199 146.748 231.548 147.104C231.88 147.437 232.275 147.701 232.711 147.879C233.146 148.058 233.613 148.147 234.084 148.143V148.143Z" fill="#FF9000"/>
<path d="M249.106 151.551C248.289 151.563 247.476 151.448 246.695 151.211C246.042 151.012 245.424 150.713 244.863 150.326C244.362 149.976 243.919 149.549 243.551 149.06C243.214 148.616 242.939 148.128 242.734 147.609L246.032 146.204C246.295 146.847 246.742 147.4 247.317 147.792C247.848 148.139 248.471 148.321 249.106 148.314C249.665 148.342 250.222 148.216 250.714 147.948C250.879 147.867 251.02 147.744 251.122 147.591C251.224 147.438 251.284 147.261 251.295 147.078C251.296 146.896 251.252 146.717 251.165 146.557C251.079 146.397 250.954 146.262 250.801 146.163C250.275 145.851 249.697 145.637 249.094 145.53L247.169 145.104C246.709 145.001 246.26 144.85 245.831 144.654C245.377 144.452 244.954 144.188 244.575 143.867C244.195 143.541 243.88 143.147 243.645 142.706C243.392 142.22 243.266 141.678 243.278 141.13C243.266 140.502 243.417 139.882 243.717 139.33C244.011 138.8 244.421 138.343 244.915 137.992C245.458 137.609 246.063 137.323 246.704 137.147C247.424 136.947 248.169 136.85 248.917 136.857C250.136 136.835 251.343 137.101 252.441 137.632C253.477 138.15 254.289 139.025 254.726 140.097L251.528 141.391C251.291 140.873 250.879 140.453 250.365 140.207C249.891 139.971 249.37 139.846 248.841 139.841C248.36 139.831 247.885 139.943 247.46 140.166C247.294 140.235 247.151 140.35 247.048 140.497C246.945 140.644 246.886 140.817 246.878 140.996C246.88 141.156 246.928 141.312 247.016 141.446C247.103 141.581 247.227 141.687 247.372 141.754C247.796 141.979 248.247 142.149 248.713 142.262L250.827 142.77C252.236 143.107 253.284 143.646 253.97 144.387C254.644 145.097 255.013 146.042 255 147.02C255 147.617 254.854 148.206 254.575 148.735C254.28 149.296 253.872 149.79 253.377 150.186C252.826 150.626 252.201 150.963 251.531 151.182C250.748 151.437 249.929 151.561 249.106 151.551Z" fill="#FF9000"/>
<path d="M13.9284 138.497C12.2091 138.524 10.4966 138.274 8.85705 137.757C7.4792 137.315 6.17555 136.669 4.98958 135.841C3.95195 135.11 3.02798 134.229 2.24746 133.229C1.56801 132.372 1.03096 131.411 0.656851 130.384L7.51361 127.67C7.96973 129.019 8.85507 130.182 10.0347 130.982C11.1831 131.759 12.5411 132.169 13.9284 132.158C16.1926 132.158 17.9839 131.423 19.3021 129.954C20.6204 128.486 21.2785 126.464 21.2766 123.891V122.03H20.8375C19.9805 123.214 18.8397 124.164 17.5196 124.793C16.002 125.501 14.3408 125.848 12.6664 125.806C11.0534 125.806 9.45785 125.474 7.97887 124.831C6.4603 124.183 5.08923 123.234 3.94856 122.042C1.37878 119.311 -0.0517578 115.705 -0.0517578 111.959C-0.0517578 108.213 1.37878 104.607 3.94856 101.876C5.09016 100.684 6.46095 99.7347 7.97887 99.084C9.45785 98.4415 11.0534 98.1095 12.6664 98.1087C14.3408 98.0673 16.002 98.4141 17.5196 99.1217C18.8391 99.7522 19.9797 100.702 20.8375 101.885H21.2766V98.9824H28.1333V123.888C28.1636 125.966 27.8097 128.033 27.0894 129.983C26.4498 131.701 25.4595 133.266 24.1815 134.581C22.9154 135.855 21.3917 136.845 19.7121 137.484C17.8641 138.178 15.9026 138.521 13.9284 138.497V138.497ZM14.2017 119.339C15.0962 119.339 15.9831 119.176 16.8188 118.857C17.6665 118.541 18.4411 118.056 19.0957 117.432C19.7745 116.771 20.3151 115.981 20.6863 115.11C21.1037 114.114 21.3087 113.043 21.2882 111.963C21.3017 110.879 21.0929 109.803 20.6746 108.802C20.3058 107.93 19.7649 107.14 19.084 106.48C18.4319 105.847 17.6571 105.353 16.8072 105.029C15.9716 104.71 15.0847 104.545 14.1901 104.544C13.3145 104.548 12.4471 104.712 11.6312 105.029C10.7894 105.352 10.0239 105.846 9.38337 106.48C8.70984 107.146 8.16996 107.934 7.79277 108.802C6.9863 110.822 6.9863 113.073 7.79277 115.092C8.16285 115.965 8.70363 116.754 9.38337 117.415C10.0284 118.04 10.7928 118.53 11.6312 118.854C12.451 119.172 13.3224 119.335 14.2017 119.336V119.339Z" fill="#FF9000"/>
<path d="M46.7229 98.0971C48.6843 98.0732 50.631 98.4362 52.4515 99.1653C54.1394 99.8354 55.6715 100.844 56.953 102.13C58.2345 103.415 59.238 104.949 59.9014 106.637C61.3281 110.336 61.3281 114.432 59.9014 118.132C59.237 119.821 58.2321 121.355 56.9491 122.64C55.6661 123.926 54.1323 124.934 52.4427 125.603C48.756 127.027 44.6696 127.027 40.9828 125.603C39.2933 124.934 37.7595 123.926 36.4764 122.64C35.1934 121.355 34.1885 119.821 33.5241 118.132C32.0974 114.432 32.0974 110.336 33.5241 106.637C34.1905 104.946 35.198 103.411 36.4842 102.125C37.7703 100.84 39.3075 99.8324 41.0003 99.1653C42.8189 98.4371 44.7636 98.0741 46.7229 98.0971V98.0971ZM46.7229 120.047C47.6344 120.049 48.5373 119.873 49.3807 119.528C50.2347 119.186 51.0095 118.673 51.6576 118.021C52.3361 117.333 52.8674 116.514 53.2191 115.615C53.9869 113.529 53.9869 111.239 53.2191 109.154C52.866 108.254 52.3349 107.435 51.6576 106.744C51.0078 106.095 50.2334 105.584 49.3807 105.241C47.6658 104.548 45.7481 104.548 44.0332 105.241C43.192 105.589 42.4281 106.1 41.7854 106.744C41.1081 107.435 40.577 108.254 40.2239 109.154C39.4561 111.239 39.4561 113.529 40.2239 115.615C40.5756 116.514 41.1069 117.333 41.7854 118.021C42.4264 118.668 43.1907 119.18 44.0332 119.528C44.8863 119.877 45.8007 120.054 46.7229 120.047V120.047Z" fill="#FF9000"/>
<path d="M77.9304 86.5994H86.3632L101.115 125.786H92.9438L89.716 116.436H74.5951L71.3586 125.795H63.1875L77.9304 86.5994ZM87.3083 109.647L83.7985 99.8474L82.3736 95.0869H81.9346L80.5068 99.8474L76.997 109.647H87.3083Z" fill="#F4EDE8"/>
<path d="M116.696 138.497C114.977 138.524 113.264 138.274 111.625 137.757C110.247 137.315 108.943 136.669 107.757 135.841C106.72 135.11 105.796 134.229 105.015 133.229C104.336 132.372 103.799 131.411 103.424 130.384L110.281 127.67C110.737 129.019 111.623 130.182 112.802 130.982C113.951 131.759 115.309 132.169 116.696 132.158C118.962 132.158 120.753 131.423 122.07 129.954C123.386 128.486 124.044 126.464 124.044 123.891V122.03H123.605C122.748 123.214 121.607 124.164 120.287 124.793C118.771 125.496 117.113 125.838 115.443 125.795C113.83 125.794 112.234 125.462 110.755 124.82C109.235 124.172 107.861 123.223 106.719 122.03C104.149 119.299 102.719 115.694 102.719 111.947C102.719 108.201 104.149 104.595 106.719 101.865C107.861 100.673 109.231 99.7231 110.749 99.0724C112.23 98.4291 113.828 98.0971 115.443 98.0971C117.117 98.0557 118.778 98.4025 120.296 99.1101C121.615 99.7406 122.756 100.691 123.614 101.873H124.053V98.9708H130.91V123.876C130.94 125.955 130.586 128.021 129.866 129.972C129.226 131.689 128.236 133.255 126.958 134.57C125.692 135.843 124.168 136.833 122.488 137.472C120.638 138.171 118.674 138.519 116.696 138.497ZM116.969 119.339C117.864 119.339 118.751 119.176 119.586 118.857C120.434 118.541 121.209 118.056 121.863 117.432C122.542 116.771 123.083 115.981 123.454 115.11C123.871 114.114 124.076 113.043 124.056 111.963C124.069 110.879 123.861 109.803 123.442 108.802C123.07 107.929 122.525 107.139 121.84 106.48C121.185 105.856 120.411 105.371 119.563 105.055C118.728 104.736 117.841 104.571 116.946 104.57C116.065 104.572 115.191 104.736 114.37 105.055C113.528 105.378 112.762 105.872 112.122 106.506C111.448 107.172 110.908 107.96 110.531 108.828C109.725 110.848 109.725 113.099 110.531 115.119C110.901 115.991 111.442 116.78 112.122 117.441C112.768 118.061 113.533 118.546 114.37 118.866C115.199 119.183 116.081 119.342 116.969 119.336V119.339Z" fill="#F4EDE8"/>
<path d="M174.001 102.477H174.44C175.277 101.137 176.448 100.037 177.839 99.2842C179.34 98.4824 181.02 98.0777 182.722 98.1086C184.244 98.079 185.755 98.3595 187.165 98.933C188.389 99.44 189.471 100.237 190.317 101.255C191.173 102.324 191.806 103.553 192.181 104.869C192.618 106.39 192.831 107.966 192.812 109.548V125.803H185.63V110.419C185.63 108.484 185.199 107.052 184.339 106.123C183.478 105.194 182.225 104.727 180.579 104.721C179.666 104.699 178.764 104.916 177.962 105.351C177.208 105.773 176.553 106.351 176.042 107.046C175.488 107.805 175.079 108.659 174.836 109.566C174.554 110.572 174.416 111.612 174.423 112.657V125.795H167.24V98.9736H173.984L174.001 102.477Z" fill="#F4EDE8"/>
<path d="M218.75 122.567H218.31C217.562 123.788 216.502 124.79 215.24 125.47C213.85 126.273 212.131 126.674 210.084 126.674C208.389 126.68 206.714 126.316 205.176 125.606C203.625 124.898 202.228 123.894 201.064 122.651C199.842 121.34 198.884 119.806 198.24 118.135C196.852 114.428 196.852 110.346 198.24 106.64C198.884 104.969 199.843 103.437 201.064 102.126C202.228 100.883 203.625 99.8792 205.176 99.1711C206.714 98.4615 208.389 98.0969 210.084 98.1029C212.131 98.1029 213.85 98.5044 215.24 99.3075C216.502 99.9882 217.561 100.99 218.31 102.21H218.75L218.31 98.3786V86.5994H225.496V125.786H218.75V122.567ZM211.564 120.047C212.494 120.057 213.416 119.885 214.28 119.542C215.134 119.2 215.908 118.687 216.557 118.036C217.238 117.344 217.778 116.527 218.148 115.629C218.949 113.55 218.949 111.248 218.148 109.168C217.777 108.271 217.237 107.453 216.557 106.759C215.907 106.11 215.132 105.599 214.28 105.255C213.417 104.909 212.495 104.732 211.564 104.736C210.632 104.732 209.709 104.918 208.851 105.281C208 105.641 207.227 106.162 206.574 106.814C205.894 107.507 205.354 108.325 204.984 109.223C204.181 111.264 204.181 113.533 204.984 115.574C205.354 116.472 205.894 117.29 206.574 117.984C207.227 118.636 208 119.156 208.851 119.516C209.71 119.875 210.633 120.055 211.564 120.047V120.047Z" fill="#F4EDE8"/>
<path d="M247.925 122.95H247.486C246.625 123.99 245.596 124.878 244.441 125.577C243.255 126.305 241.729 126.67 239.864 126.671C238.526 126.68 237.197 126.448 235.942 125.986C234.769 125.558 233.685 124.919 232.743 124.1C231.83 123.296 231.101 122.306 230.606 121.197C230.084 120.026 229.822 118.757 229.838 117.476C229.817 116.184 230.095 114.904 230.649 113.737C231.2 112.623 231.987 111.643 232.955 110.863C233.99 110.035 235.175 109.412 236.445 109.029C237.858 108.598 239.329 108.386 240.806 108.399C242.26 108.366 243.712 108.501 245.133 108.802C246.084 109.02 247.019 109.303 247.931 109.65V108.828C247.942 108.149 247.793 107.476 247.498 106.863C247.203 106.25 246.768 105.715 246.23 105.299C245.098 104.366 243.69 103.901 242.007 103.902C239.52 103.902 237.418 104.943 235.7 107.023L230.486 103.461C233.34 99.8851 237.234 98.097 242.167 98.097C246.335 98.097 249.516 99.0733 251.708 101.026C253.901 102.978 254.998 105.871 255 109.702V125.795H247.925V122.95ZM247.925 114.901C247.084 114.501 246.208 114.18 245.308 113.943C244.349 113.7 243.363 113.581 242.374 113.589C240.654 113.589 239.329 113.962 238.399 114.709C237.964 115.028 237.611 115.445 237.368 115.926C237.125 116.406 236.999 116.937 237 117.476C236.988 117.99 237.104 118.5 237.339 118.959C237.573 119.417 237.919 119.811 238.344 120.103C239.241 120.761 240.33 121.107 241.443 121.09C243.195 121.103 244.88 120.423 246.131 119.2C247.276 118.06 247.921 116.513 247.925 114.898V114.901Z" fill="#F4EDE8"/>
<path d="M159.9 118.271C159.055 117.745 158.21 117.217 157.365 116.689L157.088 116.515L156.882 116.764C156.241 117.589 155.5 118.33 154.675 118.971C152.639 120.486 149.592 120.892 146.92 120.001C145.073 119.42 143.849 118.001 143.104 116.808L152.572 113.145C155.922 111.85 159.276 110.553 162.634 109.252L162.956 109.124L162.84 108.802C161.834 105.94 159.327 100.855 153.855 98.933C149.031 97.2059 143.229 98.2828 139.414 101.609C136.595 104.142 134.892 107.684 134.674 111.463C134.456 115.243 135.742 118.956 138.251 121.795C140.967 124.863 145.343 126.689 149.752 126.689C150.344 126.689 150.937 126.656 151.526 126.59C153.698 126.397 155.804 125.742 157.7 124.667C159.597 123.592 161.241 122.124 162.52 120.361L162.735 120.071L162.418 119.87C161.579 119.323 160.74 118.79 159.9 118.271ZM141.871 111.447C141.903 109.981 142.378 108.559 143.235 107.368V107.368C143.951 106.408 144.879 105.625 145.946 105.079C147.013 104.533 148.192 104.24 149.391 104.222C149.747 104.22 150.102 104.249 150.453 104.309C152.168 104.553 153.611 105.421 154.317 106.605C150.109 108.259 145.931 109.879 141.877 111.447H141.871Z" fill="#F4EDE8"/>
<path d="M151.535 8.43194H144.131V5.06478C144.146 4.49833 144.047 3.93465 143.84 3.40699C143.634 2.87933 143.323 2.39837 142.927 1.99249C142.531 1.58661 142.057 1.26403 141.534 1.04376C141.011 0.8235 140.449 0.710022 139.882 0.710022C139.314 0.710022 138.752 0.8235 138.229 1.04376C137.706 1.26403 137.232 1.58661 136.836 1.99249C136.44 2.39837 136.13 2.87933 135.923 3.40699C135.716 3.93465 135.617 4.49833 135.632 5.06478V8.43194H119.348V5.06478C119.362 4.49833 119.264 3.93465 119.057 3.40699C118.85 2.87933 118.539 2.39837 118.143 1.99249C117.747 1.58661 117.273 1.26403 116.75 1.04376C116.227 0.8235 115.665 0.710022 115.098 0.710022C114.53 0.710022 113.968 0.8235 113.445 1.04376C112.922 1.26403 112.449 1.58661 112.053 1.99249C111.656 2.39837 111.346 2.87933 111.139 3.40699C110.932 3.93465 110.833 4.49833 110.848 5.06478V8.43194H103.465C102.016 8.4327 100.626 9.00701 99.6011 10.0289C98.5757 11.0508 97.9982 12.4369 97.9951 13.8833V60.4342C97.9967 61.8811 98.5731 63.2682 99.598 64.2913C100.623 65.3144 102.012 65.8898 103.462 65.8913H151.535C152.984 65.8898 154.374 65.3144 155.399 64.2913C156.424 63.2682 157 61.8811 157.002 60.4342V13.8833C156.999 12.4374 156.421 11.0518 155.397 10.0299C154.372 9.00811 152.983 8.43347 151.535 8.43194V8.43194ZM137.853 5.06478C137.83 4.78449 137.864 4.50232 137.955 4.23614C138.047 3.96996 138.192 3.72556 138.383 3.51843C138.573 3.3113 138.805 3.14594 139.063 3.03282C139.321 2.91971 139.6 2.8613 139.882 2.8613C140.163 2.8613 140.442 2.91971 140.7 3.03282C140.958 3.14594 141.19 3.3113 141.38 3.51843C141.571 3.72556 141.717 3.96996 141.808 4.23614C141.899 4.50232 141.934 4.78449 141.91 5.06478V12.577C141.934 12.8573 141.899 13.1395 141.808 13.4057C141.717 13.6718 141.571 13.9162 141.38 14.1234C141.19 14.3305 140.958 14.4959 140.7 14.609C140.442 14.7221 140.163 14.7805 139.882 14.7805C139.6 14.7805 139.321 14.7221 139.063 14.609C138.805 14.4959 138.573 14.3305 138.383 14.1234C138.192 13.9162 138.047 13.6718 137.955 13.4057C137.864 13.1395 137.83 12.8573 137.853 12.577V5.06478ZM113.061 5.06478C113.037 4.78449 113.072 4.50232 113.163 4.23614C113.254 3.96996 113.4 3.72556 113.59 3.51843C113.781 3.3113 114.013 3.14594 114.271 3.03282C114.529 2.91971 114.807 2.8613 115.089 2.8613C115.371 2.8613 115.65 2.91971 115.908 3.03282C116.166 3.14594 116.397 3.3113 116.588 3.51843C116.779 3.72556 116.924 3.96996 117.015 4.23614C117.106 4.50232 117.141 4.78449 117.117 5.06478V12.577C117.141 12.8573 117.106 13.1395 117.015 13.4057C116.924 13.6718 116.779 13.9162 116.588 14.1234C116.397 14.3305 116.166 14.4959 115.908 14.609C115.65 14.7221 115.371 14.7805 115.089 14.7805C114.807 14.7805 114.529 14.7221 114.271 14.609C114.013 14.4959 113.781 14.3305 113.59 14.1234C113.4 13.9162 113.254 13.6718 113.163 13.4057C113.072 13.1395 113.037 12.8573 113.061 12.577V5.06478ZM103.465 10.6525H110.839V12.577C110.824 13.1435 110.923 13.7072 111.13 14.2348C111.337 14.7625 111.648 15.2434 112.044 15.6493C112.44 16.0552 112.913 16.3778 113.436 16.598C113.959 16.8183 114.521 16.9318 115.089 16.9318C115.657 16.9318 116.219 16.8183 116.742 16.598C117.265 16.3778 117.738 16.0552 118.134 15.6493C118.53 15.2434 118.841 14.7625 119.048 14.2348C119.255 13.7072 119.354 13.1435 119.339 12.577V10.6525H135.623V12.577C135.608 13.1435 135.707 13.7072 135.914 14.2348C136.121 14.7625 136.432 15.2434 136.828 15.6493C137.224 16.0552 137.697 16.3778 138.22 16.598C138.743 16.8183 139.305 16.9318 139.873 16.9318C140.44 16.9318 141.002 16.8183 141.525 16.598C142.048 16.3778 142.522 16.0552 142.918 15.6493C143.314 15.2434 143.625 14.7625 143.832 14.2348C144.039 13.7072 144.138 13.1435 144.123 12.577V10.6525H151.526C152.387 10.651 153.212 10.9903 153.823 11.596C154.433 12.2017 154.777 13.0243 154.78 13.8833V19.5523H100.22V13.8833C100.223 13.0258 100.566 12.2046 101.174 11.5991C101.782 10.9936 102.606 10.6533 103.465 10.6525V10.6525ZM151.535 63.6707H103.465C102.605 63.67 101.78 63.3288 101.172 62.7221C100.564 62.1154 100.221 61.2926 100.22 60.4342V21.7699H154.78V60.4342C154.779 61.2926 154.436 62.1154 153.828 62.7221C153.219 63.3288 152.395 63.67 151.535 63.6707Z" fill="#FF9000"/>
<path d="M112.392 49.729H105.782C104.928 49.729 104.235 50.4204 104.235 51.2732V57.9872C104.235 58.8401 104.928 59.5315 105.782 59.5315H112.392C113.246 59.5315 113.939 58.8401 113.939 57.9872V51.2732C113.939 50.4204 113.246 49.729 112.392 49.729Z" fill="#F4EDE8"/>
<path d="M124.587 49.729H117.978C117.123 49.729 116.431 50.4204 116.431 51.2732V57.9872C116.431 58.8401 117.123 59.5315 117.978 59.5315H124.587C125.442 59.5315 126.134 58.8401 126.134 57.9872V51.2732C126.134 50.4204 125.442 49.729 124.587 49.729Z" fill="#F4EDE8"/>
<path d="M136.781 49.729H130.171C129.317 49.729 128.624 50.4204 128.624 51.2732V57.9872C128.624 58.8401 129.317 59.5315 130.171 59.5315H136.781C137.635 59.5315 138.328 58.8401 138.328 57.9872V51.2732C138.328 50.4204 137.635 49.729 136.781 49.729Z" fill="#F4EDE8"/>
<path d="M148.976 49.729H142.366C141.512 49.729 140.819 50.4204 140.819 51.2732V57.9872C140.819 58.8401 141.512 59.5315 142.366 59.5315H148.976C149.83 59.5315 150.523 58.8401 150.523 57.9872V51.2732C150.523 50.4204 149.83 49.729 148.976 49.729Z" fill="#F4EDE8"/>
<path d="M112.392 37.5027H105.782C104.928 37.5027 104.235 38.1941 104.235 39.047V45.761C104.235 46.6139 104.928 47.3052 105.782 47.3052H112.392C113.246 47.3052 113.939 46.6139 113.939 45.761V39.047C113.939 38.1941 113.246 37.5027 112.392 37.5027Z" fill="#F4EDE8"/>
<path d="M124.587 37.5027H117.978C117.123 37.5027 116.431 38.1941 116.431 39.047V45.761C116.431 46.6139 117.123 47.3052 117.978 47.3052H124.587C125.442 47.3052 126.134 46.6139 126.134 45.761V39.047C126.134 38.1941 125.442 37.5027 124.587 37.5027Z" fill="#F4EDE8"/>
<path d="M136.781 37.5027H130.171C129.317 37.5027 128.624 38.1941 128.624 39.047V45.761C128.624 46.6139 129.317 47.3052 130.171 47.3052H136.781C137.635 47.3052 138.328 46.6139 138.328 45.761V39.047C138.328 38.1941 137.635 37.5027 136.781 37.5027Z" fill="#F4EDE8"/>
<path d="M149.046 38.6116C149.094 38.6116 149.142 38.6211 149.187 38.6397C149.231 38.6583 149.272 38.6855 149.306 38.7197C149.34 38.754 149.367 38.7947 149.385 38.8394C149.403 38.8841 149.412 38.932 149.412 38.9802V45.8306C149.412 45.8789 149.403 45.9268 149.385 45.9715C149.367 46.0162 149.34 46.0569 149.306 46.0911C149.272 46.1254 149.231 46.1526 149.187 46.1712C149.142 46.1897 149.094 46.1993 149.046 46.1993H142.297C142.199 46.1985 142.106 46.1594 142.037 46.0903C141.969 46.0213 141.93 45.9279 141.93 45.8306V38.9802C141.93 38.883 141.969 38.7896 142.037 38.7206C142.106 38.6515 142.199 38.6124 142.297 38.6116H149.046V38.6116ZM149.046 37.5027H142.297C141.904 37.5035 141.529 37.6595 141.252 37.9365C140.975 38.2135 140.819 38.5889 140.819 38.9802V45.8306C140.819 46.222 140.975 46.5974 141.252 46.8744C141.529 47.1514 141.904 47.3074 142.297 47.3081H149.046C149.24 47.3081 149.432 47.2699 149.612 47.1956C149.791 47.1213 149.954 47.0124 150.091 46.8752C150.228 46.738 150.337 46.5751 150.411 46.3958C150.485 46.2166 150.523 46.0245 150.523 45.8306V38.9802C150.523 38.7863 150.485 38.5943 150.411 38.415C150.337 38.2358 150.228 38.0729 150.091 37.9357C149.954 37.7984 149.791 37.6896 149.612 37.6153C149.432 37.541 149.24 37.5027 149.046 37.5027V37.5027Z" fill="#FF9000"/>
<path d="M124.587 25.2794H117.978C117.123 25.2794 116.431 25.9707 116.431 26.8236V33.5376C116.431 34.3905 117.123 35.0819 117.978 35.0819H124.587C125.442 35.0819 126.134 34.3905 126.134 33.5376V26.8236C126.134 25.9707 125.442 25.2794 124.587 25.2794Z" fill="#F4EDE8"/>
<path d="M136.781 25.2794H130.171C129.317 25.2794 128.624 25.9707 128.624 26.8236V33.5376C128.624 34.3905 129.317 35.0819 130.171 35.0819H136.781C137.635 35.0819 138.328 34.3905 138.328 33.5376V26.8236C138.328 25.9707 137.635 25.2794 136.781 25.2794Z" fill="#F4EDE8"/>
<path d="M148.976 25.2794H142.366C141.512 25.2794 140.819 25.9707 140.819 26.8236V33.5376C140.819 34.3905 141.512 35.0819 142.366 35.0819H148.976C149.83 35.0819 150.523 34.3905 150.523 33.5376V26.8236C150.523 25.9707 149.83 25.2794 148.976 25.2794Z" fill="#F4EDE8"/>
</g>
<defs>
<clipPath id="clip0">
<rect width="255" height="156.358" fill="white" transform="translate(0 0.820984)"/>
</clipPath>
</defs>
</svg>
