<svg width="230" height="38" viewBox="0 0 230 38" fill="none" xmlns="http://www.w3.org/2000/svg">
<path d="M57.9876 37.0934C56.7611 37.1149 55.5392 36.938 54.3691 36.5698C53.3863 36.2549 52.4568 35.7932 51.612 35.2004C50.8712 34.6806 50.2112 34.0541 49.6535 33.3414C49.1689 32.7284 48.7861 32.0415 48.5198 31.307L53.4134 29.3459C53.7397 30.3066 54.3714 31.1343 55.2122 31.7023C56.0315 32.2577 57.0004 32.5508 57.9902 32.5428C59.6083 32.5428 60.8869 32.0191 61.826 30.9718C62.7651 29.9245 63.2347 28.4801 63.2347 26.6385V25.3163H62.9205C62.3117 26.1604 61.5017 26.839 60.564 27.2905C59.4748 27.8007 58.2813 28.0491 57.079 28.0158C55.9277 28.0149 54.7888 27.7779 53.7328 27.3193C52.6477 26.8547 51.6679 26.1752 50.8527 25.3215C49.0057 23.389 47.9936 20.8071 48.0354 18.1343C47.9938 15.4506 49.0052 12.8573 50.8527 10.9104C51.6673 10.0567 52.6473 9.37782 53.7328 8.91521C54.7883 8.4547 55.9274 8.21672 57.079 8.21612C58.2734 8.18645 59.4584 8.43474 60.5404 8.9414C61.4773 9.39422 62.287 10.0726 62.8969 10.9156H63.2111V8.8419H68.1021V26.6464C68.1241 28.1337 67.872 29.6124 67.3585 31.0085C66.9098 32.236 66.2108 33.3568 65.3057 34.2997C64.4028 35.2105 63.3154 35.9175 62.1166 36.3734C60.7975 36.8697 59.3969 37.114 57.9876 37.0934V37.0934ZM58.1839 23.3971C58.8195 23.3966 59.4497 23.2795 60.0429 23.0514C60.6479 22.8275 61.2004 22.4817 61.6663 22.0355C62.1504 21.5658 62.5359 21.0041 62.8 20.3834C63.0993 19.672 63.2465 18.9059 63.232 18.1343C63.2452 17.3577 63.0981 16.5867 62.8 15.8694C62.5403 15.241 62.1544 14.6724 61.6663 14.199C61.2006 13.7519 60.6481 13.4052 60.0429 13.1804C59.4494 12.9534 58.8195 12.8363 58.1839 12.8348C57.5569 12.836 56.9355 12.9532 56.3511 13.1804C55.7489 13.4136 55.2021 13.7704 54.7461 14.2278C54.2645 14.7067 53.8796 15.2738 53.6124 15.8982C53.3131 16.6087 53.1659 17.374 53.1804 18.1447C53.1659 18.9164 53.3131 19.6825 53.6124 20.3939C53.8765 21.0146 54.262 21.5763 54.7461 22.046C55.207 22.482 55.7511 22.8204 56.3459 23.041C56.9309 23.2737 57.5544 23.3944 58.1839 23.3971V23.3971Z" fill="#FF9000"/>
<path d="M81.3875 8.21623C82.7869 8.19927 84.1759 8.4591 85.4747 8.98078C86.6798 9.45947 87.7739 10.1802 88.6895 11.0985C89.605 12.0167 90.3225 13.113 90.7977 14.3195C91.3158 15.6274 91.5746 17.0236 91.5596 18.4302C91.5744 19.8361 91.3156 21.2313 90.7977 22.5384C90.3236 23.7455 89.6065 24.8423 88.6908 25.7607C87.7751 26.6791 86.6804 27.3995 85.4747 27.8771C82.8443 28.8965 79.928 28.8965 77.2977 27.8771C76.0927 27.3988 74.9987 26.6781 74.0835 25.7598C73.1683 24.8415 72.4514 23.745 71.9773 22.5384C71.459 21.2315 71.2011 19.836 71.218 18.4302C71.2026 17.0233 71.4623 15.6269 71.9825 14.3195C72.457 13.1139 73.1734 12.0182 74.0876 11.1001C75.0017 10.1819 76.0942 9.46063 77.2977 8.98078C78.5973 8.45909 79.9872 8.19927 81.3875 8.21623V8.21623ZM81.3875 23.9077C82.0374 23.9072 82.6811 23.7809 83.2831 23.5359C83.8918 23.2899 84.4447 22.9239 84.9091 22.4598C85.3927 21.9661 85.772 21.3802 86.0245 20.737C86.3081 20.0015 86.4476 19.2184 86.4356 18.4302C86.4478 17.6412 86.3083 16.8572 86.0245 16.1209C85.7717 15.4786 85.3924 14.8936 84.9091 14.4007C84.4447 13.9366 83.8918 13.5706 83.2831 13.3245C82.0598 12.8289 80.6916 12.8289 79.4683 13.3245C78.8681 13.5736 78.3235 13.9394 77.8659 14.4007C77.3806 14.893 77.001 15.4793 76.7505 16.1235C76.4654 16.8595 76.3258 17.6437 76.3394 18.4329C76.326 19.2211 76.4656 20.0045 76.7505 20.7396C77.001 21.3839 77.3806 21.9701 77.8659 22.4624C78.3235 22.9237 78.8681 23.2895 79.4683 23.5386C80.0776 23.7864 80.7297 23.9118 81.3875 23.9077V23.9077Z" fill="#FF9000"/>
<path d="M103.651 0H109.673L120.199 28.0159H114.37L112.063 21.3235H101.263L98.9536 28.0159H93.1253L103.651 0ZM110.341 16.4718L107.838 9.4678L106.819 6.064H106.507L105.489 9.4678L102.986 16.4718H110.341Z" fill="#F4EDE8"/>
<path d="M131.313 37.0936C130.087 37.1152 128.865 36.9384 127.695 36.57C126.711 36.255 125.781 35.7934 124.935 35.2006C124.195 34.6808 123.536 34.0544 122.979 33.3416C122.493 32.7293 122.109 32.0423 121.843 31.3072L126.726 29.346C127.054 30.3066 127.687 31.1339 128.528 31.7025C129.347 32.2582 130.316 32.5514 131.306 32.543C132.92 32.543 134.198 32.0193 135.139 30.972C136.08 29.9247 136.549 28.4803 136.547 26.6387V25.3165H136.236C135.626 26.1595 134.816 26.8379 133.879 27.2907C132.795 27.7975 131.609 28.0458 130.413 28.0159C129.261 28.0146 128.123 27.7776 127.066 27.3195C125.982 26.8537 125.003 26.1742 124.186 25.3217C122.343 23.3869 121.332 20.8066 121.369 18.1345C121.352 16.733 121.619 15.3425 122.155 14.0473C122.633 12.8836 123.323 11.8183 124.189 10.9053C125.005 10.0527 125.984 9.37406 127.069 8.91017C128.125 8.45001 129.264 8.21205 130.415 8.21108C131.611 8.18167 132.796 8.42993 133.879 8.93635C134.816 9.39018 135.625 10.0684 136.236 10.9106H136.547V8.84209H141.438V26.6466C141.462 28.134 141.21 29.6129 140.695 31.0087C140.243 32.2378 139.54 33.3589 138.629 34.2999C137.727 35.2117 136.639 35.9189 135.44 36.3736C134.122 36.8701 132.722 37.1143 131.313 37.0936V37.0936ZM131.51 23.3973C132.145 23.3935 132.774 23.2728 133.366 23.0412C133.972 22.8169 134.525 22.4712 134.992 22.0253C135.475 21.5548 135.861 20.9933 136.126 20.3731C136.423 19.6612 136.569 18.8953 136.555 18.124C136.568 17.3477 136.422 16.577 136.126 15.8592C135.865 15.2314 135.479 14.6631 134.992 14.1887C134.525 13.7419 133.972 13.3953 133.366 13.1702C132.773 12.9452 132.144 12.8299 131.51 12.8298C130.883 12.831 130.261 12.9482 129.677 13.1754C129.076 13.4093 128.53 13.766 128.075 14.2227C127.592 14.7015 127.206 15.2686 126.938 15.8932C126.64 16.6038 126.494 17.3691 126.509 18.1397C126.494 18.9111 126.64 19.6773 126.938 20.3888C127.203 21.0097 127.59 21.5714 128.075 22.041C128.534 22.4776 129.076 22.8177 129.669 23.0412C130.255 23.2741 130.879 23.3949 131.51 23.3973V23.3973Z" fill="#F4EDE8"/>
<path d="M172.201 11.3477H172.515C173.111 10.3866 173.946 9.59703 174.939 9.05672C176.009 8.48366 177.208 8.1943 178.422 8.21625C179.507 8.19506 180.586 8.39459 181.593 8.80275C182.466 9.16925 183.238 9.74251 183.842 10.4732C184.452 11.2381 184.904 12.1165 185.172 13.0575C185.483 14.1444 185.634 15.2706 185.622 16.4011V28.0159H180.495V17.019C180.495 15.6365 180.189 14.6119 179.576 13.9451C178.964 13.2783 178.07 12.9458 176.895 12.9475C176.248 12.9345 175.608 13.0897 175.039 13.3979C174.5 13.7005 174.033 14.1147 173.667 14.6128C173.272 15.1554 172.981 15.766 172.808 16.4142C172.608 17.1336 172.51 17.8774 172.515 18.624V28.0159H167.388V8.84202H172.201V11.3477Z" fill="#F4EDE8"/>
<path d="M204.128 25.7065H203.817C203.281 26.5779 202.525 27.293 201.625 27.7802C200.634 28.3545 199.412 28.6417 197.96 28.6417C196.751 28.6458 195.556 28.3848 194.459 27.8771C193.352 27.3716 192.355 26.6547 191.524 25.7668C190.652 24.8292 189.968 23.7333 189.508 22.5384C189.002 21.2284 188.75 19.8343 188.764 18.4303C188.75 17.0253 189.002 15.6303 189.508 14.3195C189.967 13.125 190.651 12.0299 191.524 11.0938C192.355 10.2042 193.352 9.48627 194.459 8.98079C195.551 8.47529 196.741 8.21436 197.944 8.21624C199.405 8.21624 200.627 8.50339 201.61 9.07767C202.509 9.56486 203.265 10.28 203.801 11.1514H204.113L203.801 8.41262V0H208.941V28.0159H204.128V25.7065ZM198.991 23.9078C199.655 23.9097 200.313 23.7835 200.929 23.536C201.537 23.2905 202.089 22.9244 202.552 22.4598C203.044 21.9658 203.436 21.3807 203.704 20.737C204 20.0046 204.146 19.2202 204.134 18.4303C204.147 17.6395 204.001 16.8542 203.704 16.1209C203.439 15.479 203.051 14.8948 202.563 14.4007C202.1 13.9361 201.548 13.57 200.939 13.3246C200.323 13.0771 199.666 12.9508 199.002 12.9528C198.337 12.9502 197.678 13.0839 197.067 13.3455C196.46 13.6024 195.909 13.974 195.444 14.44C194.957 14.9353 194.571 15.5204 194.307 16.1628C193.735 17.6211 193.735 19.242 194.307 20.7003C194.571 21.3427 194.957 21.9278 195.444 22.4232C195.908 22.8899 196.46 23.2616 197.067 23.5176C197.675 23.777 198.33 23.9097 198.991 23.9078V23.9078Z" fill="#F4EDE8"/>
<path d="M224.944 25.9816H224.632C224.018 26.7245 223.284 27.359 222.459 27.8589C221.613 28.3825 220.524 28.6444 219.194 28.6444C218.239 28.6513 217.291 28.4855 216.395 28.1548C215.556 27.8501 214.78 27.393 214.107 26.8063C213.456 26.2316 212.936 25.5246 212.58 24.7326C212.209 23.8947 212.022 22.9864 212.033 22.0698C212.02 21.1437 212.22 20.227 212.62 19.3913C213.011 18.5943 213.572 17.8927 214.264 17.3359C215.001 16.7446 215.844 16.3001 216.749 16.0268C217.756 15.7177 218.805 15.5658 219.859 15.5764C220.897 15.5545 221.934 15.6529 222.949 15.8697C223.627 16.0246 224.294 16.2267 224.944 16.4745V15.8854C224.952 15.3982 224.847 14.9159 224.636 14.4765C224.426 14.0371 224.116 13.6526 223.732 13.3535C222.878 12.6767 221.812 12.3258 220.723 12.3638C218.952 12.3638 217.452 13.1073 216.225 14.5945L212.502 12.0443C214.535 9.48536 217.313 8.20675 220.836 8.2085C223.803 8.2085 226.073 8.90671 227.644 10.3031C229.215 11.6996 230 13.7663 230 16.5033V28.016H224.944V25.9816ZM224.944 20.2213C224.345 19.9383 223.721 19.7113 223.08 19.5431C222.396 19.3666 221.692 19.2786 220.985 19.2813C219.763 19.2813 218.818 19.5493 218.15 20.0851C217.84 20.3125 217.588 20.6098 217.415 20.9529C217.241 21.2959 217.151 21.675 217.152 22.0593C217.143 22.4277 217.226 22.7925 217.393 23.1207C217.56 23.449 217.807 23.7303 218.11 23.9393C218.75 24.4089 219.526 24.6563 220.32 24.6436C220.94 24.6517 221.555 24.5374 222.131 24.3074C222.706 24.0774 223.231 23.7361 223.674 23.303C224.485 22.4863 224.941 21.3828 224.944 20.2318V20.2213Z" fill="#F4EDE8"/>
<path d="M162.139 22.6353L160.329 21.5068L160.133 21.3837L159.986 21.5592C159.53 22.1464 159.003 22.6741 158.415 23.1301C156.96 24.2141 154.789 24.5048 152.883 23.8685C151.574 23.4496 150.691 22.4389 150.162 21.5775C152.416 20.7047 154.667 19.832 156.915 18.9592C159.306 18.0393 161.698 17.1133 164.089 16.1812L164.32 16.0921L164.241 15.8617C163.524 13.8168 161.735 10.1826 157.829 8.7923C154.388 7.55908 150.249 8.32624 147.528 10.7063C145.516 12.5159 144.299 15.0471 144.142 17.7492C143.986 20.4513 144.903 23.106 146.693 25.1358C148.633 27.3299 151.754 28.6338 154.902 28.6338C155.324 28.6338 155.746 28.6102 156.166 28.5631C157.718 28.4269 159.222 27.959 160.577 27.1911C161.932 26.4232 163.107 25.3731 164.021 24.112L164.176 23.8947L163.948 23.7507C163.338 23.3815 162.738 23.0097 162.139 22.6353ZM149.28 17.76C149.302 16.7124 149.642 15.6963 150.254 14.8458V14.8458C150.764 14.1585 151.425 13.5979 152.187 13.2074C152.948 12.8169 153.789 12.607 154.645 12.5941C154.898 12.594 155.152 12.615 155.402 12.6569C156.627 12.8323 157.656 13.4424 158.161 14.2986C155.156 15.4821 152.173 16.6367 149.28 17.76Z" fill="#F4EDE8"/>
<path d="M30.896 4.67969H26.6282V2.73167C26.6282 2.081 26.3697 1.45698 25.9096 0.996891C25.4495 0.536798 24.8255 0.27832 24.1748 0.27832C23.5241 0.27832 22.9001 0.536798 22.44 0.996891C21.9799 1.45698 21.7215 2.081 21.7215 2.73167V4.67969H12.3191V2.73167C12.3191 2.081 12.0607 1.45698 11.6006 0.996891C11.1405 0.536798 10.5164 0.27832 9.86578 0.27832C9.21511 0.27832 8.59109 0.536798 8.13099 0.996891C7.6709 1.45698 7.41242 2.081 7.41242 2.73167V4.67969H3.15506C2.3185 4.68039 1.5164 5.01302 0.924861 5.60455C0.333323 6.19609 0.000693379 6.99819 0 7.83475L0 34.7483C0.00483619 35.5824 0.339211 36.3807 0.930227 36.9693C1.52124 37.5579 2.32097 37.8889 3.15506 37.8903H30.896C31.728 37.8862 32.5248 37.5538 33.1132 36.9655C33.7015 36.3771 34.0338 35.5803 34.038 34.7483V7.83475C34.0373 7.00045 33.7065 6.20033 33.1177 5.60916C32.529 5.018 31.7303 4.68384 30.896 4.67969V4.67969ZM22.9992 5.96266V2.73167C22.9992 2.42127 23.1225 2.12358 23.342 1.90409C23.5615 1.6846 23.8592 1.56129 24.1696 1.56129C24.48 1.56129 24.7777 1.6846 24.9972 1.90409C25.2167 2.12358 25.34 2.42127 25.34 2.73167V7.07021C25.34 7.38061 25.2167 7.6783 24.9972 7.89779C24.7777 8.11728 24.48 8.24059 24.1696 8.24059C23.8592 8.24059 23.5615 8.11728 23.342 7.89779C23.1225 7.6783 22.9992 7.38061 22.9992 7.07021V5.96266ZM8.69016 4.67969V2.73167C8.69016 2.57798 8.72043 2.42578 8.77925 2.28379C8.83806 2.14179 8.92427 2.01277 9.03295 1.90409C9.14163 1.79541 9.27066 1.7092 9.41265 1.65038C9.55465 1.59156 9.70684 1.56129 9.86054 1.56129C10.0142 1.56129 10.1664 1.59156 10.3084 1.65038C10.4504 1.7092 10.5794 1.79541 10.6881 1.90409C10.7968 2.01277 10.883 2.14179 10.9418 2.28379C11.0006 2.42578 11.0309 2.57798 11.0309 2.73167V7.07021C11.0309 7.2239 11.0006 7.37609 10.9418 7.51809C10.883 7.66009 10.7968 7.78911 10.6881 7.89779C10.5794 8.00647 10.4504 8.09268 10.3084 8.1515C10.1664 8.21032 10.0142 8.24059 9.86054 8.24059C9.70684 8.24059 9.55465 8.21032 9.41265 8.1515C9.27066 8.09268 9.14163 8.00647 9.03295 7.89779C8.92427 7.78911 8.83806 7.66009 8.77925 7.51809C8.72043 7.37609 8.69016 7.2239 8.69016 7.07021V4.67969V4.67969ZM32.7786 34.7483C32.7779 35.2446 32.5804 35.7204 32.2295 36.0713C31.8785 36.4223 31.4028 36.6197 30.9065 36.6204H3.15244C2.65614 36.6197 2.18037 36.4223 1.82944 36.0713C1.4785 35.7204 1.28104 35.2446 1.28035 34.7483V12.3906H32.7733L32.7786 34.7483ZM32.7786 11.1076H1.28297V7.83475C1.28297 7.33824 1.48021 6.86207 1.83129 6.51099C2.18238 6.1599 2.65855 5.96266 3.15506 5.96266H7.41242V7.07021C7.41242 7.72088 7.6709 8.3449 8.13099 8.80499C8.59109 9.26508 9.21511 9.52356 9.86578 9.52356C10.5164 9.52356 11.1405 9.26508 11.6006 8.80499C12.0607 8.3449 12.3191 7.72088 12.3191 7.07021V5.96266H21.7319V7.07021C21.7319 7.72088 21.9904 8.3449 22.4505 8.80499C22.9106 9.26508 23.5346 9.52356 24.1853 9.52356C24.836 9.52356 25.46 9.26508 25.9201 8.80499C26.3802 8.3449 26.6386 7.72088 26.6386 7.07021V5.96266H30.896C31.3925 5.96266 31.8687 6.1599 32.2198 6.51099C32.5709 6.86207 32.7681 7.33824 32.7681 7.83475L32.7786 11.1076Z" fill="#FF9000"/>
<path d="M7.80785 28.5553H4.99317C4.22387 28.5553 3.60023 29.1789 3.60023 29.9482V32.831C3.60023 33.6003 4.22387 34.2239 4.99317 34.2239H7.80785C8.57714 34.2239 9.20078 33.6003 9.20078 32.831V29.9482C9.20078 29.1789 8.57714 28.5553 7.80785 28.5553Z" fill="#F4EDE8"/>
<path d="M14.8458 28.5553H12.0311C11.2618 28.5553 10.6381 29.1789 10.6381 29.9482V32.831C10.6381 33.6003 11.2618 34.2239 12.0311 34.2239H14.8458C15.6151 34.2239 16.2387 33.6003 16.2387 32.831V29.9482C16.2387 29.1789 15.6151 28.5553 14.8458 28.5553Z" fill="#F4EDE8"/>
<path d="M21.8865 28.5553H19.0718C18.3025 28.5553 17.6789 29.1789 17.6789 29.9482V32.831C17.6789 33.6003 18.3025 34.2239 19.0718 34.2239H21.8865C22.6558 34.2239 23.2794 33.6003 23.2794 32.831V29.9482C23.2794 29.1789 22.6558 28.5553 21.8865 28.5553Z" fill="#F4EDE8"/>
<path d="M28.9244 28.5553H26.1097C25.3404 28.5553 24.7168 29.1789 24.7168 29.9482V32.831C24.7168 33.6003 25.3404 34.2239 26.1097 34.2239H28.9244C29.6937 34.2239 30.3173 33.6003 30.3173 32.831V29.9482C30.3173 29.1789 29.6937 28.5553 28.9244 28.5553Z" fill="#F4EDE8"/>
<path d="M7.80785 21.4883H4.99317C4.22387 21.4883 3.60023 22.112 3.60023 22.8813V25.764C3.60023 26.5333 4.22387 27.157 4.99317 27.157H7.80785C8.57714 27.157 9.20078 26.5333 9.20078 25.764V22.8813C9.20078 22.112 8.57714 21.4883 7.80785 21.4883Z" fill="#F4EDE8"/>
<path d="M14.8458 21.4883H12.0311C11.2618 21.4883 10.6381 22.112 10.6381 22.8813V25.764C10.6381 26.5333 11.2618 27.157 12.0311 27.157H14.8458C15.6151 27.157 16.2387 26.5333 16.2387 25.764V22.8813C16.2387 22.112 15.6151 21.4883 14.8458 21.4883Z" fill="#F4EDE8"/>
<path d="M21.8865 21.4883H19.0718C18.3025 21.4883 17.6789 22.112 17.6789 22.8813V25.764C17.6789 26.5333 18.3025 27.157 19.0718 27.157H21.8865C22.6558 27.157 23.2794 26.5333 23.2794 25.764V22.8813C23.2794 22.112 22.6558 21.4883 21.8865 21.4883Z" fill="#F4EDE8"/>
<path d="M29.4638 22.1272C29.52 22.1272 29.5739 22.1496 29.6137 22.1893C29.6535 22.2291 29.6758 22.283 29.6758 22.3393V26.3034C29.6758 26.3597 29.6535 26.4136 29.6137 26.4534C29.5739 26.4931 29.52 26.5155 29.4638 26.5155H25.5703C25.5141 26.5155 25.4601 26.4931 25.4204 26.4534C25.3806 26.4136 25.3583 26.3597 25.3583 26.3034V22.3393C25.3583 22.283 25.3806 22.2291 25.4204 22.1893C25.4601 22.1496 25.5141 22.1272 25.5703 22.1272H29.4638V22.1272ZM29.4638 21.4883H25.5703C25.4584 21.488 25.3474 21.5098 25.2439 21.5524C25.1403 21.595 25.0462 21.6576 24.9669 21.7367C24.8876 21.8157 24.8247 21.9096 24.7818 22.013C24.7389 22.1165 24.7168 22.2273 24.7168 22.3393V26.3034C24.7168 26.4155 24.7388 26.5265 24.7817 26.6301C24.8246 26.7336 24.8875 26.8277 24.9668 26.907C25.046 26.9862 25.1401 27.0491 25.2437 27.092C25.3473 27.1349 25.4582 27.157 25.5703 27.157H29.4638C29.5759 27.157 29.6868 27.1349 29.7904 27.092C29.894 27.0491 29.9881 26.9862 30.0673 26.907C30.1466 26.8277 30.2095 26.7336 30.2524 26.6301C30.2952 26.5265 30.3173 26.4155 30.3173 26.3034V22.3393C30.3173 22.2273 30.2952 22.1165 30.2523 22.013C30.2094 21.9096 30.1465 21.8157 30.0672 21.7367C29.9879 21.6576 29.8938 21.595 29.7902 21.5524C29.6867 21.5098 29.5757 21.488 29.4638 21.4883V21.4883Z" fill="#FF9000"/>
<path d="M14.8458 14.4189H12.0311C11.2618 14.4189 10.6381 15.0426 10.6381 15.8119V18.6946C10.6381 19.4639 11.2618 20.0876 12.0311 20.0876H14.8458C15.6151 20.0876 16.2387 19.4639 16.2387 18.6946V15.8119C16.2387 15.0426 15.6151 14.4189 14.8458 14.4189Z" fill="#F4EDE8"/>
<path d="M21.8865 14.4189H19.0718C18.3025 14.4189 17.6789 15.0426 17.6789 15.8119V18.6946C17.6789 19.4639 18.3025 20.0876 19.0718 20.0876H21.8865C22.6558 20.0876 23.2794 19.4639 23.2794 18.6946V15.8119C23.2794 15.0426 22.6558 14.4189 21.8865 14.4189Z" fill="#F4EDE8"/>
<path d="M28.9244 14.4189H26.1097C25.3404 14.4189 24.7168 15.0426 24.7168 15.8119V18.6946C24.7168 19.4639 25.3404 20.0876 26.1097 20.0876H28.9244C29.6937 20.0876 30.3173 19.4639 30.3173 18.6946V15.8119C30.3173 15.0426 29.6937 14.4189 28.9244 14.4189Z" fill="#F4EDE8"/>
</svg>
