<svg width="28" height="60" viewBox="0 0 28 60" fill="none" xmlns="http://www.w3.org/2000/svg">
<path d="M14.067 53.804C14.7413 53.804 15.288 53.2573 15.288 52.583C15.288 51.9087 14.7413 51.362 14.067 51.362C13.3927 51.362 12.846 51.9087 12.846 52.583C12.846 53.2573 13.3927 53.804 14.067 53.804Z" fill="#F4EDE8"/>
<path d="M15.051 37.96C15.0463 37.6909 14.9361 37.4345 14.7443 37.2458C14.5524 37.0571 14.2941 36.9512 14.025 36.951H14.006C13.8711 36.9533 13.738 36.9822 13.6143 37.036C13.4906 37.0898 13.3787 37.1675 13.285 37.2645C13.1913 37.3615 13.1177 37.4761 13.0682 37.6016C13.0188 37.7271 12.9946 37.8611 12.997 37.996L13.081 42.743C13.0857 43.0121 13.1958 43.2685 13.3877 43.4572C13.5796 43.6459 13.8379 43.7518 14.107 43.752H14.126C14.2609 43.7497 14.394 43.7208 14.5177 43.667C14.6414 43.6132 14.7533 43.5355 14.847 43.4385C14.9407 43.3415 15.0143 43.2269 15.0637 43.1014C15.1132 42.9759 15.1374 42.8419 15.135 42.707L15.051 37.96Z" fill="#F4EDE8"/>
<path d="M26.733 4.3878e-06C26.4606 4.3878e-06 26.1994 0.108206 26.0068 0.300806C25.8142 0.493406 25.706 0.754627 25.706 1.027V4.907H24.122V1.027C24.122 0.754627 24.0138 0.493406 23.8212 0.300806C23.6286 0.108206 23.3674 4.3878e-06 23.095 4.3878e-06C22.8226 4.3878e-06 22.5614 0.108206 22.3688 0.300806C22.1762 0.493406 22.068 0.754627 22.068 1.027V4.907H20.483V1.027C20.483 0.754627 20.3748 0.493406 20.1822 0.300806C19.9896 0.108206 19.7284 4.3878e-06 19.456 4.3878e-06C19.1836 4.3878e-06 18.9224 0.108206 18.7298 0.300806C18.5372 0.493406 18.429 0.754627 18.429 1.027V4.907H16.845V1.027C16.845 0.754627 16.7368 0.493406 16.5442 0.300806C16.3516 0.108206 16.0904 4.3878e-06 15.818 4.3878e-06C15.5456 4.3878e-06 15.2844 0.108206 15.0918 0.300806C14.8992 0.493406 14.791 0.754627 14.791 1.027V4.907H13.206V1.027C13.206 0.754627 13.0978 0.493406 12.9052 0.300806C12.7126 0.108206 12.4514 4.3878e-06 12.179 4.3878e-06C11.9066 4.3878e-06 11.6454 0.108206 11.4528 0.300806C11.2602 0.493406 11.152 0.754627 11.152 1.027V4.907H9.56801V1.027C9.56801 0.754627 9.4598 0.493406 9.2672 0.300806C9.0746 0.108206 8.81338 4.3878e-06 8.541 4.3878e-06C8.26862 4.3878e-06 8.0074 0.108206 7.8148 0.300806C7.6222 0.493406 7.51401 0.754627 7.51401 1.027V4.907H5.93001V1.027C5.93001 0.754627 5.8218 0.493406 5.6292 0.300806C5.4366 0.108206 5.17538 4.3878e-06 4.903 4.3878e-06C4.63062 4.3878e-06 4.3694 0.108206 4.1768 0.300806C3.9842 0.493406 3.87601 0.754627 3.87601 1.027V4.907H2.29201V1.027C2.29201 0.754627 2.1838 0.493406 1.9912 0.300806C1.7986 0.108206 1.53738 4.3878e-06 1.265 4.3878e-06C0.992622 4.3878e-06 0.731403 0.108206 0.538803 0.300806C0.346203 0.493406 0.238007 0.754627 0.238007 1.027V17.1C0.240188 18.5345 0.748492 19.9222 1.67339 21.0186C2.59828 22.1151 3.88043 22.8501 5.29401 23.094V51.231C5.29401 53.5567 6.21787 55.7871 7.86238 57.4316C9.50689 59.0761 11.7373 60 14.063 60C16.3887 60 18.6191 59.0761 20.2636 57.4316C21.9081 55.7871 22.832 53.5567 22.832 51.231V23.067C24.2187 22.7976 25.4687 22.0546 26.368 20.9651C27.2673 19.8757 27.7601 18.5077 27.762 17.095V1.027C27.7621 0.891931 27.7356 0.758161 27.6839 0.63337C27.6322 0.508578 27.5564 0.395221 27.4608 0.299803C27.3652 0.204385 27.2517 0.128783 27.1268 0.0773363C27.0019 0.0258893 26.8681 -0.000390628 26.733 4.3878e-06ZM25.706 17.1C25.7036 18.1677 25.2779 19.1909 24.5223 19.9452C23.7666 20.6996 22.7427 21.1235 21.675 21.124H10.986C10.7136 21.124 10.4524 21.2322 10.2598 21.4248C10.0672 21.6174 9.959 21.8786 9.959 22.151C9.959 22.4234 10.0672 22.6846 10.2598 22.8772C10.4524 23.0698 10.7136 23.178 10.986 23.178H20.775V51.231C20.775 53.0119 20.0675 54.7199 18.8082 55.9792C17.5489 57.2385 15.8409 57.946 14.06 57.946C12.2791 57.946 10.5711 57.2385 9.31178 55.9792C8.05248 54.7199 7.345 53.0119 7.345 51.231V22.151C7.345 21.8786 7.2368 21.6174 7.0442 21.4248C6.8516 21.2322 6.59039 21.124 6.31801 21.124C5.24978 21.1229 4.2256 20.6981 3.47025 19.9428C2.71489 19.1874 2.29006 18.1632 2.289 17.095V6.961H25.705L25.706 17.1Z" fill="#F4EDE8"/>
<path d="M19.58 9.354H8.07401C7.44675 9.3548 6.84541 9.60433 6.40187 10.0479C5.95833 10.4914 5.7088 11.0928 5.70801 11.72V15.187C5.7088 15.8143 5.95833 16.4156 6.40187 16.8591C6.84541 17.3027 7.44675 17.5522 8.07401 17.553H19.58C20.2073 17.5522 20.8086 17.3027 21.2521 16.8591C21.6957 16.4156 21.9452 15.8143 21.946 15.187V11.72C21.9452 11.0928 21.6957 10.4914 21.2521 10.0479C20.8086 9.60433 20.2073 9.3548 19.58 9.354ZM19.892 15.187C19.892 15.2698 19.8591 15.3491 19.8006 15.4076C19.7421 15.4661 19.6627 15.499 19.58 15.499H8.07401C7.99126 15.499 7.91189 15.4661 7.85338 15.4076C7.79487 15.3491 7.76201 15.2698 7.76201 15.187V11.72C7.76201 11.6373 7.79487 11.5579 7.85338 11.4994C7.91189 11.4409 7.99126 11.408 8.07401 11.408H19.58C19.6627 11.408 19.7421 11.4409 19.8006 11.4994C19.8591 11.5579 19.892 11.6373 19.892 11.72V15.187Z" fill="#F4EDE8"/>
<path d="M14.067 29.739C12.9779 29.7403 11.9338 30.1736 11.1637 30.9437C10.3936 31.7138 9.96032 32.7579 9.959 33.847V43.022C9.959 44.1115 10.3918 45.1564 11.1622 45.9268C11.9326 46.6972 12.9775 47.13 14.067 47.13C15.1565 47.13 16.2014 46.6972 16.9718 45.9268C17.7422 45.1564 18.175 44.1115 18.175 43.022V33.847C18.1737 32.7579 17.7404 31.7138 16.9703 30.9437C16.2002 30.1736 15.1561 29.7403 14.067 29.739ZM16.121 43.022C16.121 43.5668 15.9046 44.0892 15.5194 44.4744C15.1342 44.8596 14.6118 45.076 14.067 45.076C13.5222 45.076 12.9998 44.8596 12.6146 44.4744C12.2294 44.0892 12.013 43.5668 12.013 43.022V33.847C12.013 33.3023 12.2294 32.7798 12.6146 32.3946C12.9998 32.0094 13.5222 31.793 14.067 31.793C14.6118 31.793 15.1342 32.0094 15.5194 32.3946C15.9046 32.7798 16.121 33.3023 16.121 33.847V43.022Z" fill="#F4EDE8"/>
</svg>
