<svg width="60" height="60" viewBox="0 0 60 60" fill="none" xmlns="http://www.w3.org/2000/svg">
<path d="M20 45H18V47H20V45Z" fill="#F4EDE8"/>
<path d="M57 54H55V26.9C56.1279 26.6665 57.1411 26.0521 57.8695 25.1598C58.5979 24.2675 58.9971 23.1518 59 22C59.002 21.9465 58.9986 21.8929 58.99 21.84L57.26 11.51C57.1484 10.8086 56.7898 10.1701 56.2488 9.70988C55.7079 9.24962 55.0202 8.99785 54.31 9H47V3C46.9976 2.20508 46.6808 1.4434 46.1187 0.881302C45.5566 0.319207 44.7949 0.00237409 44 0H16C15.2051 0.00237409 14.4434 0.319207 13.8813 0.881302C13.3192 1.4434 13.0024 2.20508 13 3V9H5.69C4.97975 8.99785 4.29213 9.24962 3.75119 9.70988C3.21025 10.1701 2.85161 10.8086 2.74 11.51L1.01 21.84C1.00137 21.8929 0.998021 21.9465 1 22C1.00295 23.1518 1.40213 24.2675 2.13051 25.1598C2.85889 26.0521 3.8721 26.6665 5 26.9V54H3C2.20435 54 1.44129 54.3161 0.87868 54.8787C0.316071 55.4413 0 56.2043 0 57C0 57.7957 0.316071 58.5587 0.87868 59.1213C1.44129 59.6839 2.20435 60 3 60H57C57.7957 60 58.5587 59.6839 59.1213 59.1213C59.6839 58.5587 60 57.7957 60 57C60 56.2043 59.6839 55.4413 59.1213 54.8787C58.5587 54.3161 57.7957 54 57 54ZM51 11H54.31C54.5469 10.9995 54.7761 11.0839 54.9559 11.2381C55.1358 11.3922 55.2543 11.6058 55.29 11.84L57 22.08C56.9894 22.8756 56.6631 23.6345 56.093 24.1896C55.5229 24.7447 54.7556 25.0506 53.96 25.04C53.1643 25.0294 52.4055 24.7031 51.8504 24.133C51.2953 23.5629 50.9894 22.7956 51 22V11ZM47 19V11H49V22C49 22.7956 48.6839 23.5587 48.1213 24.1213C47.5587 24.6839 46.7957 25 46 25C45.2043 25 44.4413 24.6839 43.8787 24.1213C43.3161 23.5587 43 22.7956 43 22H44C44.7949 21.9976 45.5566 21.6808 46.1187 21.1187C46.6808 20.5566 46.9976 19.7949 47 19ZM15 3C15 2.73478 15.1054 2.48043 15.2929 2.29289C15.4804 2.10536 15.7348 2 16 2H44C44.2652 2 44.5196 2.10536 44.7071 2.29289C44.8946 2.48043 45 2.73478 45 3V19C45 19.2652 44.8946 19.5196 44.7071 19.7071C44.5196 19.8946 44.2652 20 44 20H16C15.7348 20 15.4804 19.8946 15.2929 19.7071C15.1054 19.5196 15 19.2652 15 19V3ZM41 22C41 22.7956 40.6839 23.5587 40.1213 24.1213C39.5587 24.6839 38.7957 25 38 25C37.2043 25 36.4413 24.6839 35.8787 24.1213C35.3161 23.5587 35 22.7956 35 22H41ZM33 22C33 22.7956 32.6839 23.5587 32.1213 24.1213C31.5587 24.6839 30.7956 25 30 25C29.2044 25 28.4413 24.6839 27.8787 24.1213C27.3161 23.5587 27 22.7956 27 22H33ZM25 22C25 22.7956 24.6839 23.5587 24.1213 24.1213C23.5587 24.6839 22.7956 25 22 25C21.2044 25 20.4413 24.6839 19.8787 24.1213C19.3161 23.5587 19 22.7956 19 22H25ZM11 11H13V19C13.0024 19.7949 13.3192 20.5566 13.8813 21.1187C14.4434 21.6808 15.2051 21.9976 16 22H17C17 22.7956 16.6839 23.5587 16.1213 24.1213C15.5587 24.6839 14.7956 25 14 25C13.2044 25 12.4413 24.6839 11.8787 24.1213C11.3161 23.5587 11 22.7956 11 22V11ZM10 25C10.4657 25.621 11.0697 26.125 11.7639 26.4721C12.4582 26.8193 13.2238 27 14 27C14.7762 27 15.5418 26.8193 16.2361 26.4721C16.9303 26.125 17.5343 25.621 18 25C18.4657 25.621 19.0697 26.125 19.7639 26.4721C20.4582 26.8193 21.2238 27 22 27C22.7762 27 23.5418 26.8193 24.2361 26.4721C24.9303 26.125 25.5343 25.621 26 25C26.4657 25.621 27.0697 26.125 27.7639 26.4721C28.4582 26.8193 29.2238 27 30 27C30.7762 27 31.5418 26.8193 32.2361 26.4721C32.9303 26.125 33.5343 25.621 34 25C34.4657 25.621 35.0697 26.125 35.7639 26.4721C36.4582 26.8193 37.2238 27 38 27C38.7762 27 39.5418 26.8193 40.2361 26.4721C40.9303 26.125 41.5343 25.621 42 25C42.4657 25.621 43.0697 26.125 43.7639 26.4721C44.4582 26.8193 45.2238 27 46 27C46.7762 27 47.5418 26.8193 48.2361 26.4721C48.9303 26.125 49.5343 25.621 50 25C50.7352 25.9757 51.8025 26.6482 53 26.89V54H23V41C23 39.1435 22.2625 37.363 20.9497 36.0503C19.637 34.7375 17.8565 34 16 34C14.1435 34 12.363 34.7375 11.0503 36.0503C9.7375 37.363 9 39.1435 9 41V54H7V26.89C8.19751 26.6482 9.26484 25.9757 10 25ZM21 41V54H11V41C11 39.6739 11.5268 38.4021 12.4645 37.4645C13.4021 36.5268 14.6739 36 16 36C17.3261 36 18.5979 36.5268 19.5355 37.4645C20.4732 38.4021 21 39.6739 21 41ZM3 22.08L4.71 11.84C4.74569 11.6058 4.86423 11.3922 5.04408 11.2381C5.22393 11.0839 5.45313 10.9995 5.69 11H9V22C9.01061 22.7956 8.70471 23.5629 8.1496 24.133C7.5945 24.7031 6.83565 25.0294 6.04 25.04C5.24435 25.0506 4.47707 24.7447 3.90696 24.1896C3.33685 23.6345 3.01061 22.8756 3 22.08ZM57 58H3C2.73478 58 2.48043 57.8946 2.29289 57.7071C2.10536 57.5196 2 57.2652 2 57C2 56.7348 2.10536 56.4804 2.29289 56.2929C2.48043 56.1054 2.73478 56 3 56H57C57.2652 56 57.5196 56.1054 57.7071 56.2929C57.8946 56.4804 58 56.7348 58 57C58 57.2652 57.8946 57.5196 57.7071 57.7071C57.5196 57.8946 57.2652 58 57 58Z" fill="#F4EDE8"/>
<path d="M36 8H33V5C33 4.73478 32.8946 4.48043 32.7071 4.29289C32.5196 4.10536 32.2652 4 32 4H28C27.7348 4 27.4804 4.10536 27.2929 4.29289C27.1054 4.48043 27 4.73478 27 5V8H24C23.7348 8 23.4804 8.10536 23.2929 8.29289C23.1054 8.48043 23 8.73478 23 9V13C23 13.2652 23.1054 13.5196 23.2929 13.7071C23.4804 13.8946 23.7348 14 24 14H27V17C27 17.2652 27.1054 17.5196 27.2929 17.7071C27.4804 17.8946 27.7348 18 28 18H32C32.2652 18 32.5196 17.8946 32.7071 17.7071C32.8946 17.5196 33 17.2652 33 17V14H36C36.2652 14 36.5196 13.8946 36.7071 13.7071C36.8946 13.5196 37 13.2652 37 13V9C37 8.73478 36.8946 8.48043 36.7071 8.29289C36.5196 8.10536 36.2652 8 36 8ZM35 12H32C31.7348 12 31.4804 12.1054 31.2929 12.2929C31.1054 12.4804 31 12.7348 31 13V16H29V13C29 12.7348 28.8946 12.4804 28.7071 12.2929C28.5196 12.1054 28.2652 12 28 12H25V10H28C28.2652 10 28.5196 9.89464 28.7071 9.70711C28.8946 9.51957 29 9.26522 29 9V6H31V9C31 9.26522 31.1054 9.51957 31.2929 9.70711C31.4804 9.89464 31.7348 10 32 10H35V12Z" fill="#F4EDE8"/>
<path d="M48 30H28C27.2051 30.0024 26.4434 30.3192 25.8813 30.8813C25.3192 31.4434 25.0024 32.2051 25 33V49C25.0024 49.7949 25.3192 50.5566 25.8813 51.1187C26.4434 51.6808 27.2051 51.9976 28 52H48C48.7949 51.9976 49.5566 51.6808 50.1187 51.1187C50.6808 50.5566 50.9976 49.7949 51 49V33C50.9976 32.2051 50.6808 31.4434 50.1187 30.8813C49.5566 30.3192 48.7949 30.0024 48 30ZM49 49C49 49.2652 48.8946 49.5196 48.7071 49.7071C48.5196 49.8946 48.2652 50 48 50H28C27.7348 50 27.4804 49.8946 27.2929 49.7071C27.1054 49.5196 27 49.2652 27 49V33C27 32.7348 27.1054 32.4804 27.2929 32.2929C27.4804 32.1054 27.7348 32 28 32H48C48.2652 32 48.5196 32.1054 48.7071 32.2929C48.8946 32.4804 49 32.7348 49 33V49Z" fill="#F4EDE8"/>
<path d="M44 38H41V35C41 34.7348 40.8946 34.4804 40.7071 34.2929C40.5196 34.1054 40.2652 34 40 34H36C35.7348 34 35.4804 34.1054 35.2929 34.2929C35.1054 34.4804 35 34.7348 35 35V38H32C31.7348 38 31.4804 38.1054 31.2929 38.2929C31.1054 38.4804 31 38.7348 31 39V43C31 43.2652 31.1054 43.5196 31.2929 43.7071C31.4804 43.8946 31.7348 44 32 44H35V47C35 47.2652 35.1054 47.5196 35.2929 47.7071C35.4804 47.8946 35.7348 48 36 48H40C40.2652 48 40.5196 47.8946 40.7071 47.7071C40.8946 47.5196 41 47.2652 41 47V44H44C44.2652 44 44.5196 43.8946 44.7071 43.7071C44.8946 43.5196 45 43.2652 45 43V39C45 38.7348 44.8946 38.4804 44.7071 38.2929C44.5196 38.1054 44.2652 38 44 38ZM43 42H40C39.7348 42 39.4804 42.1054 39.2929 42.2929C39.1054 42.4804 39 42.7348 39 43V46H37V43C37 42.7348 36.8946 42.4804 36.7071 42.2929C36.5196 42.1054 36.2652 42 36 42H33V40H36C36.2652 40 36.5196 39.8946 36.7071 39.7071C36.8946 39.5196 37 39.2652 37 39V36H39V39C39 39.2652 39.1054 39.5196 39.2929 39.7071C39.4804 39.8946 39.7348 40 40 40H43V42Z" fill="#F4EDE8"/>
</svg>
