<svg width="76" height="60" viewBox="0 0 76 60" fill="none" xmlns="http://www.w3.org/2000/svg">
<path d="M70.7432 3.98417H67.6761V1.08405C67.6761 0.796542 67.5619 0.520808 67.3586 0.31751C67.1553 0.114213 66.8795 0 66.592 0H60.0588C59.7712 0 59.4955 0.114213 59.2922 0.31751C59.0889 0.520808 58.9747 0.796542 58.9747 1.08405V3.98417H23.1732V1.08405C23.1732 0.94169 23.1452 0.800724 23.0907 0.669202C23.0362 0.53768 22.9564 0.418173 22.8557 0.31751C22.755 0.216848 22.6355 0.136998 22.504 0.0825192C22.3725 0.0280408 22.2315 0 22.0892 0H15.5549C15.2674 0 14.9917 0.114213 14.7884 0.31751C14.5851 0.520808 14.4709 0.796542 14.4709 1.08405V3.98417H11.9387C10.6657 3.98417 9.4447 4.4899 8.54449 5.39011C7.64428 6.29033 7.13855 7.51127 7.13855 8.78437V35.1515C7.14711 35.4331 7.26502 35.7004 7.46729 35.8966C7.66956 36.0928 7.94029 36.2026 8.22209 36.2026C8.5039 36.2026 8.77463 36.0928 8.9769 35.8966C9.17917 35.7004 9.29708 35.4331 9.30564 35.1515V8.78237C9.30643 8.0848 9.58389 7.41603 10.0771 6.92277C10.5704 6.42951 11.2392 6.15205 11.9367 6.15126H70.7392C71.015 6.15126 71.2881 6.20558 71.5429 6.31112C71.7977 6.41666 72.0292 6.57135 72.2242 6.76636C72.4192 6.96137 72.5739 7.19288 72.6794 7.44767C72.785 7.70247 72.8393 7.97556 72.8393 8.25135V44.0858C72.8393 44.6428 72.618 45.177 72.2242 45.5708C71.8303 45.9647 71.2962 46.1859 70.7392 46.1859H68.4301V42.0858C68.4301 41.7982 68.3159 41.5225 68.1126 41.3192C67.9093 41.1159 67.6336 41.0017 67.3461 41.0017H55.7056C55.4194 41.0025 55.1452 41.1164 54.9427 41.3185C54.7402 41.5206 54.6258 41.7946 54.6245 42.0807V46.1809H37.2528L41.353 45.0599C43.4668 44.4872 45.3487 43.2679 46.7352 41.5727L53.6995 33.0884C53.8392 32.9174 53.9242 32.7083 53.9435 32.4884L54.5575 24.399C54.5823 24.0022 54.4839 23.6075 54.2759 23.2687C54.068 22.9299 53.7605 22.6635 53.3955 22.5059C53.6039 22.3882 53.7674 22.2048 53.8605 21.9844C53.9537 21.7639 53.9712 21.5188 53.9103 21.2873C53.8494 21.0559 53.7135 20.8511 53.524 20.705C53.3344 20.5589 53.1018 20.4798 52.8625 20.4799H48.1143C47.9692 20.4754 47.8247 20.5002 47.6894 20.5527C47.5541 20.6052 47.4307 20.6843 47.3265 20.7853C47.2224 20.8864 47.1395 21.0073 47.083 21.141C47.0264 21.2746 46.9973 21.4183 46.9973 21.5634C46.9973 21.7085 47.0264 21.8522 47.083 21.9858C47.1395 22.1195 47.2224 22.2404 47.3265 22.3415C47.4307 22.4425 47.5541 22.5216 47.6894 22.5741C47.8247 22.6266 47.9692 22.6514 48.1143 22.6469H51.6584C51.5375 22.7233 51.4255 22.8129 51.3244 22.914L47.3472 26.8911C46.6083 27.7134 45.9137 28.5743 45.2661 29.4702C45.095 29.695 45.0185 29.9777 45.0527 30.2582C45.087 30.5386 45.2293 30.7946 45.4495 30.9716C45.6697 31.1486 45.9502 31.2327 46.2315 31.2059C46.5127 31.1791 46.7724 31.0437 46.9552 30.8283L48.2023 29.2782L51.4024 32.4784L45.0611 40.2037C43.9586 41.5512 42.4625 42.5205 40.7819 42.9758L23.6692 47.895C23.4008 47.987 23.1792 48.1807 23.052 48.4343C22.9247 48.6879 22.902 48.9813 22.9887 49.2515C23.0753 49.5217 23.2645 49.7471 23.5155 49.8794C23.7665 50.0117 24.0594 50.0403 24.3313 49.9591L28.0954 48.752V57.8324H26.5894C26.4443 57.828 26.2998 57.8528 26.1645 57.9052C26.0292 57.9577 25.9058 58.0368 25.8016 58.1379C25.6975 58.2389 25.6146 58.3599 25.5581 58.4935C25.5015 58.6272 25.4724 58.7708 25.4724 58.916C25.4724 59.0611 25.5015 59.2047 25.5581 59.3384C25.6146 59.472 25.6975 59.593 25.8016 59.694C25.9058 59.7951 26.0292 59.8742 26.1645 59.9267C26.2998 59.9791 26.4443 60.0039 26.5894 59.9995H33.2136C33.4953 59.9909 33.7626 59.873 33.9588 59.6708C34.155 59.4685 34.2648 59.1978 34.2648 58.916C34.2648 58.6341 34.155 58.3634 33.9588 58.1611C33.7626 57.9589 33.4953 57.841 33.2136 57.8324H30.2625V48.349H70.7432C71.8735 48.3477 72.957 47.8981 73.7562 47.0989C74.5555 46.2997 75.0051 45.2161 75.0064 44.0858V8.24734C75.0051 7.11709 74.5555 6.0335 73.7562 5.23428C72.957 4.43507 71.8735 3.98549 70.7432 3.98417ZM61.1428 2.16409H65.509V3.98317H61.1418L61.1428 2.16409ZM16.6409 2.16409H21.0071V3.98317H16.6379L16.6409 2.16409ZM52.3424 24.957L51.9624 29.9672L49.6473 27.6522L52.3424 24.957ZM56.7896 46.1819V43.1638H66.266V46.1819H56.7896Z" fill="#F4EDE8"/>
<path d="M21.4154 57.8317H7.50084V52.0775C7.5031 48.4086 8.34135 44.7885 9.95195 41.492C10.3892 40.6081 11.064 39.8634 11.9007 39.3415C12.7374 38.8195 13.703 38.5409 14.6891 38.5369H32.9499C36.7723 38.5343 40.4725 37.1894 43.4043 34.7368C43.6164 34.5498 43.747 34.2874 43.7684 34.0056C43.7898 33.7237 43.7002 33.4446 43.5188 33.2278C43.3373 33.0111 43.0784 32.8737 42.7972 32.8451C42.5159 32.8165 42.2346 32.8989 42.0133 33.0747C39.4712 35.2002 36.2635 36.3653 32.9499 36.3668H25.1036C26.3651 35.0591 27.0696 33.3126 27.0687 31.4956V27.5165C28.4537 27.4236 29.7485 26.7961 30.6798 25.7666C31.611 24.7371 32.1058 23.3861 32.0597 21.9986C32.0137 20.6112 31.4303 19.2959 30.4329 18.3305C29.4354 17.365 28.1018 16.8248 26.7136 16.824C25.836 16.7464 24.9521 16.8633 24.1249 17.1663C23.2976 17.4693 22.5473 17.951 21.9274 18.5771C21.6207 18.9089 21.2488 19.1737 20.8349 19.3551C20.421 19.5365 19.9742 19.6305 19.5223 19.6311H16.5442C15.3481 19.6327 14.2014 20.1086 13.3557 20.9545C12.51 21.8004 12.0344 22.9472 12.033 24.1433V32.2657C12.0064 33.1861 12.2799 34.0903 12.8121 34.8418C13.0641 35.18 13.3718 35.4728 13.7221 35.7078C14.0991 35.9608 14.6491 36.0518 14.9512 36.3668C13.518 36.3342 12.105 36.7085 10.8759 37.4462C9.64687 38.1839 8.65206 39.2549 8.00686 40.535C6.25018 44.1293 5.33598 48.0768 5.33375 52.0775V57.8317H2.11062C1.96556 57.8273 1.82109 57.8521 1.68577 57.9046C1.55046 57.957 1.42706 58.0361 1.32289 58.1372C1.21872 58.2382 1.1359 58.3592 1.07935 58.4928C1.02279 58.6265 0.993652 58.7701 0.993652 58.9153C0.993652 59.0604 1.02279 59.2041 1.07935 59.3377C1.1359 59.4714 1.21872 59.5923 1.32289 59.6934C1.42706 59.7944 1.55046 59.8735 1.68577 59.926C1.82109 59.9785 1.96556 60.0032 2.11062 59.9988H21.4114C21.5565 60.0032 21.701 59.9785 21.8363 59.926C21.9716 59.8735 22.095 59.7944 22.1992 59.6934C22.3033 59.5923 22.3861 59.4714 22.4427 59.3377C22.4992 59.2041 22.5284 59.0604 22.5284 58.9153C22.5284 58.7701 22.4992 58.6265 22.4427 58.4928C22.3861 58.3592 22.3033 58.2382 22.1992 58.1372C22.095 58.0361 21.9716 57.957 21.8363 57.9046C21.701 57.8521 21.5565 57.8273 21.4114 57.8317H21.4154ZM19.7274 36.3598C19.1271 36.3224 18.539 36.1735 17.9933 35.9208C18.247 35.7907 18.486 35.6338 18.7063 35.4528C19.1573 35.0742 19.5173 34.599 19.7597 34.0623C20.0021 33.5257 20.1206 32.9413 20.1064 32.3527V27.5295H24.9066V31.4966C24.9055 32.7898 24.3909 34.0296 23.4759 34.9435C22.561 35.8573 21.3205 36.3704 20.0274 36.3698C19.9144 36.3698 19.8174 36.3668 19.7274 36.3598ZM14.2051 32.2687V24.1463C14.2057 23.5247 14.4528 22.9287 14.8922 22.489C15.3317 22.0494 15.9276 21.802 16.5492 21.8012H19.5273C20.2789 21.8003 21.0221 21.644 21.7105 21.3424C22.3988 21.0407 23.0174 20.6001 23.5275 20.0482C23.9452 19.6447 24.4485 19.3405 24.9999 19.1584C25.5514 18.9762 26.1368 18.9208 26.7126 18.9961C27.5574 18.9961 28.3675 19.3317 28.9649 19.929C29.5622 20.5263 29.8978 21.3365 29.8978 22.1812C29.8978 23.026 29.5622 23.8361 28.9649 24.4335C28.3675 25.0308 27.5574 25.3664 26.7126 25.3664H19.0123C18.7248 25.3664 18.4491 25.4806 18.2458 25.6839C18.0425 25.8872 17.9283 26.1629 17.9283 26.4504V32.3577C17.9291 32.6426 17.865 32.924 17.7408 33.1804C17.6166 33.4369 17.4357 33.6617 17.2117 33.8378C16.9877 34.0139 16.7265 34.1367 16.448 34.1968C16.1694 34.2569 15.8809 34.2528 15.6042 34.1847C15.1733 34.0986 14.7901 33.8545 14.5299 33.5004C14.2698 33.1462 14.1514 32.7076 14.1981 32.2707L14.2051 32.2687Z" fill="#F4EDE8"/>
<path d="M38.1231 16.5474H44.0231C44.3106 16.5474 44.5864 16.4332 44.7896 16.2299C44.9929 16.0266 45.1071 15.7509 45.1071 15.4634V11.4774C45.1071 11.1899 44.9929 10.9142 44.7896 10.7109C44.5864 10.5076 44.3106 10.3934 44.0231 10.3934H38.1231C37.8356 10.3934 37.5599 10.5076 37.3566 10.7109C37.1533 10.9142 37.0391 11.1899 37.0391 11.4774V15.4654C37.0397 15.7526 37.1541 16.0278 37.3573 16.2306C37.5606 16.4335 37.836 16.5474 38.1231 16.5474ZM39.2071 12.5594H42.9411V14.3794H39.2031L39.2071 12.5594Z" fill="#F4EDE8"/>
<path d="M37.0391 23.5518C37.0391 23.8393 37.1533 24.115 37.3566 24.3183C37.5599 24.5216 37.8356 24.6358 38.1231 24.6358H44.0231C44.3106 24.6358 44.5864 24.5216 44.7896 24.3183C44.9929 24.115 45.1071 23.8393 45.1071 23.5518V19.5638C45.1071 19.2763 44.9929 19.0006 44.7896 18.7973C44.5864 18.594 44.3106 18.4798 44.0231 18.4798H38.1231C37.8356 18.4798 37.5599 18.594 37.3566 18.7973C37.1533 19.0006 37.0391 19.2763 37.0391 19.5638V23.5518ZM39.2061 20.6518H42.9401V22.4718H39.2031L39.2061 20.6518Z" fill="#F4EDE8"/>
<path d="M48.1145 14.5535H67.3445C67.6262 14.5449 67.8934 14.427 68.0896 14.2247C68.2858 14.0225 68.3956 13.7518 68.3956 13.47C68.3956 13.1882 68.2858 12.9175 68.0896 12.7152C67.8934 12.5129 67.6262 12.395 67.3445 12.3865H48.1145C47.8328 12.395 47.5656 12.5129 47.3694 12.7152C47.1731 12.9175 47.0634 13.1882 47.0634 13.47C47.0634 13.7518 47.1731 14.0225 47.3694 14.2247C47.5656 14.427 47.8328 14.5449 48.1145 14.5535Z" fill="#F4EDE8"/>
</svg>
