<svg width="56" height="60" viewBox="0 0 56 60" fill="none" xmlns="http://www.w3.org/2000/svg">
<path d="M4.109 31.455C6.965 37.055 9.131 42.13 10.871 46.211C14.538 54.81 16.751 60 21 60C25.507 60 26 56.477 26 49C26 39.752 26.906 39 28 39C29.094 39 30 39.752 30 49C30 56.477 30.493 60 35 60C39.249 60 41.462 54.81 45.129 46.211C46.869 42.13 49.035 37.052 51.891 31.455L52.226 30.799C54 27.352 56 23.444 56 19C56 8.346 48.972 0 40 0C36.5415 0.0394341 33.1821 1.16052 30.393 3.206C29.6799 3.66668 28.849 3.91173 28 3.91173C27.151 3.91173 26.3201 3.66668 25.607 3.206C22.8179 1.16052 19.4585 0.0394341 16 0C7.028 0 0 8.346 0 19C0 23.444 2.005 27.352 3.774 30.8L4.109 31.455ZM16 2C19.0207 2.03266 21.9555 3.00964 24.393 4.794C27.3456 6.74193 30.8239 7.73897 34.36 7.651C36.8576 7.63659 39.3364 7.21749 41.7 6.41L41.067 4.51C37.7708 5.68011 34.2223 5.95039 30.787 5.293C31.0758 5.1538 31.3502 4.98631 31.606 4.793C34.0439 3.0088 36.9791 2.03217 40 2C47.851 2 54 9.467 54 19C54 22.961 52.112 26.64 50.447 29.886L50.109 30.545C47.222 36.205 45.042 41.318 43.29 45.426C40.061 53 37.928 58 35 58C32.823 58 32 57.224 32 49C32 40.538 31.444 37 28 37C24.556 37 24 40.538 24 49C24 57.224 23.177 58 21 58C18.072 58 15.939 53 12.71 45.426C10.958 41.318 8.778 36.205 5.891 30.545L5.553 29.886C3.888 26.64 2 22.961 2 19C2 9.467 8.149 2 16 2Z" fill="#F4EDE8"/>
<path d="M17 6V4C12.873 4 4.846 7.12 4 18.929L6 19.071C6.916 6.212 16.592 6 17 6Z" fill="#F4EDE8"/>
<path d="M6 21H4V23H6V21Z" fill="#F4EDE8"/>
<path d="M52 19H50C50 19.047 49.9 23.816 45.186 30.423L46.814 31.585C51.941 24.4 52 19.217 52 19Z" fill="#F4EDE8"/>
</svg>
