<svg width="62" height="60" viewBox="0 0 62 60" fill="none" xmlns="http://www.w3.org/2000/svg">
<path d="M38.083 32.001C36.4923 31.9585 34.9685 31.3525 33.783 30.291L32.372 31.708C33.9076 33.1794 35.9522 34.0008 38.079 34.0008C40.2058 34.0008 42.2504 33.1794 43.786 31.708L42.372 30.294C41.194 31.3601 39.6714 31.9661 38.083 32.001Z" fill="#F4EDE8"/>
<path d="M26.376 30.294C25.197 31.361 23.6728 31.9671 22.083 32.001C20.4952 31.9576 18.9741 31.3528 17.79 30.294L16.376 31.708C17.933 33.146 19.9639 33.962 22.083 34.001C24.2021 33.962 26.233 33.146 27.79 31.708L26.376 30.294Z" fill="#F4EDE8"/>
<path d="M25.399 43.052L24.766 44.952C28.8671 46.3106 33.2969 46.3106 37.398 44.952L36.765 43.052C33.0749 44.274 29.0891 44.274 25.399 43.052Z" fill="#F4EDE8"/>
<path d="M2.75001 33.869C2.74702 33.9136 2.74702 33.9584 2.75001 34.003C2.87262 36.1743 3.54015 38.2797 4.69101 40.125L7.04101 43.884C7.24475 44.2126 7.5129 44.4965 7.82929 44.7188C8.14568 44.941 8.50378 45.0968 8.88201 45.177C9.08411 45.2206 9.29026 45.2428 9.49701 45.243C9.53001 45.243 9.56201 45.237 9.59701 45.236L10.443 46.364C11.0521 47.1717 11.9439 47.7194 12.9397 47.8975C13.9355 48.0755 14.9618 47.8707 15.813 47.324L17.38 46.311C17.9147 46.9917 18.482 47.6493 19.082 48.284V60H21.082V50.239C21.145 50.295 21.202 50.355 21.266 50.411C23.8247 52.7336 27.1604 54.014 30.616 54C33.9035 53.9978 37.0825 52.8235 39.582 50.688C39.756 50.541 39.916 50.381 40.082 50.23V60H42.082V48.293C42.734 47.604 43.362 46.893 43.946 46.15L45.082 47C45.7708 47.5195 46.6102 47.8004 47.473 47.8C47.6654 47.7997 47.8575 47.786 48.048 47.759C48.5683 47.6861 49.069 47.5109 49.5211 47.2433C49.9732 46.9757 50.3678 46.6211 50.682 46.2L51.407 45.234C51.44 45.234 51.472 45.241 51.507 45.241C51.7138 45.2408 51.9199 45.2186 52.122 45.175C52.4997 45.0947 52.8572 44.939 53.1733 44.7172C53.4893 44.4953 53.7572 44.2119 53.961 43.884L56.311 40.124C57.4721 38.2592 58.1404 36.1299 58.253 33.936L58.082 19.13L61.045 8.265C61.1097 8.02816 61.0851 7.77579 60.9757 7.55597C60.8664 7.33615 60.6799 7.16424 60.452 7.073L50.452 3.073C50.2481 2.99151 50.0231 2.97937 49.8117 3.03847C49.6002 3.09757 49.4141 3.22461 49.282 3.4L47.048 6.381C43.538 2.165 38.188 0 31.082 0C24.112 0 18.772 2.085 15.141 6.143L13.994 3.59C13.8909 3.36021 13.7049 3.17778 13.4732 3.07916C13.2415 2.98053 12.9811 2.97298 12.744 3.058L1.58201 7.058C1.34498 7.14301 1.14875 7.31432 1.03252 7.5377C0.916285 7.76109 0.888606 8.0201 0.955013 8.263L3.90601 19.1L2.75001 33.869ZM38.287 49.161C36.5359 50.6504 34.3908 51.6008 32.1112 51.8971C29.8315 52.1935 27.5147 51.8232 25.441 50.831C24.402 50.3248 23.4396 49.6748 22.582 48.9C18.548 45.3861 15.5774 40.8138 14.006 35.7L13.778 34.964C13.515 34.114 13.304 33.432 13.137 32.789C13.426 29.142 14.904 21.84 21.97 18.889C24.324 17.906 27.042 16.734 29.798 15.529C32.152 16.029 46.869 19.681 47.963 33.37C47.775 34.07 47.539 34.826 47.245 35.748C45.5802 40.9716 42.4765 45.6201 38.29 49.16L38.287 49.161ZM50.424 5.213L58.882 8.6L56.116 18.74C56.0919 18.8293 56.0801 18.9215 56.081 19.014L56.252 33.894C56.1494 35.7286 55.5853 37.5075 54.612 39.066L52.262 42.826C52.1992 42.9263 52.117 43.013 52.0201 43.081C51.9232 43.149 51.8137 43.1969 51.6981 43.2219C51.5824 43.2469 51.4629 43.2484 51.3466 43.2265C51.2303 43.2045 51.1196 43.1595 51.021 43.094C50.8419 42.9741 50.7126 42.793 50.6573 42.5846C50.6021 42.3762 50.6247 42.1549 50.721 41.962L52.113 39.178C52.7335 37.938 53.1496 36.6058 53.345 35.233L54.072 30.145L52.093 29.862L51.366 34.951C51.2009 36.111 50.849 37.2365 50.324 38.284L48.932 41.068C48.6585 41.6176 48.567 42.24 48.671 42.845C48.7749 43.45 49.0688 44.0062 49.51 44.433L49.082 45C48.9244 45.2101 48.727 45.3871 48.501 45.521C48.275 45.6548 48.0249 45.7428 47.7649 45.7799C47.5048 45.817 47.2401 45.8026 46.9856 45.7374C46.7312 45.6722 46.4921 45.5576 46.282 45.4L45.128 44.534C46.8608 42.0196 48.2146 39.2641 49.146 36.356C49.189 36.22 49.229 36.095 49.27 35.964C49.4387 35.9227 49.5937 35.8382 49.7197 35.7188C49.8458 35.5993 49.9386 35.4492 49.989 35.283C50.199 34.573 54.889 18.311 48.301 8.039L50.424 5.213ZM46.038 8.276C50.492 14.284 50.096 23.376 49.222 29.176C46.465 19.833 37.356 15.766 32.682 14.26C38.576 11.66 44.113 9.149 46.037 8.275L46.038 8.276ZM15.895 8.312C19.118 4.125 24.228 2 31.082 2C36.994 2 41.555 3.58 44.676 6.7C40.84 8.441 29.002 13.787 21.197 17.047C15.581 19.393 13.067 24.102 11.949 28.118C11.377 22.318 11.54 13.971 15.894 8.318L15.895 8.312ZM3.12601 8.629L12.55 5.253L13.736 7.892C6.70701 18.147 10.929 34.546 11.117 35.256C11.1706 35.4541 11.2843 35.6306 11.4425 35.7614C11.6006 35.8921 11.7954 35.9706 12 35.986L12.094 36.286C13.0187 39.2831 14.3974 42.1207 16.182 44.7L14.72 45.645C14.294 45.9176 13.7809 46.0195 13.2831 45.9306C12.7852 45.8416 12.3392 45.5682 12.034 45.165L11.485 44.433C11.9263 44.0062 12.2201 43.45 12.3241 42.845C12.428 42.24 12.3365 41.6176 12.063 41.068L10.671 38.284C10.1469 37.2362 9.79508 36.1108 9.62901 34.951L8.90601 29.86L6.92701 30.143L7.65401 35.231C7.8482 36.6036 8.26288 37.9357 8.88201 39.176L10.282 41.96C10.3783 42.1529 10.4009 42.3742 10.3457 42.5826C10.2905 42.791 10.1612 42.9721 9.98201 43.092C9.88342 43.1575 9.77271 43.2025 9.65643 43.2245C9.54014 43.2464 9.42063 43.2449 9.30496 43.2199C9.18928 43.1949 9.07978 43.147 8.98292 43.079C8.88607 43.011 8.80381 42.9243 8.74101 42.824L6.38201 39.065C5.42081 37.5247 4.85855 35.7691 4.74601 33.957L5.91401 19.079C5.92304 18.9643 5.91221 18.849 5.88201 18.738L3.12601 8.629Z" fill="#F4EDE8"/>
</svg>
