<svg width="82" height="60" viewBox="0 0 82 60" fill="none" xmlns="http://www.w3.org/2000/svg">
<path d="M81.2805 27.1333L71.9243 17.7771C72.4012 16.3839 72.7217 14.942 72.8801 13.4779C73.215 10.2635 72.5682 7.58906 71.0125 5.67943C71.1631 5.33724 71.2466 4.96932 71.2584 4.59564L73.471 4.03875L73.656 5.13853C73.6708 5.22997 73.7037 5.31755 73.7527 5.39619C73.8017 5.47482 73.8658 5.54294 73.9413 5.5966C74.0169 5.65027 74.1023 5.68841 74.1927 5.7088C74.283 5.7292 74.3766 5.73145 74.4678 5.71542L79.4788 4.86959C79.5704 4.85482 79.6581 4.82202 79.7368 4.77308C79.8155 4.72414 79.8838 4.66004 79.9375 4.58451C79.9913 4.50898 80.0295 4.42351 80.05 4.33308C80.0704 4.24265 80.0727 4.14906 80.0567 4.05774L79.4708 0.588414C79.4561 0.496883 79.4233 0.409196 79.3743 0.33045C79.3254 0.251703 79.2613 0.183464 79.1858 0.129698C79.1102 0.0759322 79.0248 0.0377097 78.9343 0.0172512C78.8439 -0.00320723 78.7503 -0.00549409 78.659 0.0105234L73.648 0.85636C73.5564 0.871125 73.4687 0.90393 73.39 0.952869C73.3112 1.00181 73.243 1.06591 73.1893 1.14144C73.1355 1.21697 73.0973 1.30243 73.0768 1.39286C73.0563 1.48329 73.0541 1.57688 73.0701 1.6682L73.235 2.64701L70.9635 3.2189C70.7142 2.70285 70.3162 2.27318 69.8207 1.98514C69.3696 1.71914 68.855 1.57971 68.3313 1.58155C67.8076 1.58339 67.294 1.72641 66.8447 1.99557C66.3954 2.26473 66.0271 2.65005 65.7784 3.11097C65.5297 3.57189 65.4099 4.09135 65.4316 4.61463L63.8419 5.01455L64.1858 6.38029L65.8235 5.96737C66.1157 6.47804 66.5589 6.88564 67.0922 7.13415C67.6171 8.28292 67.0742 10.5805 66.4374 12.2842L57.0502 2.89697C56.985 2.83046 56.9072 2.77762 56.8214 2.74155C56.7356 2.70548 56.6434 2.6869 56.5503 2.6869C56.4572 2.6869 56.365 2.70548 56.2792 2.74155C56.1933 2.77762 56.1155 2.83046 56.0504 2.89697L34.7165 24.2398L31.944 21.4674C31.8789 21.4009 31.8011 21.348 31.7153 21.312C31.6294 21.2759 31.5373 21.2573 31.4441 21.2573C31.351 21.2573 31.2589 21.2759 31.173 21.312C31.0872 21.348 31.0094 21.4009 30.9442 21.4674L30.1524 22.2592L29.3985 21.5044L31.7561 19.1468C31.8226 19.0817 31.8754 19.0039 31.9115 18.918C31.9476 18.8322 31.9661 18.74 31.9661 18.6469C31.9661 18.5538 31.9476 18.4616 31.9115 18.3758C31.8754 18.2899 31.8226 18.2122 31.7561 18.147L29.4985 15.8894C29.4334 15.8229 29.3556 15.7701 29.2697 15.734C29.1839 15.698 29.0917 15.6794 28.9986 15.6794C28.9055 15.6794 28.8133 15.698 28.7275 15.734C28.6417 15.7701 28.5639 15.8229 28.4987 15.8894L22.7868 21.6013C22.7203 21.6665 22.6675 21.7443 22.6314 21.8301C22.5953 21.916 22.5768 22.0081 22.5768 22.1012C22.5768 22.1944 22.5953 22.2865 22.6314 22.3724C22.6675 22.4582 22.7203 22.536 22.7868 22.6011L25.0444 24.8587C25.1095 24.9252 25.1873 24.978 25.2732 25.0141C25.359 25.0502 25.4512 25.0688 25.5443 25.0688C25.6374 25.0688 25.7296 25.0502 25.8154 25.0141C25.9012 24.978 25.979 24.9252 26.0442 24.8587L28.4077 22.5002L29.1616 23.255L28.3697 24.0469C28.3032 24.112 28.2504 24.1898 28.2143 24.2756C28.1783 24.3615 28.1597 24.4537 28.1597 24.5468C28.1597 24.6399 28.1783 24.7321 28.2143 24.8179C28.2504 24.9037 28.3032 24.9815 28.3697 25.0467L29.6695 26.3464L25.3943 30.6116L24.8794 30.0967C24.8093 30.0262 24.725 29.9715 24.6321 29.9361C24.5391 29.9008 24.4397 29.8857 24.3405 29.8917L21.4081 30.0597C21.2354 30.0691 21.0722 30.1421 20.9502 30.2647L9.06548 42.1504C8.94292 42.2724 8.8699 42.4355 8.86052 42.6083L8.69255 45.5407C8.6868 45.6399 8.70209 45.7392 8.73741 45.8321C8.77273 45.9249 8.82729 46.0093 8.89751 46.0796L9.50539 46.6875L6.15104 50.0418C6.05353 50.1364 5.98492 50.2567 5.95324 50.3888C5.92155 50.5208 5.92808 50.6592 5.97208 50.7877C6.08951 51.1001 6.11609 51.4394 6.04874 51.7663C5.98139 52.0932 5.82286 52.3944 5.5915 52.6349C5.36014 52.8755 5.06539 53.0456 4.74137 53.1257C4.41734 53.2057 4.07727 53.1924 3.7605 53.0872C3.60401 53.0351 3.43413 53.0399 3.28084 53.1008C3.12754 53.1617 3.00069 53.2748 2.92267 53.4202L1.29698 56.4066C1.22385 56.5399 1.19611 56.6933 1.21793 56.8438C1.23976 56.9942 1.30997 57.1334 1.41796 57.2404L1.84188 57.6644L0.719095 58.7901C0.652588 58.8553 0.599752 58.9331 0.563682 59.0189C0.527612 59.1048 0.509033 59.1969 0.509033 59.29C0.509033 59.3831 0.527612 59.4753 0.563682 59.5612C0.599752 59.647 0.652588 59.7248 0.719095 59.7899C0.784258 59.8564 0.862036 59.9093 0.947875 59.9454C1.03371 59.9814 1.12589 60 1.219 60C1.31211 60 1.40428 59.9814 1.49012 59.9454C1.57596 59.9093 1.65374 59.8564 1.7189 59.7899L2.84168 58.6672L3.44957 59.275C3.51473 59.3415 3.59251 59.3944 3.67835 59.4305C3.76419 59.4665 3.85636 59.4851 3.94947 59.4851C4.04258 59.4851 4.13475 59.4665 4.22059 59.4305C4.30643 59.3944 4.38421 59.3415 4.44937 59.275L13.2737 50.4507L13.8735 51.0506C13.9417 51.1194 14.0231 51.1737 14.1128 51.2101C14.2025 51.2465 14.2986 51.2644 14.3954 51.2626H14.4104L17.3429 51.0946C17.5156 51.0852 17.6787 51.0122 17.8008 50.8897L29.6865 39.001C29.809 38.8789 29.8821 38.7158 29.8914 38.5431L30.0594 35.6106C30.0652 35.5114 30.0499 35.4121 30.0145 35.3193C29.9792 35.2264 29.9247 35.142 29.8544 35.0717L29.3395 34.5568L33.6067 30.2867L34.9065 31.5864C34.9716 31.6529 35.0494 31.7057 35.1353 31.7418C35.2211 31.7779 35.3133 31.7965 35.4064 31.7965C35.4995 31.7965 35.5917 31.7779 35.6775 31.7418C35.7633 31.7057 35.8411 31.6529 35.9063 31.5864L38.4858 29.0069C38.5523 28.9417 38.6051 28.864 38.6412 28.7781C38.6773 28.6923 38.6958 28.6001 38.6958 28.507C38.6958 28.4139 38.6773 28.3217 38.6412 28.2359C38.6051 28.15 38.5523 28.0723 38.4858 28.0071L35.7133 25.2346L36.0073 24.9407L59.7407 48.6741C59.8058 48.7406 59.8836 48.7934 59.9694 48.8295C60.0553 48.8656 60.1474 48.8842 60.2406 48.8842C60.3337 48.8842 60.4258 48.8656 60.5117 48.8295C60.5975 48.7934 60.6753 48.7406 60.7405 48.6741L81.2865 28.1281C81.3518 28.0626 81.4036 27.9848 81.4387 27.8992C81.4738 27.8136 81.4916 27.7219 81.491 27.6294C81.4905 27.5369 81.4716 27.4454 81.4354 27.3603C81.3993 27.2751 81.3466 27.198 81.2805 27.1333ZM78.1981 1.51723L78.549 3.59683L74.9277 4.20771L74.5768 2.12811L78.1981 1.51723ZM25.5493 23.364L24.2875 22.1032L29.0076 17.3872L30.2684 18.6479L25.5493 23.364ZM3.94347 57.7763L2.78569 56.6195L3.90648 54.555C4.40909 54.6203 4.92004 54.5643 5.39661 54.3918C5.87318 54.2193 6.30153 53.9352 6.64586 53.5633C6.99018 53.1913 7.24047 52.7424 7.37581 52.254C7.51115 51.7655 7.5276 51.2518 7.4238 50.7557L10.5002 47.6793L12.2679 49.4469L3.94347 57.7763ZM28.5007 38.1941L16.9949 49.6999L14.6454 49.8349L10.1173 45.3087L10.2522 42.9592L21.757 31.4514L24.1056 31.3165L28.6337 35.8446L28.5007 38.1941ZM28.3437 33.561L26.3901 31.6114L30.6613 27.3402L32.6139 29.2928L28.3437 33.561ZM35.4064 30.0897L29.8614 24.5448L31.4451 22.9611L36.9901 28.506L35.4064 30.0897ZM67.2772 3.43786C67.4885 3.2266 67.7577 3.08274 68.0507 3.02446C68.3438 2.96619 68.6475 2.99611 68.9235 3.11046C69.1996 3.22481 69.4355 3.41844 69.6015 3.66687C69.7675 3.9153 69.8561 4.20737 69.8561 4.50615C69.8561 4.80494 69.7675 5.09701 69.6015 5.34544C69.4355 5.59387 69.1996 5.7875 68.9235 5.90185C68.6475 6.0162 68.3438 6.04612 68.0507 5.98785C67.7577 5.92957 67.4885 5.7857 67.2772 5.57444C67.1363 5.43449 67.0245 5.26806 66.9482 5.08472C66.8719 4.90137 66.8326 4.70474 66.8326 4.50615C66.8326 4.30756 66.8719 4.11094 66.9482 3.92759C67.0245 3.74425 67.1363 3.57781 67.2772 3.43786ZM68.315 11.0274C68.6789 9.858 68.788 8.62419 68.6349 7.40909C69.1742 7.35557 69.6878 7.15229 70.1176 6.8222C72.4172 9.9366 71.4174 14.5967 70.8035 16.6543L67.5201 13.3729C67.8336 12.6085 68.0988 11.8251 68.314 11.0274H68.315ZM72.1393 27.5392L60.1416 39.5369L53.4909 32.8862L65.4885 20.8885L72.1393 27.5392ZM57.2871 38.669L56.5333 39.4229L53.6028 36.4945L54.3567 35.7406L57.2871 38.669ZM58.2869 39.6688L59.6497 41.0316C59.7148 41.0981 59.7926 41.1509 59.8785 41.187C59.9643 41.2231 60.0565 41.2416 60.1496 41.2416C60.2427 41.2416 60.3349 41.2231 60.4207 41.187C60.5065 41.1509 60.5843 41.0981 60.6495 41.0316L73.634 28.0371C73.7005 27.9719 73.7533 27.8941 73.7894 27.8083C73.8254 27.7225 73.844 27.6303 73.844 27.5372C73.844 27.4441 73.8254 27.3519 73.7894 27.2661C73.7533 27.1802 73.7005 27.1024 73.634 27.0373L72.2712 25.6746L73.0251 24.9207L75.2717 27.1673L59.7746 42.6643L57.5281 40.4177L58.2869 39.6688ZM71.2744 24.6817L68.346 21.7533L69.0998 20.9995L72.0283 23.9279L71.2744 24.6817ZM67.3492 20.7565L65.9865 19.3938C65.9213 19.3273 65.8435 19.2744 65.7577 19.2384C65.6718 19.2023 65.5797 19.1837 65.4865 19.1837C65.3934 19.1837 65.3013 19.2023 65.2154 19.2384C65.1296 19.2744 65.0518 19.3273 64.9866 19.3938L52.0032 32.3853C51.9366 32.4504 51.8838 32.5282 51.8477 32.614C51.8117 32.6999 51.7931 32.792 51.7931 32.8852C51.7931 32.9783 51.8117 33.0704 51.8477 33.1563C51.8838 33.2421 51.9366 33.3199 52.0032 33.3851L53.3659 34.7478L52.612 35.5016L47.49 30.3796L48.2439 29.6258L49.6036 30.9855C49.6688 31.052 49.7466 31.1049 49.8324 31.1409C49.9182 31.177 50.0104 31.1956 50.1035 31.1956C50.1966 31.1956 50.2888 31.177 50.3746 31.1409C50.4605 31.1049 50.5383 31.052 50.6034 30.9855L63.5909 17.995C63.6574 17.9299 63.7103 17.8521 63.7463 17.7663C63.7824 17.6804 63.801 17.5882 63.801 17.4951C63.801 17.402 63.7824 17.3098 63.7463 17.224C63.7103 17.1382 63.6574 17.0604 63.5909 16.9952L62.2282 15.6325L62.982 14.8786L68.1 20.0026L67.3492 20.7565ZM62.1012 17.4961L50.1035 29.4938L43.4528 22.8431L55.4505 10.8454L62.1012 17.4961ZM47.2451 28.627L46.4912 29.3808L43.5628 26.4524L44.3166 25.6985L47.2451 28.627ZM61.2324 14.6397L58.3019 11.7153L59.0558 10.9614L61.9842 13.8898L61.2324 14.6397ZM57.3021 10.7155L55.9394 9.35271C55.8742 9.2862 55.7965 9.23337 55.7106 9.1973C55.6248 9.16123 55.5326 9.14265 55.4395 9.14265C55.3464 9.14265 55.2542 9.16123 55.1684 9.1973C55.0825 9.23337 55.0047 9.2862 54.9396 9.35271L41.9571 22.3422C41.8906 22.4074 41.8378 22.4851 41.8017 22.571C41.7656 22.6568 41.747 22.749 41.747 22.8421C41.747 22.9352 41.7656 23.0274 41.8017 23.1132C41.8378 23.1991 41.8906 23.2768 41.9571 23.342L43.3198 24.7047L42.566 25.4586L39.0297 21.9223L54.5267 6.42528L58.063 9.96159L57.3021 10.7155ZM60.2326 47.1814L37.0061 23.9459L38.0329 22.9131L59.2777 44.158C59.3429 44.2245 59.4207 44.2773 59.5065 44.3134C59.5924 44.3494 59.6845 44.368 59.7776 44.368C59.8708 44.368 59.9629 44.3494 60.0488 44.3134C60.1346 44.2773 60.2124 44.2245 60.2775 44.158L76.7654 27.6692C76.8319 27.604 76.8847 27.5262 76.9208 27.4404C76.9568 27.3545 76.9754 27.2624 76.9754 27.1693C76.9754 27.0762 76.9568 26.984 76.9208 26.8981C76.8847 26.8123 76.8319 26.7345 76.7654 26.6694L55.5205 5.42748L56.5523 4.39667L79.7868 27.6312L60.2326 47.1814Z" fill="#F4EDE8"/>
</svg>
