<svg width="124" height="80" viewBox="0 0 124 80" fill="none" xmlns="http://www.w3.org/2000/svg">
<path d="M5.0738 39.9895L71.8019 78.5141C74.0955 79.8391 78.1072 79.673 80.7573 78.1453L120.919 54.9544C123.569 53.4267 123.857 51.1088 121.563 49.7837L54.8352 11.2592C52.5376 9.93409 48.5259 10.1002 45.8757 11.632L5.71405 34.8188C3.06389 36.3465 2.77619 38.6644 5.0738 39.9895Z" fill="#FF9000"/>
<path d="M75.7002 79.9971C74.2425 80.0357 72.7994 79.6979 71.5102 79.0165L4.78213 40.4919C3.59483 39.8071 2.94242 38.8305 2.94242 37.7445C2.94242 36.4761 3.84607 35.224 5.42644 34.3163L45.5881 11.1254C48.4247 9.48019 52.6309 9.31404 55.123 10.7566L121.863 49.2812C123.047 49.966 123.703 50.9426 123.703 52.0286C123.703 53.297 122.795 54.5491 121.219 55.4609L81.0492 78.6396C79.4115 79.5417 77.5699 80.0091 75.7002 79.9971ZM5.3616 39.487L72.0937 78.0115C74.2252 79.2272 77.9816 79.0732 80.4657 77.6428L120.648 54.4559C121.863 53.7549 122.552 52.8715 122.552 52.0246C122.552 51.1776 121.867 50.6144 121.292 50.2821L54.5435 11.7778C52.4121 10.5621 48.6556 10.7161 46.1676 12.1466L6.00591 35.3213C4.79024 36.0182 4.10136 36.9016 4.10136 37.7526C4.10136 38.6036 4.78618 39.1628 5.3616 39.4951V39.487Z" fill="#3E3B47"/>
<path d="M5.0738 37.3918L71.8019 75.9205C74.0955 77.2455 78.1072 77.0794 80.7573 75.5476L120.919 52.3608C123.569 50.829 123.857 48.5152 121.563 47.1901L54.8352 8.66151C52.5376 7.33643 48.5259 7.50258 45.8757 9.03432L5.71405 32.2212C3.06389 33.7529 2.77619 36.0668 5.0738 37.3918Z" fill="#FF9000"/>
<path d="M75.7002 77.424C74.2426 77.4615 72.7998 77.1239 71.5102 76.4434L4.78213 37.8945C3.59483 37.2097 2.94242 36.2331 2.94242 35.1471C2.94242 33.8788 3.84607 32.6307 5.42644 31.7189L45.5881 8.53611C48.4247 6.88685 52.6309 6.72476 55.123 8.16331L121.863 46.6879C123.047 47.3727 123.703 48.3452 123.703 49.4353C123.703 50.7036 122.795 51.9517 121.219 52.8635L81.0573 76.0503C79.4187 76.9594 77.5741 77.4324 75.7002 77.424V77.424ZM5.3616 36.9017L72.0937 75.4303C74.2252 76.646 77.9816 76.492 80.4657 75.0575L120.648 51.8585C121.863 51.1575 122.552 50.2781 122.552 49.4272C122.552 48.5762 121.867 48.017 121.292 47.6847L54.5435 9.16421C52.4121 7.94854 48.6556 8.10252 46.1676 9.53701L6.00591 32.7239C4.79024 33.4209 4.10136 34.3043 4.10136 35.1552C4.10136 36.0062 4.78618 36.5654 5.3616 36.8977V36.9017Z" fill="#3E3B47"/>
<path d="M5.0738 34.8144L71.8019 73.343C74.0955 74.6681 78.1072 74.502 80.7573 72.9702L120.919 49.7834C123.569 48.2516 123.857 45.9378 121.563 44.6127L54.8352 6.10436C52.5376 4.77523 48.5259 4.94137 45.8757 6.47311L5.71405 29.6438C3.06389 31.1755 2.77619 33.4893 5.0738 34.8144Z" fill="#FF9000"/>
<path d="M75.7002 74.8261C74.2426 74.8636 72.7998 74.5259 71.5102 73.8455L4.78213 35.3209C3.59483 34.6361 2.94242 33.6595 2.94242 32.5695C2.94242 31.3052 3.84607 30.053 5.42644 29.1413L45.5881 5.95441C48.4247 4.30515 52.6309 4.14306 55.123 5.58565L121.863 44.1102C123.047 44.795 123.703 45.7716 123.703 46.8576C123.703 48.126 122.795 49.3741 121.219 50.2858L81.0573 73.4727C79.4168 74.3747 77.5723 74.8407 75.7002 74.8261V74.8261ZM5.3616 34.3119L72.0937 72.8405C74.2252 74.0562 77.9816 73.9022 80.4657 72.4677L120.648 49.2809C121.863 48.5839 122.552 47.7005 122.552 46.8495C122.552 45.9986 121.867 45.4393 121.292 45.1071L54.5435 6.59061C52.4121 5.37494 48.6516 5.52487 46.1676 6.95936L6.00591 30.1462C4.79024 30.8473 4.10136 31.7307 4.10136 32.5776C4.10136 33.4245 4.78618 33.9877 5.3616 34.32V34.3119Z" fill="#3E3B47"/>
<path d="M76.0487 79.5068C77.6964 79.4727 79.3116 79.0417 80.7574 78.2506L120.919 55.0638C122.994 53.8684 123.249 51.5748 122.69 50.7846C122.96 50.4076 123.105 49.9556 123.105 49.492C123.105 49.0283 122.96 48.5763 122.69 48.1993C123.5 46.9228 123.14 45.537 121.555 44.6252L107.636 36.5815H76.0487V79.5068Z" fill="#3E3B47"/>
<path d="M5.0738 32.2213L71.8019 70.7459C74.0955 72.071 78.1072 71.9048 80.7573 70.3771L120.919 47.1862C123.569 45.6585 123.857 43.3406 121.563 42.0156L54.8352 3.49099C52.5376 2.16591 48.5259 2.33205 45.8757 3.85975L5.71405 27.0507C3.06389 28.5784 2.77619 30.8962 5.0738 32.2213Z" fill="#FF9000"/>
<path d="M52.7928 7.87532L12.542 31.1108C10.374 32.363 9.78646 34.1378 10.8887 35.467L65.3142 66.888C67.6442 68.0307 71.3925 67.8281 73.9373 66.3652L114.099 43.1784C116.413 41.8411 116.936 39.9082 115.489 38.5588L61.4321 7.35664C59.094 6.2058 55.3295 6.40841 52.7928 7.87532Z" fill="#F4EDE8"/>
<path d="M75.7002 72.2288C74.2425 72.2674 72.7994 71.9296 71.5102 71.2481L4.78213 32.7236C3.59483 32.0388 2.94242 31.0622 2.94242 29.9721C2.94242 28.7078 3.84607 27.4557 5.42644 26.548L45.5881 3.35707C48.4247 1.70781 52.6309 1.54977 55.123 2.98831L121.863 41.5129C123.047 42.1977 123.703 43.1743 123.703 44.2603C123.703 45.5286 122.795 46.7808 121.219 47.6885L81.0573 70.8753C79.4173 71.7787 77.5725 72.2448 75.7002 72.2288V72.2288ZM5.3616 31.7186L72.0937 70.2432C74.2252 71.4589 77.9816 71.3049 80.4657 69.8704L120.648 46.6835C121.863 45.9865 122.552 45.1032 122.552 44.2522C122.552 43.4012 121.867 42.842 121.292 42.5097L54.5435 3.99327C52.4121 2.7776 48.6516 2.92753 46.1676 4.36202L6.00591 27.5529C4.79024 28.2499 4.10136 29.1333 4.10136 29.9843C4.10136 30.8352 4.78618 31.3985 5.3616 31.7308V31.7186Z" fill="#3E3B47"/>
<path d="M108.59 39.4714L67.7758 62.9277L68.3553 63.936L109.169 40.4797L108.59 39.4714Z" fill="#3E3B47"/>
<path d="M69.2441 11.4552L19.5019 40.2202L20.082 41.2235L69.8243 12.4584L69.2441 11.4552Z" fill="#3E3B47"/>
<path d="M59.247 10.9701L18.6317 34.4478L19.2117 35.4511L59.827 11.9735L59.247 10.9701Z" fill="#3E3B47"/>
<path d="M76.8227 74.6278L76.7376 73.7363C78.0698 73.6196 79.363 73.2263 80.5346 72.5815L120.696 49.3946C121.343 49.0501 121.898 48.5571 122.317 47.9561L123.071 48.4342C122.581 49.1609 121.92 49.7564 121.146 50.1686L80.9803 73.3716C79.6982 74.0781 78.2815 74.5062 76.8227 74.6278V74.6278Z" fill="#FF9000"/>
<path d="M76.8227 77.2577L76.7376 76.3662C78.0698 76.2521 79.3632 75.8601 80.5346 75.2154L120.696 52.0285C121.343 51.6827 121.899 51.1883 122.317 50.5859L123.079 51.0844C122.586 51.8091 121.926 52.4041 121.154 52.8187L80.9925 76.0056C79.7064 76.7124 78.2854 77.1391 76.8227 77.2577Z" fill="#FF9000"/>
<path d="M47.3022 8.22782C46.3904 8.75461 46.3904 9.60963 47.3022 10.1364C47.8143 10.3969 48.3808 10.5327 48.9555 10.5327C49.5301 10.5327 50.0966 10.3969 50.6088 10.1364C51.5205 9.60963 51.5205 8.75461 50.6088 8.22782C50.0966 7.96733 49.5301 7.83154 48.9555 7.83154C48.3808 7.83154 47.8143 7.96733 47.3022 8.22782V8.22782Z" fill="#FF9000"/>
<path d="M48.9637 11.1132C48.2854 11.1248 47.6155 10.9615 47.0186 10.6391C46.7416 10.5052 46.5053 10.2998 46.3343 10.0441C46.1634 9.78828 46.0638 9.49146 46.0461 9.18432C46.0631 8.87646 46.1623 8.5788 46.3334 8.32226C46.5044 8.06572 46.741 7.85966 47.0186 7.72551V7.72551C47.6202 7.41591 48.2871 7.25439 48.9637 7.25439C49.6403 7.25439 50.3071 7.41591 50.9088 7.72551C51.1864 7.85966 51.423 8.06572 51.594 8.32226C51.765 8.5788 51.8642 8.87646 51.8813 9.18432C51.8635 9.49146 51.764 9.78828 51.593 10.0441C51.422 10.2998 51.1858 10.5052 50.9088 10.6391C50.3119 10.9615 49.642 11.1248 48.9637 11.1132V11.1132ZM48.9637 8.41034C48.4902 8.40173 48.0221 8.51178 47.6021 8.73047V8.73047C47.359 8.87229 47.1969 9.04654 47.1969 9.18432C47.1969 9.32209 47.3509 9.49229 47.6021 9.63411C48.0253 9.84406 48.4913 9.95331 48.9637 9.95331C49.4361 9.95331 49.9021 9.84406 50.3252 9.63411C50.5684 9.49229 50.7305 9.32209 50.7305 9.18432C50.7305 9.04654 50.5765 8.87229 50.3252 8.73047C49.9052 8.51178 49.4371 8.40173 48.9637 8.41034V8.41034Z" fill="#3E3B47"/>
<path d="M40.5025 12.1585C39.5907 12.6853 39.5907 13.5403 40.5025 14.0671C41.0147 14.3276 41.5812 14.4634 42.1558 14.4634C42.7304 14.4634 43.2969 14.3276 43.8091 14.0671C44.7249 13.5403 44.7249 12.6853 43.8091 12.1585C43.2969 11.898 42.7304 11.7622 42.1558 11.7622C41.5812 11.7622 41.0147 11.898 40.5025 12.1585V12.1585Z" fill="#FF9000"/>
<path d="M42.1559 15.0398C41.4792 15.0528 40.8107 14.8909 40.2149 14.5697C39.9371 14.4354 39.7001 14.2294 39.5284 13.973C39.3567 13.7165 39.2566 13.4189 39.2383 13.1109C39.2569 12.8034 39.3572 12.5065 39.5289 12.2508C39.7005 11.995 39.9374 11.7898 40.2149 11.6561C40.8158 11.3466 41.482 11.1851 42.1579 11.1851C42.8339 11.1851 43.5001 11.3466 44.101 11.6561C44.3785 11.7898 44.6154 11.995 44.787 12.2508C44.9587 12.5065 45.059 12.8034 45.0776 13.1109C45.0597 13.4191 44.9598 13.7168 44.788 13.9733C44.6163 14.2299 44.3791 14.4358 44.101 14.5697C43.5039 14.8912 42.8339 15.0531 42.1559 15.0398V15.0398ZM42.1559 12.341C41.6822 12.3301 41.2136 12.4403 40.7944 12.6611C40.5512 12.7989 40.3892 12.9731 40.3892 13.1109C40.3892 13.2487 40.5431 13.4229 40.7944 13.5647C41.2183 13.7747 41.6849 13.884 42.1579 13.884C42.631 13.884 43.0976 13.7747 43.5215 13.5647C43.7647 13.4229 43.9267 13.2487 43.9267 13.1109C43.9267 12.9731 43.7768 12.7989 43.5215 12.6611C43.101 12.4398 42.631 12.3296 42.1559 12.341V12.341Z" fill="#3E3B47"/>
<path d="M33.6989 16.0892C32.7831 16.6159 32.7831 17.471 33.6989 17.9978C34.2111 18.2582 34.7776 18.394 35.3522 18.394C35.9268 18.394 36.4933 18.2582 37.0055 17.9978C37.9173 17.471 37.9173 16.6159 37.0055 16.0892C36.4933 15.8287 35.9268 15.6929 35.3522 15.6929C34.7776 15.6929 34.2111 15.8287 33.6989 16.0892V16.0892Z" fill="#FF9000"/>
<path d="M35.3522 18.9704C34.6744 18.9818 34.0049 18.82 33.4071 18.5003C33.1299 18.3664 32.8933 18.161 32.7216 17.9054C32.55 17.6497 32.4495 17.3529 32.4306 17.0456C32.4491 16.7381 32.5494 16.4412 32.7211 16.1855C32.8928 15.9297 33.1296 15.7245 33.4071 15.5908V15.5908C34.0075 15.2793 34.6739 15.1167 35.3502 15.1167C36.0265 15.1167 36.6929 15.2793 37.2932 15.5908C37.5708 15.7245 37.8076 15.9297 37.9793 16.1855C38.151 16.4412 38.2513 16.7381 38.2698 17.0456C38.2507 17.3534 38.1502 17.6507 37.9787 17.907C37.8071 18.1633 37.5706 18.3694 37.2932 18.5044C36.6964 18.8223 36.0283 18.9827 35.3522 18.9704V18.9704ZM35.3522 16.2716C34.8772 16.2607 34.4073 16.3709 33.9866 16.5917C33.7435 16.7295 33.5814 16.9038 33.5814 17.0415C33.5814 17.1793 33.7313 17.3536 33.9866 17.4913C34.4102 17.7022 34.877 17.812 35.3502 17.812C35.8234 17.812 36.2902 17.7022 36.7138 17.4913C36.9569 17.3495 37.119 17.1753 37.119 17.0375C37.119 16.8997 36.9691 16.7255 36.7138 16.5877C36.2942 16.3683 35.8256 16.2595 35.3522 16.2716V16.2716Z" fill="#3E3B47"/>
<path d="M26.8912 20.0159C25.9794 20.5427 25.9794 21.3977 26.8912 21.9245C27.4033 22.185 27.9698 22.3208 28.5445 22.3208C29.1191 22.3208 29.6856 22.185 30.1978 21.9245C31.1095 21.3977 31.1095 20.5427 30.1978 20.0159C29.6856 19.7554 29.1191 19.6196 28.5445 19.6196C27.9698 19.6196 27.4033 19.7554 26.8912 20.0159V20.0159Z" fill="#FF9000"/>
<path d="M28.5445 22.9013C27.8667 22.9123 27.1973 22.7505 26.5994 22.4312C26.3114 22.3112 26.0653 22.1086 25.8923 21.849C25.7192 21.5894 25.6269 21.2844 25.6269 20.9724C25.6269 20.6604 25.7192 20.3554 25.8923 20.0958C26.0653 19.8362 26.3114 19.6336 26.5994 19.5136V19.5136C27.201 19.204 27.8678 19.0425 28.5445 19.0425C29.2211 19.0425 29.8879 19.204 30.4895 19.5136C30.7775 19.6336 31.0236 19.8362 31.1966 20.0958C31.3697 20.3554 31.4621 20.6604 31.4621 20.9724C31.4621 21.2844 31.3697 21.5894 31.1966 21.849C31.0236 22.1086 30.7775 22.3112 30.4895 22.4312C29.8916 22.7505 29.2222 22.9123 28.5445 22.9013ZM27.1789 20.5186C26.9398 20.6604 26.7736 20.8346 26.7736 20.9724C26.7736 21.1102 26.9276 21.2844 27.1789 21.4222C27.6022 21.634 28.0691 21.7443 28.5424 21.7443C29.0158 21.7443 29.4827 21.634 29.906 21.4222C30.1491 21.2844 30.3112 21.1102 30.3112 20.9724C30.3112 20.8346 30.1572 20.6604 29.906 20.5186C29.4821 20.3086 29.0155 20.1993 28.5424 20.1993C28.0694 20.1993 27.6027 20.3086 27.1789 20.5186V20.5186Z" fill="#3E3B47"/>
<path d="M20.0834 23.9344C19.1717 24.4612 19.1717 25.3162 20.0834 25.843C20.5956 26.1035 21.1621 26.2392 21.7367 26.2392C22.3113 26.2392 22.8778 26.1035 23.39 25.843C24.3058 25.3162 24.3058 24.4612 23.39 23.9344C22.8778 23.6739 22.3113 23.5381 21.7367 23.5381C21.1621 23.5381 20.5956 23.6739 20.0834 23.9344V23.9344Z" fill="#FF9000"/>
<path d="M21.7367 26.8316C21.0603 26.8457 20.3918 26.6852 19.7956 26.3656C19.5073 26.2464 19.2609 26.0444 19.0874 25.7851C18.914 25.5257 18.8215 25.2208 18.8215 24.9088C18.8215 24.5969 18.914 24.2919 19.0874 24.0326C19.2609 23.7733 19.5073 23.5712 19.7956 23.452C20.3965 23.1425 21.0627 22.981 21.7387 22.981C22.4146 22.981 23.0808 23.1425 23.6817 23.452C23.97 23.5712 24.2165 23.7733 24.3899 24.0326C24.5633 24.2919 24.6559 24.5969 24.6559 24.9088C24.6559 25.2208 24.5633 25.5257 24.3899 25.7851C24.2165 26.0444 23.97 26.2464 23.6817 26.3656C23.0841 26.6852 22.4143 26.8457 21.7367 26.8316V26.8316ZM21.7367 24.1288C21.2632 24.1202 20.7951 24.2302 20.3751 24.4489V24.4489C20.132 24.5907 19.9699 24.765 19.9699 24.9027C19.9699 25.0405 20.1198 25.2107 20.3751 25.3525C20.7987 25.5634 21.2655 25.6732 21.7387 25.6732C22.2119 25.6732 22.6786 25.5634 23.1023 25.3525C23.3454 25.2107 23.5075 25.0405 23.5075 24.9027C23.5075 24.765 23.3575 24.5907 23.1023 24.4489C22.681 24.2295 22.2115 24.1195 21.7367 24.1288V24.1288Z" fill="#3E3B47"/>
<path d="M13.2634 27.8772C12.3516 28.404 12.3516 29.259 13.2634 29.7858C13.7756 30.0463 14.3421 30.1821 14.9167 30.1821C15.4913 30.1821 16.0578 30.0463 16.57 29.7858C17.4817 29.259 17.4817 28.404 16.57 27.8772C16.0578 27.6167 15.4913 27.481 14.9167 27.481C14.3421 27.481 13.7756 27.6167 13.2634 27.8772Z" fill="#FF9000"/>
<path d="M14.933 30.7622C14.2546 30.7743 13.5846 30.611 12.9879 30.2881C12.6996 30.1689 12.4531 29.9669 12.2797 29.7076C12.1063 29.4482 12.0137 29.1433 12.0137 28.8313C12.0137 28.5193 12.1063 28.2144 12.2797 27.9551C12.4531 27.6957 12.6996 27.4937 12.9879 27.3745V27.3745C13.5882 27.063 14.2546 26.9004 14.9309 26.9004C15.6073 26.9004 16.2737 27.063 16.874 27.3745C17.1623 27.4937 17.4087 27.6957 17.5822 27.9551C17.7556 28.2144 17.8481 28.5193 17.8481 28.8313C17.8481 29.1433 17.7556 29.4482 17.5822 29.7076C17.4087 29.9669 17.1623 30.1689 16.874 30.2881C16.2785 30.6105 15.61 30.7738 14.933 30.7622V30.7622ZM14.933 28.0594C14.4593 28.0485 13.9906 28.1587 13.5714 28.3795C13.3283 28.5213 13.1662 28.6915 13.1662 28.8293C13.1662 28.9671 13.3161 29.1413 13.5714 29.2831C13.9953 29.4931 14.4619 29.6024 14.935 29.6024C15.408 29.6024 15.8747 29.4931 16.2986 29.2831C16.5417 29.1413 16.7038 28.9671 16.7038 28.8293C16.7038 28.6915 16.5538 28.5213 16.2986 28.3795C15.8769 28.1575 15.4053 28.0473 14.9289 28.0594H14.933Z" fill="#3E3B47"/>
<path d="M22.4419 25.9158L20.9345 25.7334C20.9345 25.6929 21.3397 21.9122 19.4068 19.4484C18.9034 18.8377 18.281 18.3358 17.5773 17.9736C16.8736 17.6113 16.1036 17.3961 15.314 17.3413C14.3756 17.2085 13.4188 17.3116 12.5302 17.6413C11.6416 17.971 10.8492 18.5169 10.2244 19.2296C9.5127 20.0778 9.01292 21.0831 8.76631 22.1625C8.51971 23.2419 8.53336 24.3645 8.80614 25.4376L7.33112 25.7942C6.99584 24.4828 6.98211 23.1098 7.29112 21.792C7.60012 20.4741 8.22272 19.2503 9.106 18.2246C9.88884 17.33 10.881 16.643 11.994 16.2252C13.1069 15.8073 14.306 15.6714 15.4842 15.8298C17.6724 16.081 19.3946 16.9847 20.6022 18.5124C22.9484 21.5029 22.4662 25.7334 22.4419 25.9158Z" fill="#3E3B47"/>
<path d="M29.2495 22.046L27.7421 21.8637C27.7421 21.8272 28.1473 18.0424 26.2104 15.5787C25.7067 14.9683 25.0842 14.4667 24.3806 14.1045C23.677 13.7422 22.9071 13.5269 22.1176 13.4715C21.1793 13.3406 20.2231 13.4446 19.3348 13.7742C18.4465 14.1038 17.6539 14.6486 17.028 15.3599C16.3147 16.2073 15.8127 17.2119 15.5633 18.2911C15.3139 19.3704 15.3243 20.4934 15.5935 21.5679L14.1145 21.9083C13.7812 20.5967 13.7686 19.2242 14.0775 17.9067C14.3864 16.5892 15.0078 15.3654 15.8893 14.3387C16.6754 13.4416 17.6719 12.7536 18.7893 12.3364C19.9067 11.9191 21.1102 11.7856 22.2919 11.9479C24.4801 12.1951 26.2023 13.0987 27.4098 14.6264C29.7561 17.6129 29.2739 21.8637 29.2495 22.046Z" fill="#3E3B47"/>
<path d="M36.0572 18.0344L34.5498 17.8561C34.5498 17.8155 34.955 14.0348 33.0181 11.567C32.5141 10.9569 31.8915 10.4556 31.1879 10.0934C30.4844 9.73119 29.7146 9.51565 28.9253 9.45984C27.9849 9.33149 27.0273 9.4391 26.1388 9.77299C25.2503 10.1069 24.4589 10.6566 23.8357 11.3725C23.1222 12.2199 22.6199 13.2243 22.3698 14.3035C22.1197 15.3826 22.1291 16.5057 22.3972 17.5805L20.9222 17.9371C20.5879 16.6256 20.5747 15.2529 20.8837 13.9352C21.1926 12.6175 21.8146 11.3937 22.697 10.3675C23.4812 9.4689 24.4766 8.77948 25.5936 8.36141C26.7106 7.94333 27.914 7.80974 29.0955 7.97267C31.2878 8.2239 33.0059 9.1235 34.2135 10.6512C36.5597 13.6012 36.0775 17.8561 36.0572 18.0344Z" fill="#3E3B47"/>
<path d="M42.8811 14.2292L41.3737 14.0509C41.3737 14.0103 41.7789 10.2296 39.8419 7.7618C39.3384 7.15161 38.7158 6.65042 38.0121 6.28883C37.3084 5.92724 36.5385 5.71283 35.7492 5.65869C34.8108 5.52742 33.8545 5.63124 32.9662 5.96084C32.0778 6.29043 31.2852 6.83547 30.6596 7.54703C29.9452 8.39391 29.4423 9.39837 29.1922 10.4777C28.9421 11.557 28.952 12.6803 29.221 13.7551L27.746 14.1116C27.4107 12.8002 27.397 11.4273 27.706 10.1094C28.015 8.79155 28.6376 7.56777 29.5209 6.54208C30.3053 5.64373 31.3007 4.95452 32.4176 4.53647C33.5346 4.11842 34.7379 3.98465 35.9194 4.14721C38.1076 4.39845 39.8298 5.29804 41.0373 6.82979C43.3836 9.79602 42.9014 14.0509 42.8811 14.2292Z" fill="#3E3B47"/>
<path d="M49.6686 10.1568L48.1612 9.97447C48.1612 9.938 48.5664 6.15322 46.6295 3.68946C46.1261 3.0787 45.5036 2.57688 44.8 2.2146C44.0963 1.85232 43.3262 1.63718 42.5367 1.5823C41.5977 1.45237 40.6411 1.55763 39.7527 1.88863C38.8644 2.21963 38.0722 2.76602 37.4471 3.47875C36.7335 4.32599 36.2313 5.33062 35.9819 6.40992C35.7325 7.48922 35.743 8.61233 36.0126 9.68676L34.5376 10.0434C34.2001 8.72979 34.1848 7.35413 34.4931 6.03339C34.8014 4.71266 35.4242 3.48593 36.3084 2.45758C37.0948 1.56079 38.0912 0.872987 39.2086 0.455749C40.3259 0.0385108 41.5293 -0.0951383 42.711 0.0667669C44.8992 0.313953 46.6214 1.2176 47.8289 2.74529C50.1752 5.73179 49.6929 9.98258 49.6686 10.1568Z" fill="#3E3B47"/>
<path d="M2.92215 34.0082C0.219313 31.1716 -0.461462 27.2086 1.18374 23.8776C1.85116 22.4886 2.93959 21.3453 4.29422 20.6105C5.64885 19.8758 7.20069 19.5868 8.729 19.7849C10.9172 20.0361 12.6394 20.9398 13.847 22.4675C16.1932 25.4377 15.6948 29.6885 15.6948 29.8709L14.1833 29.6885C14.1833 29.6521 14.6088 25.8673 12.6556 23.4035C12.1523 22.7928 11.5298 22.2909 10.8261 21.9287C10.1225 21.5664 9.35239 21.3512 8.56286 21.2964C7.34176 21.1241 6.09764 21.349 5.01411 21.9378C3.93059 22.5267 3.06506 23.4482 2.54529 24.5665C1.18374 27.3058 1.76321 30.6003 4.02031 32.9587L2.92215 34.0082Z" fill="#3E3B47"/>
<path d="M8.66825 21.3126L7.81323 21.0492C7.97486 20.5469 8.1952 20.0654 8.4697 19.6147L9.21125 20.101C8.98382 20.4824 8.80159 20.889 8.66825 21.3126V21.3126Z" fill="#FF9000"/>
<path d="M15.5812 17.3291L14.7262 17.0697C14.8845 16.5668 15.1036 16.0851 15.3786 15.6353L16.1323 16.1175C15.9009 16.4979 15.7159 16.9047 15.5812 17.3291V17.3291Z" fill="#FF9000"/>
<path d="M22.3242 13.4595L21.4692 13.2002C21.6309 12.7017 21.8513 12.2243 22.1257 11.7778L22.8753 12.26C22.6467 12.6377 22.4618 13.0401 22.3242 13.4595V13.4595Z" fill="#FF9000"/>
<path d="M29.1969 9.44774L28.3418 9.1884C28.5031 8.68663 28.7221 8.20525 28.9942 7.75391L29.748 8.24017C29.5189 8.62039 29.334 9.02554 29.1969 9.44774V9.44774Z" fill="#FF9000"/>
<path d="M35.7776 5.82518L34.9226 5.56584C35.0834 5.06319 35.3038 4.58161 35.5791 4.13135L36.3287 4.61356C36.0985 4.9946 35.9135 5.40123 35.7776 5.82518V5.82518Z" fill="#FF9000"/>
<path d="M73.9416 45.1233L60.6746 52.782L57.8826 51.1611L57.838 45.642C57.8454 44.5256 57.7641 43.4105 57.5949 42.307C57.4944 41.7903 57.2844 41.3012 56.9789 40.8725C56.6498 40.4517 56.2355 40.1051 55.7632 39.8554C55.0622 39.4293 54.2533 39.214 53.4332 39.2354C52.6453 39.2624 51.8766 39.4852 51.1964 39.8838C50.5355 40.2476 49.9778 40.7733 49.5755 41.4115C49.2037 42.0548 48.9575 42.763 48.8501 43.4984L44.0847 43.2633C44.1656 42.4618 44.3806 41.6797 44.7209 40.9495C45.0448 40.3442 45.468 39.7977 45.9731 39.3327C46.6345 38.7277 47.3649 38.2027 48.1491 37.7685C49.3259 37.0871 50.6055 36.6012 51.9379 36.33C53.2311 36.0564 54.5607 35.9989 55.8727 36.1598C57.0783 36.2935 58.2444 36.6698 59.3008 37.266C60.0735 37.6877 60.753 38.2611 61.2986 38.9518C61.7687 39.602 62.0859 40.35 62.2266 41.14C62.3945 42.451 62.4054 43.7773 62.259 45.0909L62.1171 47.8261L62.2995 47.9315L70.566 43.158L73.9416 45.1233Z" fill="#FF9000"/>
<path d="M60.6745 53.4552L57.3071 51.5101L57.2504 45.6465C57.2596 44.5711 57.1837 43.4966 57.0234 42.4331C56.9402 41.9959 56.7648 41.5815 56.5088 41.2174C56.2321 40.8634 55.886 40.5697 55.4917 40.3543C54.8806 39.9868 54.1785 39.7987 53.4656 39.8113C52.7722 39.8372 52.0958 40.0334 51.4962 40.3827C50.9159 40.696 50.425 41.1521 50.0698 41.7077C49.7359 42.2878 49.5146 42.9258 49.4174 43.588L49.3323 44.0986L43.4201 43.8109L43.5052 43.1828C43.5948 42.3134 43.8305 41.4654 44.2022 40.6744C44.562 40.0225 45.0245 39.4328 45.5718 38.9279C46.268 38.2936 47.0349 37.7416 47.8573 37.2827C49.0885 36.5709 50.4268 36.0632 51.8204 35.7793C53.1762 35.4928 54.5701 35.4325 55.9455 35.601C57.2283 35.7443 58.4688 36.1454 59.5926 36.7802C60.4363 37.2397 61.1768 37.8672 61.7686 38.624C62.2921 39.3461 62.6454 40.1773 62.8019 41.0553C62.9814 42.417 62.995 43.7953 62.8424 45.1602L62.7411 47.0324L70.566 42.5101L75.1045 45.1319L60.6745 53.4552ZM58.462 50.8374L60.6745 52.1139L72.7826 45.1238L70.566 43.8473L62.2954 48.6208L61.5133 48.1711L61.6754 45.0792C61.8178 43.8116 61.8096 42.5317 61.6511 41.266C61.5315 40.5635 61.2544 39.8971 60.8406 39.3169C60.3409 38.69 59.7209 38.1692 59.0171 37.7852C58.0282 37.2307 56.9384 36.8793 55.8118 36.7519C54.5632 36.6025 53.2986 36.6573 52.0676 36.914C50.796 37.1765 49.5744 37.6403 48.4489 38.2877C47.7065 38.7008 47.0144 39.1985 46.3863 39.7708C45.5057 40.523 44.9295 41.5703 44.7654 42.7167L48.38 42.895C48.5203 42.2694 48.7568 41.6693 49.0811 41.1161C49.5377 40.3902 50.1724 39.7932 50.9248 39.3818C51.6886 38.9376 52.5502 38.6884 53.4332 38.6564C54.3619 38.635 55.2778 38.8767 56.0752 39.3534C56.6052 39.6541 57.0674 40.0611 57.4327 40.5488C57.7874 41.0437 58.032 41.6088 58.15 42.2062C58.3284 43.3455 58.4138 44.4974 58.4052 45.6506L58.462 50.8374Z" fill="#3E3B47"/>
<path d="M74.4157 27.719C75.6043 28.3998 76.2527 29.1886 76.3607 30.0855C76.4688 30.9824 76.0325 31.8942 75.0519 32.8208L75.1288 32.8654C76.651 32.136 78.3052 31.7225 79.9915 31.6497C81.4576 31.6102 82.9061 31.9762 84.1775 32.7073C86.005 33.7649 86.7628 34.9644 86.4548 36.3179C86.1469 37.6713 84.7651 39.0531 82.3094 40.4754C80.2876 41.6486 78.1025 42.5145 75.8258 43.0446L72.4098 41.0752C73.5405 40.8596 74.6548 40.5658 75.7448 40.1958C76.7785 39.8609 77.7751 39.421 78.7191 38.8829C80.0442 38.1211 80.7979 37.4241 80.9803 36.8001C81.1626 36.176 80.7533 35.5844 79.7646 35.0009C78.8616 34.484 77.7992 34.3195 76.7822 34.5389C75.3478 34.8738 73.9786 35.4434 72.7299 36.2247L71.2914 37.0351L68.1955 35.2805L69.6624 34.4336C71.1333 33.5826 72.0167 32.8532 72.3125 32.2373C72.6084 31.6213 72.2882 31.0459 71.3522 30.507C69.915 29.6776 68.2941 29.7816 66.4895 30.819C65.8929 31.1569 65.355 31.5893 64.897 32.0995C64.4263 32.6465 64.0634 33.2776 63.8272 33.9595L59.2036 33.4367C59.6898 31.7186 61.1311 30.1666 63.5273 28.7807C65.3152 27.7015 67.3129 27.0163 69.3868 26.7708C71.1214 26.5396 72.8844 26.872 74.4157 27.719V27.719Z" fill="#FF9000"/>
<path d="M75.7123 43.6609L70.7443 40.7959L72.2841 40.5042C73.3825 40.2898 74.4655 40.0028 75.5259 39.6451C76.5204 39.3197 77.4801 38.8962 78.3908 38.3808C79.9428 37.4853 80.3075 36.9058 80.3845 36.6383C80.5061 36.2331 79.9307 35.7955 79.4322 35.5037C78.6491 35.0525 77.7264 34.9081 76.8429 35.0985C75.4788 35.4259 74.1772 35.9734 72.9892 36.7194L71.2751 37.7122L67.0365 35.2808L69.3746 33.9315C71.1576 32.8981 71.652 32.27 71.7857 31.9864C71.8465 31.8648 71.9964 31.5487 71.0603 31.0057C69.8082 30.2844 68.4102 30.3858 66.7852 31.3218C66.2452 31.6298 65.7581 32.0224 65.3426 32.4848C64.9193 32.979 64.5922 33.548 64.3782 34.1624L64.2242 34.5879L58.47 33.9355L58.6524 33.279C59.1792 31.415 60.7231 29.7333 63.2476 28.2786C65.1038 27.1647 67.1758 26.4589 69.326 26.2079C71.181 25.9615 73.0663 26.3135 74.7073 27.2129V27.2129C76.0729 27.9868 76.8023 28.9351 76.9361 30.0129C77.0049 30.5782 76.9077 31.1512 76.6565 31.6622C77.736 31.3102 78.8605 31.1151 79.9955 31.0827C81.5568 31.0354 83.1003 31.4241 84.4529 32.2052C86.5155 33.3966 87.3746 34.8229 87.0059 36.4479C86.6574 37.9796 85.2107 39.4587 82.5808 40.9783C80.5033 42.1821 78.258 43.0698 75.919 43.6122L75.7123 43.6609ZM73.9739 41.3187L75.8946 42.429C78.0425 41.9072 80.1044 41.0803 82.0176 39.9733C84.3192 38.6442 85.62 37.3718 85.8915 36.1885C85.9806 35.7833 86.2562 34.5677 83.8856 33.2102C82.7089 32.539 81.3699 32.2053 80.0158 32.2457C78.4046 32.3115 76.8235 32.703 75.3678 33.3966L75.0963 33.5181L74.0833 32.9346L74.6547 32.3997C75.4935 31.5893 75.8703 30.8558 75.7852 30.1588C75.7001 29.4618 75.1409 28.8054 74.1238 28.2178C72.6943 27.4423 71.0548 27.1428 69.4435 27.3628C67.4566 27.5986 65.5423 28.2533 63.8271 29.2835C61.8942 30.402 60.6137 31.6298 60.0139 32.9306L63.4624 33.3358C63.7107 32.7454 64.0513 32.1983 64.4714 31.7149C64.972 31.1613 65.5575 30.6908 66.2058 30.3209C68.1913 29.1782 70.0189 29.0688 71.6398 30.0048C73.2607 30.9409 73.0864 31.9661 72.8352 32.4929C72.4827 33.2304 71.5669 34.0084 69.9541 34.9243L69.3584 35.2687L71.2751 36.3749L72.4259 35.7225C73.7268 34.9112 75.1518 34.3185 76.6443 33.9679C77.7991 33.7222 79.0039 33.9112 80.0279 34.4988C81.588 35.4024 81.6974 36.3385 81.5151 36.9625C81.2882 37.7446 80.4615 38.5388 78.9905 39.3939C78.0122 39.9499 76.9805 40.406 75.9109 40.7554C75.2625 40.954 74.6182 41.1525 73.9739 41.3187V41.3187Z" fill="#3E3B47"/>
</svg>
