<svg width="88" height="80" viewBox="0 0 88 80" fill="none" xmlns="http://www.w3.org/2000/svg">
<path d="M19.7622 75.6611C4.01523 66.401 0.620056 32.924 12.8006 19.6828C12.9238 19.5506 13.044 19.4184 13.1672 19.2922C21.6611 10.3716 36.4887 14.2174 39.7697 26.1396C41.8159 33.5699 46.4069 41.6433 56.6916 39.51C74.8993 35.7543 84.9016 39.9096 85.1389 53.4813C85.2651 60.5751 81.8159 72.0346 65.4379 75.6521L19.7622 75.6611Z" fill="#3E3B47"/>
<path opacity="0.3" d="M21.9673 10.648L22.3429 9.42817L21.2012 9.07363C21.2307 8.76193 21.2104 8.44753 21.1411 8.14221L22.1747 7.59838L21.5737 6.46866L20.5852 6.98845C20.3464 6.68465 20.0478 6.43308 19.7079 6.24932L20.0745 5.10758L18.8516 4.729L18.485 5.9068C18.2249 5.89445 17.9642 5.91668 17.7099 5.9729L17.166 4.93932L16.0363 5.54024L16.5561 6.52875C16.2523 6.76755 16.0007 7.06616 15.817 7.40609L14.8164 7.10563L14.4379 8.32849L15.4714 8.64998C15.4567 8.97616 15.4984 9.30244 15.5946 9.61445L14.6061 10.1342L15.207 11.267L16.2406 10.7231C16.4872 10.9905 16.7831 11.2078 17.1119 11.3631L16.7514 12.5169L17.9743 12.8955L18.3618 11.6455C18.643 11.645 18.9225 11.6025 19.1911 11.5194L19.7139 12.5109L20.8436 11.91L20.2998 10.8794C20.4923 10.7032 20.6591 10.5009 20.7956 10.2785L21.9673 10.648ZM18.8877 9.81276C18.6825 9.92036 18.45 9.96473 18.2196 9.94024C17.9892 9.91576 17.7712 9.82353 17.5933 9.6752C17.4153 9.52688 17.2853 9.32912 17.2196 9.10692C17.154 8.88472 17.1557 8.64806 17.2246 8.42683C17.2934 8.20561 17.4263 8.00976 17.6064 7.86403C17.7865 7.71831 18.0058 7.62925 18.2365 7.60812C18.4673 7.58698 18.6991 7.63472 18.9027 7.74529C19.1063 7.85586 19.2725 8.02431 19.3804 8.22934C19.4521 8.36564 19.4963 8.51474 19.5103 8.66812C19.5244 8.8215 19.5081 8.97614 19.4623 9.1232C19.4165 9.27026 19.3422 9.40686 19.2436 9.52518C19.145 9.6435 19.0241 9.74122 18.8877 9.81276V9.81276Z" fill="#FF9026"/>
<path opacity="0.3" d="M47.6535 8.15716L48.0321 6.93429L46.8873 6.57975C46.9204 6.26941 46.9021 5.95575 46.8333 5.65134L47.8638 5.10751L47.2629 3.97478L46.2804 4.50659C46.0399 4.20441 45.7417 3.95315 45.4031 3.76746L45.7576 2.62272L44.5378 2.24414L44.1712 3.42494C43.911 3.40949 43.6499 3.43176 43.396 3.49104L42.8522 2.45747L41.7195 3.05838L42.2423 4.04689C41.9385 4.28569 41.6869 4.5843 41.5031 4.92423L40.5026 4.62377L40.124 5.84363L41.1576 6.16512C41.1408 6.49907 41.1814 6.83343 41.2778 7.15363L40.2893 7.67342L40.8902 8.80615L41.9208 8.26232C42.1688 8.52806 42.4643 8.74511 42.7921 8.90229L42.4345 10.053L43.6574 10.4316L44.045 9.18472C44.3262 9.18422 44.6057 9.14168 44.8743 9.05853L45.3941 10.047L46.5268 9.44612L45.983 8.41255C46.174 8.23577 46.3398 8.03357 46.4757 7.81163L47.6535 8.15716ZM44.5768 7.31888C44.3716 7.42648 44.1392 7.47085 43.9088 7.44637C43.6784 7.42188 43.4604 7.32965 43.2824 7.18133C43.1044 7.033 42.9744 6.83524 42.9088 6.61305C42.8432 6.39085 42.8449 6.15418 42.9137 5.93296C42.9826 5.71173 43.1155 5.51588 43.2956 5.37016C43.4757 5.22443 43.695 5.13538 43.9257 5.11424C44.1564 5.0931 44.3882 5.14084 44.5918 5.25141C44.7954 5.36198 44.9617 5.53043 45.0696 5.73546C45.2136 6.01089 45.2426 6.33218 45.1503 6.62896C45.0579 6.92573 44.8517 7.17382 44.5768 7.31888V7.31888Z" fill="#FF9026"/>
<path opacity="0.3" d="M75.8817 19.8302L76.2603 18.6104L75.1156 18.2558C75.1475 17.9443 75.1283 17.6297 75.0585 17.3244L76.0921 16.7806L75.4911 15.6509L74.5026 16.1707C74.2631 15.8676 73.9646 15.6161 73.6253 15.4315L73.9798 14.2868L72.757 13.9082L72.3934 15.086C72.1332 15.0735 71.8725 15.0957 71.6182 15.1521L71.0804 14.1215L69.9477 14.7224L70.4675 15.711C70.1653 15.9514 69.914 16.2497 69.7283 16.5883L68.7278 16.2878L68.3492 17.5107L69.3858 17.8322C69.3676 18.1652 69.4083 18.4988 69.506 18.8177L68.5175 19.3375L69.1184 20.4702L70.152 19.9264C70.3986 20.1937 70.6945 20.411 71.0233 20.5664L70.6658 21.7171L71.8856 22.0987L72.2732 20.8488C72.5554 20.8485 72.8359 20.806 73.1055 20.7226L73.6253 21.7111L74.758 21.1102L74.2142 20.0766C74.4057 19.9003 74.5716 19.6981 74.7069 19.4757L75.8817 19.8302ZM72.802 18.995C72.5966 19.104 72.3634 19.1496 72.132 19.1259C71.9006 19.1023 71.6814 19.0105 71.5023 18.8622C71.3231 18.7138 71.192 18.5157 71.1256 18.2928C71.0591 18.0699 71.0603 17.8323 71.1291 17.6101C71.1978 17.3879 71.3309 17.1911 71.5116 17.0446C71.6923 16.8981 71.9124 16.8086 72.144 16.7873C72.3756 16.7661 72.6083 16.814 72.8127 16.9252C73.017 17.0363 73.1838 17.2056 73.2918 17.4115C73.4332 17.6857 73.4611 18.0045 73.3695 18.2991C73.2779 18.5937 73.074 18.8404 72.802 18.9859V18.995Z" fill="#FF9026"/>
<path opacity="0.3" d="M10.0634 14.8639C10.1579 14.9727 10.2671 15.0678 10.3879 15.1463L10.1836 15.7472L10.8536 15.9726L11.0489 15.3717C11.2032 15.3959 11.3604 15.3959 11.5147 15.3717L11.8271 16.0387L12.4611 15.7232L12.1606 15.1223C12.3259 15.0081 12.4677 14.8633 12.5783 14.6956L13.1792 14.9L13.4015 14.2299L12.8006 14.0346C12.8268 13.8516 12.8197 13.6653 12.7796 13.4848L13.3535 13.2204L13.053 12.5864L12.5362 12.8448C12.4051 12.6768 12.2416 12.5369 12.0555 12.4332L12.2508 11.8323L11.5777 11.6069L11.3734 12.2078C11.2304 12.1992 11.0868 12.2103 10.9468 12.2409L10.6463 11.64L10.0124 11.9555L10.3128 12.5564C10.1448 12.6875 10.0049 12.8509 9.90119 13.0371L9.30028 12.8418L9.06592 13.5209L9.66683 13.7252C9.65686 13.8984 9.67616 14.0721 9.72392 14.2389L9.12301 14.5394L9.43849 15.1704L10.0634 14.8639ZM10.6493 13.617C10.6899 13.4951 10.7658 13.3881 10.8673 13.3094C10.9688 13.2306 11.0914 13.1838 11.2195 13.1748C11.3476 13.1658 11.4755 13.195 11.587 13.2587C11.6986 13.3224 11.7887 13.4178 11.8459 13.5328C11.9032 13.6478 11.9251 13.7771 11.9088 13.9045C11.8925 14.0319 11.8387 14.1517 11.7544 14.2485C11.67 14.3453 11.5588 14.415 11.4348 14.4486C11.3108 14.4822 11.1797 14.4782 11.058 14.4372C10.8956 14.3818 10.7617 14.2646 10.6852 14.111C10.6087 13.9575 10.5958 13.78 10.6493 13.617V13.617Z" fill="#FF9026"/>
<path opacity="0.3" d="M76.4587 27.1402C76.5971 27.1819 76.7407 27.2042 76.8853 27.2063L77.0416 27.8313L77.7266 27.657L77.5764 27.0561C77.7177 26.9909 77.8483 26.9048 77.964 26.8007L78.5859 27.1703L78.9465 26.5694L78.3756 26.2298C78.4548 26.0393 78.4966 25.8353 78.4988 25.6289L79.1237 25.4697L78.9495 24.7846L78.3486 24.9349C78.2705 24.7674 78.1637 24.6149 78.0331 24.4842L78.3335 23.9704L77.7326 23.6068L77.4322 24.1056C77.2312 24.0329 77.0175 24.0023 76.8042 24.0155L76.654 23.4146L75.9689 23.5888L76.1252 24.2138C76.0006 24.2852 75.8855 24.372 75.7826 24.4722L75.1968 24.1236L74.8332 24.7245L75.4041 25.0641C75.3318 25.2651 75.3011 25.4788 75.3139 25.692L74.713 25.8423L74.8873 26.5303L75.5122 26.3711C75.5952 26.5221 75.7028 26.6582 75.8307 26.7737L75.4912 27.3445L76.0921 27.7051L76.4587 27.1402ZM76.2784 25.7762C76.2466 25.6517 76.2525 25.5206 76.2952 25.3995C76.338 25.2783 76.4157 25.1726 76.5186 25.0957C76.6215 25.0188 76.7449 24.9741 76.8732 24.9674C77.0014 24.9607 77.1288 24.9922 77.2392 25.0579C77.3496 25.1236 77.438 25.2206 77.4932 25.3366C77.5484 25.4526 77.5679 25.5823 77.5494 25.7094C77.5308 25.8365 77.4749 25.9553 77.3888 26.0506C77.3026 26.1459 77.1902 26.2135 77.0656 26.2449C76.8991 26.2868 76.7227 26.261 76.5752 26.1731C76.4276 26.0853 76.3209 25.9425 76.2784 25.7762V25.7762Z" fill="#FF9026"/>
<path opacity="0.3" d="M62.358 17.7843L63.8964 17.4418L63.5749 15.9996C63.9265 15.8439 64.2503 15.6318 64.5334 15.3716L65.7502 16.1438L66.5945 14.8128L65.4317 14.0736C65.6094 13.6319 65.6952 13.1586 65.6841 12.6825L67.1263 12.361L66.7838 10.8167L65.3085 11.1532C65.1641 10.8662 64.9812 10.6004 64.7647 10.363L65.5369 9.16116L64.2059 8.31687L63.4667 9.47964C63.025 9.30201 62.5516 9.21614 62.0756 9.22726L61.7932 7.96533L60.2548 8.30785L60.5553 9.61184C60.1868 9.7971 59.8541 10.0463 59.5728 10.348L58.398 9.59682L57.5537 10.9278L58.7556 11.7C58.6222 12.1282 58.5712 12.5778 58.6053 13.025L57.1541 13.3465L57.4966 14.8849L59.071 14.5364C59.2441 14.8371 59.4608 15.1104 59.714 15.3476L58.9749 16.5074L60.3059 17.3546L61.0781 16.1528C61.3839 16.2485 61.7013 16.3021 62.0215 16.3121L62.358 17.7843ZM61.3635 13.9775C61.1218 13.8253 60.9305 13.6049 60.8139 13.3441C60.6974 13.0833 60.6607 12.7939 60.7086 12.5122C60.7564 12.2306 60.8867 11.9695 61.0829 11.7618C61.2791 11.5542 61.5324 11.4094 61.8108 11.3456C62.0893 11.2819 62.3804 11.3021 62.6474 11.4037C62.9144 11.5053 63.1453 11.6838 63.3109 11.9165C63.4765 12.1493 63.5694 12.4259 63.5779 12.7114C63.5864 12.997 63.5101 13.2786 63.3586 13.5208C63.1539 13.8451 62.8291 14.0751 62.4553 14.1607C62.0814 14.2463 61.6889 14.1804 61.3635 13.9775V13.9775Z" fill="#FF9026"/>
<path opacity="0.3" d="M55.6938 21.4015L56.3849 21.2483L56.2407 20.6023C56.3981 20.5318 56.5432 20.4364 56.6703 20.3199L57.2142 20.6654L57.5957 20.0645L57.0729 19.734C57.1521 19.5353 57.1909 19.3229 57.1871 19.109L57.8331 18.9648L57.6799 18.2738L57.0129 18.424C56.9472 18.2952 56.8643 18.1759 56.7665 18.0694L57.115 17.5256L56.5141 17.144L56.1836 17.6668C55.9849 17.5879 55.7725 17.5491 55.5586 17.5527L55.4324 16.9878L54.7414 17.141L54.8736 17.7269C54.7086 17.811 54.5592 17.9228 54.4319 18.0574L53.9181 17.7269L53.5366 18.3278L54.0834 18.6734C54.021 18.8672 53.9976 19.0714 54.0143 19.2743L53.3653 19.4185L53.5185 20.1096L54.2246 19.9533C54.305 20.0896 54.4064 20.2123 54.5251 20.3169L54.1916 20.8276L54.7925 21.2092L55.138 20.6624C55.276 20.7069 55.4197 20.7312 55.5647 20.7345L55.6938 21.4015ZM55.2492 19.6949C55.1415 19.6256 55.0568 19.5261 55.0056 19.4087C54.9544 19.2914 54.9391 19.1615 54.9615 19.0355C54.9839 18.9095 55.0431 18.7929 55.1317 18.7004C55.2202 18.608 55.3341 18.5437 55.459 18.5158C55.5839 18.4879 55.7143 18.4976 55.8338 18.5436C55.9532 18.5897 56.0564 18.67 56.1303 18.7745C56.2042 18.879 56.2456 19.003 56.2492 19.131C56.2528 19.2589 56.2185 19.3851 56.1505 19.4936C56.0579 19.6392 55.9114 19.7422 55.743 19.7799C55.5746 19.8177 55.3981 19.7871 55.2522 19.6949H55.2492Z" fill="#FF9026"/>
<path opacity="0.3" d="M53.4616 8.31397L54.1496 8.16074L54.0054 7.51175C54.1655 7.4367 54.3118 7.33512 54.4381 7.21129L54.9819 7.55982L55.3605 6.9589L54.8407 6.6284C54.9201 6.42988 54.9579 6.21718 54.9518 6.00345L55.6008 5.85923L55.4476 5.16817L54.7806 5.3184C54.7149 5.18961 54.632 5.07033 54.5342 4.96386L54.8797 4.42003L54.2788 4.03845L53.9453 4.56125C53.7477 4.48208 53.5362 4.44326 53.3234 4.44707L53.2032 3.90625L52.5121 4.05948L52.6413 4.64538C52.4766 4.7285 52.328 4.84044 52.2027 4.97588L51.6799 4.64237L51.3013 5.24329L51.8451 5.58882C51.7853 5.78314 51.7628 5.98705 51.779 6.18973L51.127 6.30992L51.2833 7.00097L51.9863 6.84473C52.0688 6.97951 52.1699 7.10192 52.2868 7.20828L51.9563 7.72808L52.5572 8.10966L52.9027 7.56283C53.0397 7.60741 53.1824 7.63171 53.3264 7.63494L53.4616 8.31397ZM53.0169 6.61037C52.9093 6.54108 52.8245 6.44151 52.7733 6.32418C52.7222 6.20685 52.7068 6.077 52.7292 5.95097C52.7517 5.82494 52.8109 5.70836 52.8994 5.61589C52.9879 5.52342 53.1018 5.4592 53.2267 5.4313C53.3517 5.40339 53.4821 5.41306 53.6015 5.45908C53.721 5.5051 53.8241 5.58542 53.898 5.68993C53.972 5.79445 54.0133 5.91848 54.0169 6.04644C54.0205 6.1744 53.9862 6.30057 53.9183 6.40907C53.8727 6.48189 53.8131 6.54493 53.7429 6.59454C53.6728 6.64415 53.5935 6.67934 53.5096 6.69807C53.4258 6.71679 53.3391 6.71869 53.2545 6.70363C53.1699 6.68858 53.0891 6.65688 53.0169 6.61037V6.61037Z" fill="#FF9026"/>
<path opacity="0.3" d="M29.446 8.27161C29.7532 8.3636 30.0717 8.41214 30.3924 8.41583L30.756 9.81296L32.2853 9.42537L31.9488 8.09134C32.2601 7.94083 32.5476 7.74546 32.8021 7.51145L34.1872 8.33471L34.9954 6.98265L33.7185 6.21948C33.8901 5.80578 33.9819 5.36333 33.9889 4.9155L35.386 4.56396L34.9984 3.03463L33.6644 3.37114C33.49 2.99842 33.2521 2.65886 32.9613 2.36761L33.6464 1.21986L32.2943 0.411628L31.6303 1.53234C31.1814 1.37392 30.7054 1.3065 30.2302 1.33403L29.8936 0L28.3523 0.384586L28.7068 1.78172C28.4259 1.93756 28.1681 2.13171 27.9407 2.3586L26.6337 1.57741L25.8375 2.93247L27.1054 3.68963C26.9475 4.13867 26.8801 4.61454 26.9071 5.08976L25.5731 5.42627L25.9486 6.95561L27.3548 6.61008C27.5412 6.94749 27.7818 7.252 28.0669 7.51145L27.3097 8.77939L28.6528 9.57861L29.446 8.27161ZM29.0464 5.22797C28.976 4.95085 28.9894 4.65909 29.0849 4.38961C29.1804 4.12012 29.3537 3.88502 29.5829 3.71404C29.812 3.54307 30.0868 3.44391 30.3723 3.4291C30.6578 3.41429 30.9413 3.48451 31.1869 3.63087C31.4325 3.77722 31.6292 3.99314 31.7521 4.2513C31.8749 4.50947 31.9185 4.79827 31.8772 5.08118C31.8359 5.36409 31.7116 5.62839 31.52 5.84064C31.3284 6.05289 31.0782 6.20355 30.801 6.27357C30.4297 6.36735 30.0363 6.30991 29.7073 6.11386C29.3783 5.91781 29.1406 5.59918 29.0464 5.22797V5.22797Z" fill="#FF9026"/>
<path opacity="0.3" d="M34.2051 14.5149C34.3439 14.5551 34.4873 14.5773 34.6318 14.581L34.788 15.2059L35.4761 15.0316L35.3229 14.4307C35.4642 14.3656 35.5948 14.2795 35.7104 14.1753L36.3324 14.5449L36.6959 13.944L36.1221 13.6015C36.2008 13.4171 36.2426 13.2191 36.2453 13.0186L36.8702 12.8593L36.6959 12.1743L36.095 12.3245C36.0223 12.1577 35.9205 12.0051 35.7946 11.8738L36.095 11.36L35.4941 10.9965L35.1937 11.4953C34.9926 11.423 34.779 11.3923 34.5657 11.4051L34.4125 10.8042L33.7274 10.9785L33.8867 11.6034C33.7607 11.674 33.6445 11.7609 33.5411 11.8618L32.9402 11.5133L32.5767 12.1142L33.1475 12.4537C33.0753 12.6548 33.0446 12.8684 33.0574 13.0817L32.4565 13.2319L32.6307 13.9169L33.2557 13.7607C33.3389 13.9124 33.4476 14.0486 33.5772 14.1633L33.2377 14.7312L33.8386 15.0947L34.2051 14.5149ZM34.0279 13.1478C33.9974 13.0239 34.0043 12.8939 34.0477 12.774C34.0911 12.654 34.1689 12.5496 34.2715 12.4739C34.3741 12.3982 34.4968 12.3545 34.6242 12.3484C34.7515 12.3422 34.8779 12.3739 34.9872 12.4395C35.0966 12.505 35.1842 12.6015 35.2388 12.7167C35.2935 12.8319 35.3128 12.9607 35.2944 13.0869C35.276 13.213 35.2207 13.331 35.1354 13.4257C35.0501 13.5205 34.9386 13.5879 34.8151 13.6195C34.6481 13.6613 34.4714 13.6351 34.3238 13.5466C34.1762 13.4582 34.0697 13.3147 34.0279 13.1478V13.1478Z" fill="#FF9026"/>
<path d="M44 79.9999C68.0744 79.9999 87.5905 78.9614 87.5905 77.6804C87.5905 76.3993 68.0744 75.3608 44 75.3608C19.9257 75.3608 0.409546 76.3993 0.409546 77.6804C0.409546 78.9614 19.9257 79.9999 44 79.9999Z" fill="#3E3B47"/>
<path d="M33.0182 71.8094L29.9565 74.7989L27.0361 77.6503C26.5387 78.1445 25.8654 78.4211 25.1642 78.4195C24.6428 78.418 24.1334 78.2623 23.7001 77.9721C23.2669 77.6818 22.9291 77.2699 22.7294 76.7882C22.5296 76.3065 22.4768 75.7765 22.5775 75.2648C22.6782 74.7531 22.928 74.2827 23.2954 73.9126L25.5729 71.6351L27.9345 69.2705L33.0182 71.8094Z" fill="#FF9026"/>
<path d="M62.0035 78.4195C61.6563 78.4198 61.3124 78.3515 60.9917 78.2185C60.671 78.0854 60.3797 77.8903 60.1346 77.6444L57.2112 74.793L54.1585 71.8095L59.2423 69.2676L61.6039 71.6322L63.8813 73.9097C64.2489 74.2807 64.4984 74.7521 64.5986 75.2647C64.6988 75.7772 64.6451 76.3079 64.4444 76.79C64.2437 77.2721 63.9048 77.6841 63.4705 77.974C63.0361 78.264 62.5257 78.419 62.0035 78.4195V78.4195Z" fill="#FF9026"/>
<path d="M27.9347 69.2588L33.0184 71.8097L29.9567 74.7992C28.3943 73.8914 26.9258 72.8305 25.5731 71.6324L27.9347 69.2588Z" fill="#E28037"/>
<path d="M61.6039 71.6232C60.2506 72.822 58.7811 73.8829 57.2172 74.79L54.1585 71.8095L59.2423 69.2676L61.6039 71.6232Z" fill="#E28037"/>
<path d="M47.4972 17.6069H39.6793V26.2091H47.4972V17.6069Z" fill="#E28037"/>
<path d="M41.3649 13.8994H46.1722C47.4575 13.8994 48.6902 14.41 49.5991 15.3189C50.508 16.2278 51.0186 17.4605 51.0186 18.7458C51.0186 18.843 50.98 18.9363 50.9112 19.005C50.8425 19.0737 50.7492 19.1124 50.652 19.1124H36.1639C36.1639 17.7319 36.7115 16.4078 37.6865 15.4305C38.6615 14.4532 39.9844 13.9026 41.3649 13.8994Z" fill="#FF9026"/>
<path d="M22.4942 26.6694L18.687 30.4766L22.8766 34.6662L26.6838 30.859L22.4942 26.6694Z" fill="#E28037"/>
<path d="M24.9449 25.6831L17.7009 32.9272L17.5056 32.7289C17.1971 32.4218 16.9524 32.0568 16.7854 31.6549C16.6184 31.253 16.5325 30.822 16.5325 30.3868C16.5325 29.9516 16.6184 29.5206 16.7854 29.1187C16.9524 28.7168 17.1971 28.3518 17.5056 28.0447L20.0625 25.4848C20.3695 25.1764 20.7345 24.9317 21.1364 24.7647C21.5384 24.5977 21.9693 24.5117 22.4045 24.5117C22.8398 24.5117 23.2707 24.5977 23.6726 24.7647C24.0745 24.9317 24.4395 25.1764 24.7466 25.4848L24.9449 25.6831Z" fill="#FF9026"/>
<path d="M60.4937 30.8573L64.3009 34.6646L68.4905 30.4749L64.6833 26.6677L60.4937 30.8573Z" fill="#E28037"/>
<path d="M62.2318 25.6832L69.4758 32.9272L69.6711 32.7289C69.9795 32.4218 70.2242 32.0568 70.3912 31.6549C70.5582 31.253 70.6442 30.8221 70.6442 30.3868C70.6442 29.9516 70.5582 29.5207 70.3912 29.1187C70.2242 28.7168 69.9795 28.3518 69.6711 28.0448L67.1112 25.4849C66.8041 25.176 66.4389 24.9309 66.0367 24.7636C65.6345 24.5964 65.2032 24.5103 64.7676 24.5103C64.332 24.5103 63.9007 24.5964 63.4985 24.7636C63.0964 24.9309 62.7312 25.176 62.424 25.4849L62.2318 25.6832Z" fill="#FF9026"/>
<path d="M43.5882 76.4282C58.6039 76.4282 70.7766 64.2555 70.7766 49.2397C70.7766 34.224 58.6039 22.0513 43.5882 22.0513C28.5724 22.0513 16.3997 34.224 16.3997 49.2397C16.3997 64.2555 28.5724 76.4282 43.5882 76.4282Z" fill="#FF9026"/>
<path d="M66.0987 49.1037C66.0987 49.4372 66.0987 49.7677 66.0777 50.0982C65.8259 55.8924 63.346 61.3655 59.1556 65.3751C54.9652 69.3847 49.3881 71.6209 43.5884 71.617C42.4266 71.6169 41.2665 71.5285 40.1181 71.3526C38.2993 71.0716 36.5221 70.567 34.827 69.8503C34.5086 69.7181 34.1961 69.5739 33.8866 69.4267C31.5782 68.3254 29.4756 66.8366 27.6701 65.0249C27.3697 64.7245 27.0872 64.424 26.8108 64.1236C23.3337 60.2576 21.3148 55.2994 21.1021 50.1042C21.1021 49.7737 21.0781 49.4432 21.0781 49.1127C21.0749 46.1551 21.6549 43.226 22.7849 40.4928C23.9149 37.7596 25.5727 35.276 27.6634 33.1842C29.7542 31.0923 32.2368 29.4332 34.9694 28.3018C37.702 27.1703 40.6308 26.5888 43.5884 26.5903C45.1019 26.5903 46.6117 26.7413 48.0953 27.041C52.0026 27.8397 55.6269 29.6638 58.5963 32.3261C58.8967 32.6025 59.1972 32.8909 59.4977 33.1854C61.3093 34.9908 62.7981 37.0934 63.8994 39.4019C64.0466 39.7023 64.1998 40.0238 64.323 40.3423C65.0408 42.037 65.5455 43.8143 65.8253 45.6334C66.0056 46.7814 66.097 47.9416 66.0987 49.1037V49.1037Z" fill="#F4EDE8"/>
<path d="M66.0777 50.0987C65.8259 55.8929 63.346 61.366 59.1556 65.3756C54.9652 69.3852 49.3881 71.6214 43.5884 71.6175C42.4266 71.6174 41.2665 71.529 40.1181 71.3531C38.2993 71.0721 36.5221 70.5675 34.827 69.8508C34.5086 69.7186 34.1961 69.5744 33.8866 69.4271C31.5782 68.3259 29.4756 66.8371 27.6701 65.0254C27.3697 64.725 27.0872 64.4245 26.8108 64.1241C23.3337 60.2581 21.3148 55.2999 21.1021 50.1047C21.3546 44.311 23.8348 38.8386 28.0252 34.8297C32.2155 30.8207 37.7922 28.5849 43.5914 28.5889C45.1049 28.5889 46.6147 28.7398 48.0983 29.0396C52.0056 29.8382 55.6299 31.6623 58.5993 34.3246C58.8997 34.601 59.2002 34.8895 59.5007 35.1839C61.3123 36.9894 62.8011 39.092 63.9024 41.4004C64.0496 41.7009 64.2028 42.0224 64.326 42.3408C65.0442 44.0354 65.5488 45.8128 65.8283 47.6319C65.9579 48.4488 66.0411 49.2724 66.0777 50.0987V50.0987Z" fill="white"/>
<path d="M43.967 31.1276C43.967 30.9185 43.7975 30.749 43.5884 30.749C43.3793 30.749 43.2098 30.9185 43.2098 31.1276V34.5949C43.2098 34.804 43.3793 34.9735 43.5884 34.9735C43.7975 34.9735 43.967 34.804 43.967 34.5949V31.1276Z" fill="#3E3B47"/>
<path d="M43.967 63.6159C43.967 63.4068 43.7975 63.2373 43.5884 63.2373C43.3793 63.2373 43.2098 63.4068 43.2098 63.6159V67.0832C43.2098 67.2923 43.3793 67.4617 43.5884 67.4617C43.7975 67.4617 43.967 67.2923 43.967 67.0832V63.6159Z" fill="#3E3B47"/>
<path d="M29.0793 48.7251H25.612C25.403 48.7251 25.2335 48.8946 25.2335 49.1037C25.2335 49.3128 25.403 49.4823 25.612 49.4823H29.0793C29.2884 49.4823 29.4579 49.3128 29.4579 49.1037C29.4579 48.8946 29.2884 48.7251 29.0793 48.7251Z" fill="#3E3B47"/>
<path d="M61.5647 48.7251H58.0974C57.8883 48.7251 57.7188 48.8946 57.7188 49.1037C57.7188 49.3128 57.8883 49.4823 58.0974 49.4823H61.5647C61.7738 49.4823 61.9433 49.3128 61.9433 49.1037C61.9433 48.8946 61.7738 48.7251 61.5647 48.7251Z" fill="#3E3B47"/>
<path d="M56.3005 35.861L53.3129 38.8477L53.8482 39.3831L56.8358 36.3965L56.3005 35.861Z" fill="#3E3B47"/>
<path d="M30.6085 62.0835C30.5375 62.012 30.4976 61.9153 30.4976 61.8146C30.4976 61.7138 30.5375 61.6171 30.6085 61.5457L33.0602 59.0969C33.1312 59.0261 33.2274 58.9863 33.3276 58.9863C33.4279 58.9863 33.5241 59.0261 33.595 59.0969C33.6658 59.1679 33.7056 59.2641 33.7056 59.3643C33.7056 59.4646 33.6658 59.5608 33.595 59.6317L31.1463 62.0835C31.0748 62.1545 30.9781 62.1943 30.8774 62.1943C30.7766 62.1943 30.68 62.1545 30.6085 62.0835V62.0835Z" fill="#3E3B47"/>
<path d="M33.595 39.1107C33.5603 39.1465 33.5187 39.175 33.4728 39.1944C33.4269 39.2139 33.3775 39.2239 33.3276 39.2239C33.2777 39.2239 33.2284 39.2139 33.1824 39.1944C33.1365 39.175 33.0949 39.1465 33.0602 39.1107L30.6085 36.656C30.5375 36.5845 30.4976 36.4878 30.4976 36.3871C30.4976 36.2863 30.5375 36.1897 30.6085 36.1182V36.1182C30.68 36.0472 30.7766 36.0073 30.8774 36.0073C30.9781 36.0073 31.0748 36.0472 31.1463 36.1182L33.595 38.5699C33.631 38.6052 33.6596 38.6472 33.6791 38.6937C33.6986 38.7401 33.7087 38.79 33.7087 38.8403C33.7087 38.8907 33.6986 38.9406 33.6791 38.987C33.6596 39.0334 33.631 39.0755 33.595 39.1107V39.1107Z" fill="#3E3B47"/>
<path d="M56.5682 62.0835C56.4968 62.1545 56.4001 62.1943 56.2993 62.1943C56.1986 62.1943 56.1019 62.1545 56.0304 62.0835L53.5907 59.6317C53.5199 59.5608 53.4801 59.4646 53.4801 59.3643C53.4801 59.2641 53.5199 59.1679 53.5907 59.0969V59.0969C53.6617 59.0261 53.7578 58.9863 53.8581 58.9863C53.9584 58.9863 54.0545 59.0261 54.1255 59.0969L56.5773 61.5457C56.6471 61.6183 56.6853 61.7157 56.6836 61.8164C56.6819 61.9172 56.6405 62.0132 56.5682 62.0835V62.0835Z" fill="#3E3B47"/>
<path d="M52.1304 52.7333L45.2739 50.0291L45.5113 49.4282L52.3707 52.1323C52.4503 52.1645 52.5141 52.2265 52.5484 52.3052C52.5826 52.3839 52.5847 52.4728 52.554 52.553V52.553C52.5382 52.5927 52.5146 52.6289 52.4847 52.6595C52.4548 52.6901 52.4191 52.7145 52.3797 52.7313C52.3403 52.748 52.298 52.7568 52.2552 52.7572C52.2125 52.7575 52.17 52.7494 52.1304 52.7333V52.7333Z" fill="#F59503"/>
<path d="M43.9129 49.4283H32.4264C32.3404 49.4283 32.2578 49.3941 32.197 49.3332C32.1361 49.2724 32.1019 49.1898 32.1019 49.1038C32.1019 49.0612 32.1103 49.019 32.1266 48.9796C32.1429 48.9402 32.1668 48.9045 32.197 48.8743C32.2271 48.8442 32.2629 48.8203 32.3022 48.804C32.3416 48.7877 32.3838 48.7793 32.4264 48.7793H43.2639V39.9368C43.2639 39.8507 43.2981 39.7682 43.359 39.7073C43.4198 39.6465 43.5024 39.6123 43.5884 39.6123V39.6123C43.6745 39.6123 43.757 39.6465 43.8179 39.7073C43.8788 39.7682 43.9129 39.8507 43.9129 39.9368V49.4283Z" fill="#3E3B47"/>
<path d="M45.6486 49.5864C45.9162 48.4476 45.2098 47.3075 44.071 47.0399C42.9321 46.7724 41.792 47.4787 41.5245 48.6176C41.2569 49.7565 41.9633 50.8966 43.1021 51.1641C44.241 51.4316 45.3811 50.7253 45.6486 49.5864Z" fill="#3E3B47"/>
<path d="M43.5884 50.3389C43.3442 50.3389 43.1054 50.2665 42.9023 50.1308C42.6993 49.9951 42.541 49.8022 42.4475 49.5766C42.3541 49.3509 42.3296 49.1027 42.3772 48.8631C42.4249 48.6236 42.5425 48.4035 42.7152 48.2308C42.8879 48.0581 43.1079 47.9405 43.3475 47.8929C43.587 47.8452 43.8353 47.8697 44.061 47.9631C44.2866 48.0566 44.4795 48.2149 44.6152 48.418C44.7509 48.621 44.8233 48.8598 44.8233 49.104C44.8233 49.4315 44.6932 49.7456 44.4616 49.9772C44.23 50.2088 43.9159 50.3389 43.5884 50.3389Z" fill="#312E38"/>
</svg>
