<svg width="136" height="80" viewBox="0 0 136 80" fill="none" xmlns="http://www.w3.org/2000/svg">
<path d="M61.5499 79.9998L80.4974 61.0523L71.0237 59.436L61.5499 61.0523L59.8209 69.7179L61.5499 79.9998Z" fill="#EA4335"/>
<path d="M0.497437 61.0523V73.6838C0.497437 77.1735 3.32369 79.9998 6.81306 79.9998H19.4449L21.3902 70.526L19.4449 61.0523L9.12212 59.436L0.497437 61.0523Z" fill="#188038"/>
<path d="M80.4974 18.9475V6.31562C80.4974 2.82625 77.6712 0 74.1818 0H61.5499C60.3974 4.69875 59.8209 8.15656 59.8209 10.3737C59.8209 12.5906 60.3974 15.4487 61.5499 18.9475C65.7405 20.1475 68.8984 20.7475 71.0237 20.7475C73.149 20.7475 76.3068 20.1475 80.4974 18.9475Z" fill="#1967D2"/>
<path d="M80.4975 18.9473H61.55V61.0523H80.4975V18.9473Z" fill="#FBBC04"/>
<path d="M61.5499 61.0527H19.4449V80.0002H61.5499V61.0527Z" fill="#34A853"/>
<path d="M61.5499 0H6.81337C3.32369 0 0.497437 2.82625 0.497437 6.31562V61.0525H19.4449V18.9475H61.5499V0Z" fill="#4285F4"/>
<path d="M28.0817 51.6107C26.508 50.5475 25.4183 48.995 24.8236 46.9419L28.4764 45.4369C28.8077 46.7 29.3867 47.6791 30.2133 48.3738C31.0342 49.0685 32.0342 49.4107 33.2027 49.4107C34.3974 49.4107 35.4236 49.0475 36.2814 48.321C37.1395 47.5947 37.5711 46.6685 37.5711 45.5475C37.5711 44.4 37.1183 43.4632 36.2133 42.7369C35.308 42.0107 34.1711 41.6475 32.8133 41.6475H30.7027V38.0319H32.5974C33.7658 38.0319 34.7499 37.716 35.5499 37.0841C36.3499 36.4529 36.7499 35.5894 36.7499 34.4894C36.7499 33.5107 36.392 32.7316 35.6764 32.1475C34.9608 31.5632 34.0552 31.2685 32.9552 31.2685C31.8814 31.2685 31.0289 31.5529 30.3974 32.1263C29.7661 32.7015 29.2916 33.4278 29.0183 34.2369L25.4027 32.7316C25.8814 31.3738 26.7605 30.1738 28.0499 29.1369C29.3395 28.1 30.9867 27.5791 32.9867 27.5791C34.4658 27.5791 35.7974 27.8635 36.9764 28.4369C38.1552 29.0107 39.0814 29.8054 39.7499 30.816C40.4186 31.8316 40.7499 32.9685 40.7499 34.2316C40.7499 35.521 40.4395 36.6107 39.8186 37.5054C39.1974 38.4 38.4342 39.0841 37.5289 39.5632V39.7788C38.6979 40.2608 39.7133 41.0524 40.4658 42.0685C41.2289 43.0947 41.6133 44.321 41.6133 45.7529C41.6133 47.1841 41.2499 48.4632 40.5236 49.5841C39.7974 50.7054 38.7924 51.5894 37.5183 52.2316C36.2395 52.8738 34.8027 53.2004 33.208 53.2004C31.3605 53.2054 29.6552 52.6738 28.0814 51.6107H28.0817ZM50.5183 33.4841L46.508 36.3841L44.5027 33.3422L51.6974 28.1525H54.4552V52.6316H50.5183V33.4844V33.4841Z" fill="#4285F4"/>
<path d="M114.929 35.7774L115.285 36.1338L117.161 38.0095C117.647 37.0709 117.937 36.0433 118.014 34.9891C118.078 34.0684 117.957 33.1442 117.659 32.2707C117.349 31.3757 116.84 30.5625 116.17 29.8921L108.14 21.8624C107.473 21.193 106.661 20.6843 105.768 20.3748C104.442 19.9259 103.013 19.8791 101.66 20.2404C100.237 20.6153 98.9408 21.3634 97.9043 22.4076C96.5137 23.7743 95.665 25.5982 95.5151 27.5422C95.4488 28.4665 95.5695 29.3947 95.87 30.2712C96.1795 31.1667 96.6887 31.9801 97.3591 32.6498L105.39 40.675C106.061 41.3444 106.874 41.8534 107.769 42.164C109.093 42.6095 110.519 42.6557 111.869 42.2969C112.438 42.1485 112.989 41.9378 113.512 41.6687L111.632 39.7855L111.279 39.4321C110.959 39.5278 110.631 39.5886 110.299 39.6133C109.766 39.653 109.232 39.5847 108.726 39.4124C108.246 39.2482 107.809 38.9759 107.45 38.6166L99.4251 30.5838C99.0652 30.225 98.7924 29.7884 98.6277 29.3077C98.3698 28.5259 98.3477 27.6856 98.5642 26.8914C98.808 25.9745 99.2936 25.14 99.9702 24.475C100.835 23.5817 101.994 23.0309 103.232 22.924C103.764 22.885 104.299 22.9533 104.804 23.1249C105.286 23.2918 105.723 23.5666 106.082 23.9283L114.113 31.9596C114.472 32.3192 114.744 32.7556 114.909 33.2357C115.166 34.0176 115.188 34.8577 114.973 35.652C114.962 35.6898 114.942 35.7336 114.929 35.7774Z" fill="#FF9026"/>
<path d="M116.066 44.2226L113.832 41.9905C113.346 42.9289 113.055 43.9566 112.979 45.0109C112.913 45.9317 113.034 46.8562 113.334 47.7293C113.646 48.6252 114.157 49.4385 114.829 50.1079L122.86 58.1391C123.53 58.8094 124.343 59.3182 125.239 59.6267C126.562 60.0738 127.988 60.1205 129.338 59.7611C130.761 59.3868 132.059 58.6379 133.095 57.5924C134.486 56.2261 135.336 54.402 135.486 52.4578C135.55 51.5369 135.429 50.6124 135.129 49.7394C134.82 48.8439 134.312 48.0305 133.642 47.3608L125.604 39.3326C124.934 38.6635 124.121 38.1545 123.226 37.8435C121.902 37.3973 120.476 37.3511 119.126 37.7106C118.557 37.8581 118.006 38.0688 117.484 38.3389L119.718 40.5709C120.037 40.4775 120.365 40.4182 120.696 40.3942C121.228 40.3548 121.762 40.4226 122.267 40.5936C122.748 40.759 123.185 41.0317 123.544 41.391L131.576 49.4222C131.935 49.7823 132.207 50.2192 132.373 50.6999C132.63 51.4818 132.652 52.3221 132.435 53.1162C132.191 54.0327 131.706 54.8671 131.031 55.5325C130.163 56.4237 129.002 56.9717 127.762 57.076C127.23 57.1162 126.696 57.0484 126.19 56.8766C125.709 56.7114 125.272 56.4387 124.913 56.0792L116.881 48.048C116.522 47.6886 116.25 47.2515 116.086 46.7703C115.828 45.9886 115.806 45.1482 116.022 44.354C116.037 44.3162 116.054 44.2664 116.066 44.2226Z" fill="#FF9026"/>
<path d="M117.484 38.3329L117.162 38.0112L115.282 36.1355L114.926 35.7791L109.773 30.6218C109.311 30.1629 108.687 29.9053 108.036 29.9053C107.385 29.9053 106.761 30.1629 106.3 30.6218L106.124 30.7969C105.665 31.2585 105.408 31.8828 105.408 32.5337C105.408 33.1845 105.665 33.8089 106.124 34.2704L111.283 39.4278L111.637 39.7811L113.517 41.6598L113.837 41.9815L116.071 44.2136L119.997 48.1401C120.458 48.6001 121.083 48.8585 121.734 48.8585C122.385 48.8585 123.01 48.6001 123.471 48.1401L123.646 47.9664C124.107 47.5046 124.366 46.8786 124.366 46.2259C124.366 45.5733 124.107 44.9473 123.646 44.4854L119.719 40.5589L117.484 38.3329Z" fill="#E28037"/>
</svg>
