<svg width="98" height="80" viewBox="0 0 98 80" fill="none" xmlns="http://www.w3.org/2000/svg">
<g style="mix-blend-mode:multiply" opacity="0.3">
<path d="M1.97682 64.5209C0.445772 63.638 0.643155 62.0883 2.40626 61.0667L64.2643 25.3538C66.0301 24.3349 68.7134 24.2229 70.2445 25.1058L96.0242 40.0055C97.5526 40.8884 97.3579 42.4354 95.5948 43.457L33.7367 79.1566C31.971 80.1755 29.2876 80.2875 27.7566 79.4046L1.97682 64.5209Z" fill="#999999"/>
</g>
<path d="M95.4001 37.0712L69.2789 24.2947C67.7879 23.4331 65.1766 23.5425 63.4535 24.5347L1.77143 58.1084C1.77143 58.1084 1.70474 60.6664 1.77143 61.3679C1.82211 61.864 2.15286 62.3335 2.76901 62.7016L27.8846 77.1905C29.3756 78.0521 31.9896 77.9427 33.71 76.9478L93.9757 42.1578C94.9253 41.6243 95.4081 40.9068 95.4001 40.2427C95.3947 39.6985 95.4001 37.0712 95.4001 37.0712Z" fill="#808080"/>
<g style="mix-blend-mode:multiply" opacity="0.3">
<path d="M24.4545 45.7612L23.3075 46.3854V74.5444L24.4545 75.2059V45.7612Z" fill="#808080"/>
</g>
<g style="mix-blend-mode:multiply" opacity="0.3">
<path d="M33.4434 40.8696L26.4283 44.6892V76.3451L27.89 77.1907C29.3037 78.0069 31.7283 77.9509 33.4434 77.0946V40.8696Z" fill="#808080"/>
</g>
<path d="M2.77445 59.5193C1.28608 58.6577 1.47279 57.1507 3.19322 56.1558L63.4536 21.3658C65.1767 20.3709 67.788 20.2615 69.279 21.1231L94.3946 35.6227C95.8856 36.4842 95.6989 37.9913 93.9758 38.9862L33.7155 73.7788C31.9951 74.7711 29.3811 74.8804 27.89 74.0189L2.77445 59.5193Z" fill="#999999"/>
<path d="M93.8611 35.9325L68.7455 21.4303C67.5078 20.7154 65.3446 20.8061 63.9149 21.633L3.65459 56.423C2.2249 57.2472 2.07019 58.4981 3.30784 59.213L28.4181 73.7126C29.6557 74.4274 31.8189 74.3368 33.2486 73.5126L93.5143 38.7199C94.944 37.8957 95.1014 36.6474 93.8611 35.9325Z" fill="#F4EDE8"/>
<path d="M91.0175 38.9972L63.4373 23.0732L8.57034 54.7505L36.1505 70.6744L91.0175 38.9972Z" fill="#312E38"/>
<path d="M91.0177 38.9972L63.4375 23.0732L63.048 23.292L90.6309 39.2159L91.0177 38.9972Z" fill="#999999"/>
<path d="M63.8001 23.2813L63.4373 23.0732L8.57034 54.7505L8.9331 54.9585L63.8001 23.2813Z" fill="#999999"/>
<path d="M21.3043 65.7267C19.9706 66.4922 17.9675 66.5749 16.8178 65.9107C15.6682 65.2465 15.8123 64.0889 17.1406 63.3207C18.4689 62.5525 20.4774 62.4725 21.627 63.1367C22.7767 63.8008 22.6326 64.9585 21.3043 65.7267Z" fill="#D3CDC9"/>
<path d="M82.0954 32.2513L75.5658 28.4797C75.2324 28.2903 75.2751 27.9463 75.6592 27.7329C75.8555 27.6232 76.0749 27.5613 76.2996 27.552C76.5243 27.5427 76.7481 27.5864 76.9528 27.6795L83.4851 31.4511C83.8159 31.6405 83.7732 31.9846 83.3918 32.198C83.1949 32.3076 82.9751 32.3696 82.7499 32.3789C82.5248 32.3881 82.3006 32.3445 82.0954 32.2513V32.2513Z" fill="#D3CDC9"/>
<path d="M74.4295 27.0235C74.2331 27.1332 74.0137 27.1951 73.789 27.2044C73.5643 27.2137 73.3405 27.17 73.1358 27.0769C72.8024 26.8875 72.8451 26.5434 73.2292 26.33C73.4255 26.2204 73.6449 26.1584 73.8696 26.1492C74.0944 26.1399 74.3181 26.1836 74.5228 26.2767C74.8562 26.4687 74.8136 26.8022 74.4295 27.0235Z" fill="#5D5D5D"/>
<g style="mix-blend-mode:multiply" opacity="0.3">
<path d="M68.7456 36.6181C71.8657 36.6181 74.395 36.0221 74.395 35.2871C74.395 34.552 71.8657 33.9561 68.7456 33.9561C65.6255 33.9561 63.0962 34.552 63.0962 35.2871C63.0962 36.0221 65.6255 36.6181 68.7456 36.6181Z" fill="#999999"/>
</g>
<path d="M83.4212 14.6657C83.4203 11.8846 82.6289 9.16107 81.1393 6.81257C79.6497 4.46407 77.5232 2.58736 75.0078 1.40122C72.4923 0.215088 69.6916 -0.231609 66.9319 0.113205C64.1723 0.45802 61.5676 1.58014 59.4213 3.34876C57.2751 5.11737 55.6758 7.45962 54.8098 10.1024C53.9439 12.7453 53.847 15.5798 54.5304 18.2756C55.2139 20.9714 56.6495 23.4174 58.67 25.3284C60.6905 27.2395 63.2125 28.5368 65.9422 29.0693L68.7455 35.2815L71.5516 29.0693C74.8942 28.4192 77.9067 26.6264 80.0723 23.9985C82.2379 21.3705 83.4219 18.071 83.4212 14.6657Z" fill="#F4EDE8"/>
<path opacity="0.4" d="M82.7143 10.1606C82.1408 18.9788 74.627 26.1646 65.6834 26.1646C62.7651 26.1601 59.8984 25.3943 57.3667 23.9427C59.5373 26.6023 62.5719 28.4164 65.9421 29.0693L68.7455 35.2815L71.5515 29.0693C73.5881 28.6713 75.5172 27.8462 77.2117 26.6484C78.9062 25.4506 80.3277 23.9073 81.3824 22.1203C82.4371 20.3332 83.1011 18.3429 83.3307 16.2805C83.5603 14.2182 83.3502 12.1305 82.7143 10.1553V10.1606Z" fill="#D3CDC9"/>
<path d="M71.4315 21.3125C71.3293 21.6678 71.1238 21.9849 70.8412 22.2233C70.5586 22.4618 70.2115 22.611 69.844 22.652C69.4765 22.6929 69.1051 22.6239 68.7769 22.4535C68.4487 22.2832 68.1785 22.0192 68.0005 21.695C67.8225 21.3709 67.7448 21.0012 67.7772 20.6329C67.8095 20.2645 67.9506 19.9141 68.1823 19.6259C68.4141 19.3378 68.7263 19.125 69.0792 19.0145C69.432 18.904 69.8098 18.9008 70.1645 19.0052C70.6376 19.1445 71.0364 19.4653 71.2737 19.8976C71.5111 20.3299 71.5678 20.8385 71.4315 21.3125V21.3125Z" fill="#FF9026"/>
<path d="M72.325 20.4883C71.6128 19.192 73.1252 14.1294 73.1252 14.1294C73.2781 13.6487 73.3332 13.1422 73.2874 12.6399C73.2415 12.1375 73.0957 11.6494 72.8584 11.2043C72.6211 10.7591 72.2972 10.3659 71.9057 10.0479C71.5141 9.72977 71.0629 9.49323 70.5786 9.35214C70.0943 9.21104 69.5867 9.16825 69.0856 9.22628C68.5845 9.28432 68.1001 9.442 67.6608 9.69005C67.2216 9.93811 66.8364 10.2715 66.528 10.6707C66.2195 11.0698 65.994 11.5266 65.8647 12.0142C65.8647 12.0142 64.4164 17.0821 63.1227 17.8077C62.4799 18.1597 64.9418 19.1733 67.4971 19.9415C70.0525 20.7097 72.6771 21.1312 72.325 20.4883Z" fill="#FF9026"/>
<path d="M68.9429 15.0874C67.2172 14.5539 66.0916 13.7937 65.5048 13.1509C65.2994 13.775 65.0166 14.5726 64.7046 15.3354C64.8842 15.5377 65.0824 15.7225 65.2967 15.8876C66.1955 16.5587 67.206 17.0653 68.2815 17.3839V17.3839C69.3596 17.6926 70.4839 17.8082 71.6023 17.7254C71.8426 17.7025 72.0808 17.6605 72.3145 17.6C72.4505 16.7998 72.6399 15.9649 72.7999 15.3221C71.9544 15.5301 70.634 15.5408 68.9429 15.0874Z" fill="#E28037"/>
<path d="M72.6345 20.4166C72.6345 20.4166 72.4025 20.1712 72.1891 20.1898C72.2344 20.3712 72.2638 20.4566 72.2638 20.4566L72.1011 20.5073L72.0371 20.5259C71.637 20.6006 70.0979 20.4059 67.5906 19.6937C65.0833 18.9815 63.6883 18.288 63.3922 18.008C63.3756 17.9925 63.3604 17.9756 63.3469 17.9573L63.2375 17.8293C63.3091 17.7705 63.3777 17.7082 63.4429 17.6425C63.2885 17.5677 63.1122 17.5516 62.9468 17.5972C62.8543 17.6417 62.7775 17.7132 62.7266 17.8022C62.6756 17.8913 62.6529 17.9937 62.6614 18.096C62.6961 18.4081 62.9841 18.7281 64.2858 19.2829C65.3 19.703 66.3365 20.0672 67.3906 20.3739C68.443 20.6814 69.5115 20.9307 70.5914 21.1207C71.989 21.3528 72.4051 21.2354 72.5999 20.9927C72.6632 20.9115 72.7005 20.8129 72.7067 20.71C72.7129 20.6072 72.6877 20.5048 72.6345 20.4166V20.4166Z" fill="#E28037"/>
<path d="M71.5995 9.3712C71.5466 9.55419 71.4405 9.71735 71.2948 9.84006C71.1491 9.96277 70.9703 10.0395 70.781 10.0605C70.5916 10.0816 70.4003 10.046 70.2312 9.95829C70.0621 9.87058 69.9228 9.73468 69.831 9.56779C69.7391 9.4009 69.6989 9.21052 69.7152 9.02073C69.7316 8.83094 69.8039 8.65027 69.923 8.50159C70.0421 8.3529 70.2026 8.24288 70.3842 8.18544C70.5659 8.128 70.7604 8.12573 70.9434 8.1789C71.188 8.25075 71.3943 8.41643 71.5172 8.6398C71.6401 8.86317 71.6697 9.12609 71.5995 9.3712V9.3712Z" fill="#E28037"/>
<path d="M61.2263 11.9985C60.3353 13.9629 60.2397 16.1961 60.9595 18.2294" stroke="#3E3B47" stroke-width="0.5" stroke-miterlimit="10" stroke-linecap="round"/>
<path d="M76.5314 18.2319C77.2513 16.1985 77.1557 13.9654 76.2647 12.001" stroke="#3E3B47" stroke-width="0.5" stroke-miterlimit="10" stroke-linecap="round"/>
<path d="M59.047 10.8433C57.8346 13.4019 57.6784 16.335 58.6122 19.008" stroke="#3E3B47" stroke-width="0.5" stroke-miterlimit="10" stroke-linecap="round"/>
<path d="M78.8814 19.008C79.8162 16.3349 79.659 13.4011 78.444 10.8433" stroke="#3E3B47" stroke-width="0.5" stroke-miterlimit="10" stroke-linecap="round"/>
<path d="M34.7262 44.3477C34.5877 44.2751 34.4659 44.1742 34.3688 44.0516C34.299 43.9612 34.2556 43.8531 34.2434 43.7395C34.2329 43.6377 34.2486 43.5349 34.2888 43.4408C34.3289 43.3462 34.3868 43.2601 34.4595 43.1874L35.3477 43.3581C35.2998 43.3982 35.262 43.4491 35.2375 43.5066C35.2129 43.5641 35.2022 43.6265 35.2063 43.6889C35.218 43.7464 35.2428 43.8005 35.2789 43.8467C35.315 43.893 35.3614 43.9303 35.4144 43.9556C35.6297 44.0716 35.8762 44.1164 36.1186 44.0836C36.4103 44.0556 36.6924 43.9646 36.9454 43.8169L37.1455 43.7022L37.1082 43.6782C36.9145 43.7075 36.7176 43.7075 36.524 43.6782C36.3362 43.6539 36.155 43.5932 35.9905 43.4995C35.8647 43.4327 35.7609 43.3307 35.6918 43.2061C35.6318 43.0912 35.6157 42.9585 35.6465 42.8327C35.6906 42.673 35.773 42.5265 35.8865 42.4059C36.0404 42.2411 36.2207 42.1032 36.42 41.9978C36.6451 41.8693 36.8852 41.769 37.1348 41.699C37.3704 41.6299 37.6128 41.586 37.8577 41.5683C38.074 41.5485 38.2919 41.5575 38.5058 41.595C38.6853 41.6214 38.8586 41.6791 39.018 41.7657C39.1511 41.8312 39.2596 41.9378 39.3274 42.0698C39.3517 42.1225 39.3644 42.1798 39.3644 42.2378C39.3644 42.2959 39.3517 42.3532 39.3274 42.4059L39.3647 42.4299L39.6795 42.2485L40.2716 42.5899L37.5723 44.137C37.3343 44.2729 37.0821 44.382 36.8201 44.4624C36.5767 44.539 36.3251 44.5865 36.0706 44.6038C35.836 44.6216 35.6001 44.6081 35.3691 44.5637C35.1441 44.5288 34.9267 44.4557 34.7262 44.3477V44.3477ZM36.8254 43.1714C36.9086 43.2186 36.9986 43.2528 37.0922 43.2728C37.2082 43.2946 37.3263 43.3026 37.4442 43.2968C37.5752 43.2904 37.705 43.269 37.831 43.2328C37.9687 43.1935 38.1012 43.138 38.2258 43.0674C38.3344 43.0082 38.4326 42.9316 38.5165 42.8407C38.5743 42.7777 38.6139 42.7003 38.6312 42.6166C38.6434 42.5464 38.6291 42.4742 38.5912 42.4139C38.5461 42.3483 38.4868 42.2936 38.4178 42.2538C38.3344 42.2083 38.2444 42.1759 38.1511 42.1578C38.0353 42.1345 37.9169 42.1264 37.799 42.1338C37.6672 42.1424 37.5367 42.1647 37.4096 42.2005C37.2727 42.2397 37.1411 42.2953 37.0175 42.3659C36.9079 42.4237 36.8095 42.5004 36.7267 42.5926C36.6693 42.6544 36.6305 42.7311 36.6147 42.814C36.6034 42.8833 36.6176 42.9544 36.6547 43.014C36.6972 43.0803 36.756 43.1344 36.8254 43.1714V43.1714Z" fill="#FF9000"/>
<path d="M41.9361 43.4731C42.0914 43.5534 42.2223 43.6741 42.3149 43.8225C42.3866 43.9457 42.4103 44.091 42.3815 44.2306C42.3444 44.3913 42.2642 44.5389 42.1495 44.6574C41.9949 44.822 41.8147 44.9607 41.616 45.0681C41.3905 45.1972 41.1506 45.2992 40.9012 45.3722C40.6576 45.443 40.4073 45.4877 40.1543 45.5056C39.918 45.5221 39.6805 45.5086 39.4475 45.4656C39.2328 45.4285 39.0261 45.3545 38.8367 45.2469C38.6805 45.1664 38.5495 45.0446 38.4579 44.8948C38.3852 44.7729 38.3605 44.6284 38.3885 44.4893C38.4279 44.3289 38.5088 44.1817 38.6233 44.0626C38.7766 43.8965 38.957 43.7576 39.1567 43.6518C39.3815 43.5212 39.6216 43.419 39.8716 43.3477C40.1138 43.2754 40.3635 43.2307 40.6158 43.2143C40.853 43.1978 41.0914 43.2113 41.3253 43.2544C41.5397 43.2923 41.7463 43.3663 41.9361 43.4731V43.4731ZM39.5568 44.8361C39.6457 44.8849 39.7422 44.9183 39.8422 44.9348C39.9609 44.957 40.0819 44.9641 40.2023 44.9561C40.3362 44.947 40.4686 44.9228 40.5971 44.8841C40.7368 44.8421 40.8711 44.7839 40.9972 44.7107C41.1096 44.6514 41.2114 44.5739 41.2986 44.4813C41.3606 44.4188 41.404 44.3403 41.424 44.2546C41.439 44.1845 41.4276 44.1114 41.392 44.0492C41.3493 43.9801 41.2896 43.9231 41.2186 43.8838C41.1289 43.8342 41.0315 43.7999 40.9305 43.7825C40.8126 43.7612 40.6925 43.755 40.5731 43.7638C40.4383 43.7729 40.305 43.7971 40.1757 43.8358C40.036 43.8778 39.9017 43.936 39.7756 44.0092C39.6639 44.0685 39.5629 44.146 39.4768 44.2386C39.4148 44.3011 39.3714 44.3796 39.3515 44.4653C39.3354 44.5351 39.3458 44.6083 39.3808 44.6707C39.4241 44.7395 39.4848 44.7956 39.5568 44.8334V44.8361Z" fill="#FF9000"/>
<path d="M45.8758 44.3052L46.604 44.7266L43.6219 47.8927L42.915 47.4873L43.6512 46.7458L42.3442 45.9936L41.0586 46.407L40.3544 46.0016L45.8758 44.3052ZM44.1874 46.2043L44.9555 45.4201L45.3503 45.0547L45.313 45.0334L44.6728 45.2574L43.3071 45.6922L44.1874 46.2043Z" fill="#F4EDE8"/>
<path d="M43.5978 49.4558C43.4581 49.3838 43.3361 49.2818 43.2404 49.1571C43.1715 49.0669 43.1273 48.9602 43.1124 48.8477C43.1032 48.7459 43.1188 48.6434 43.1577 48.5489C43.1969 48.4499 43.2549 48.3593 43.3284 48.2822L44.2193 48.4529C44.1711 48.4928 44.1331 48.5436 44.1085 48.6011C44.0839 48.6587 44.0734 48.7213 44.078 48.7837C44.0892 48.8414 44.1139 48.8956 44.15 48.942C44.1862 48.9883 44.2328 49.0255 44.286 49.0504C44.5001 49.1671 44.7457 49.2129 44.9875 49.1811C45.279 49.1522 45.5609 49.0612 45.8144 48.9144L46.0224 48.8077L45.9851 48.7863C45.7906 48.8156 45.5928 48.8156 45.3983 48.7863C45.2104 48.7628 45.029 48.7021 44.8648 48.6076C44.7395 48.5401 44.6359 48.4383 44.5661 48.3142C44.5047 48.1998 44.4885 48.0666 44.5207 47.9408C44.5618 47.7867 44.6396 47.6448 44.7475 47.5274C44.9007 47.3619 45.0811 47.2239 45.2809 47.1193C45.506 46.99 45.7461 46.8887 45.9958 46.8179C46.2311 46.7512 46.4722 46.7075 46.7159 46.6872C46.9332 46.67 47.1517 46.679 47.3668 46.7138C47.5463 46.7414 47.7196 46.8001 47.8789 46.8872C48.0114 46.9527 48.119 47.0594 48.1856 47.1913C48.2106 47.2438 48.2235 47.3012 48.2235 47.3593C48.2235 47.4174 48.2106 47.4748 48.1856 47.5274L48.2257 47.5487L48.5404 47.37L49.1299 47.7087L46.4305 49.2558C46.1939 49.3931 45.9425 49.5032 45.681 49.5839C45.4374 49.6593 45.1859 49.7067 44.9315 49.7252C44.6968 49.7423 44.4609 49.728 44.23 49.6826C44.0074 49.6454 43.7933 49.5686 43.5978 49.4558V49.4558ZM45.697 48.2796C45.7804 48.3258 45.8704 48.3591 45.9638 48.3782C46.0795 48.4023 46.1978 48.4113 46.3158 48.4049C46.4467 48.3961 46.5763 48.3738 46.7026 48.3382C46.8403 48.3013 46.9722 48.2457 47.0947 48.1729C47.2052 48.1154 47.3046 48.0386 47.3881 47.9461C47.4458 47.8831 47.4854 47.8057 47.5028 47.7221C47.5092 47.6876 47.5087 47.6521 47.5014 47.6178C47.4941 47.5835 47.4801 47.5509 47.4601 47.522C47.4183 47.4546 47.3594 47.3994 47.2894 47.362C47.206 47.3159 47.1161 47.2826 47.0227 47.2633C46.9067 47.2411 46.7884 47.2339 46.6706 47.242C46.5379 47.2505 46.4065 47.2729 46.2785 47.3086C46.1413 47.3467 46.0095 47.4023 45.8864 47.474C45.7782 47.5316 45.6808 47.6074 45.5983 47.6981C45.5416 47.7617 45.5021 47.8389 45.4836 47.9221C45.4724 47.9915 45.4866 48.0625 45.5237 48.1222C45.5678 48.1866 45.6274 48.2388 45.697 48.2742V48.2796Z" fill="#F4EDE8"/>
<path d="M52.448 50.0665L52.4854 50.0878C52.6963 50.0477 52.9118 50.0378 53.1255 50.0585C53.3187 50.0759 53.506 50.1341 53.675 50.2292C53.7955 50.2894 53.8971 50.3817 53.9684 50.4959C53.9941 50.5414 54.0094 50.5921 54.0131 50.6442C54.0167 50.6964 54.0088 50.7487 53.9897 50.7973C53.9392 50.9204 53.8596 51.0293 53.7577 51.1147C53.6204 51.2394 53.4691 51.3477 53.3069 51.4375L51.5438 52.4484L50.925 52.091L52.5921 51.1361C52.8001 51.0161 52.9175 50.904 52.9442 50.8027C52.9708 50.7013 52.9148 50.6133 52.7734 50.5359C52.683 50.4856 52.5831 50.4547 52.48 50.4452C52.364 50.4307 52.2466 50.4307 52.1306 50.4452C52.0016 50.4653 51.8748 50.4974 51.7519 50.5413C51.6237 50.5878 51.4997 50.6449 51.3811 50.712L49.9567 51.5282L49.3379 51.1708L52.2453 49.5063L52.8268 49.8424L52.448 50.0665Z" fill="#F4EDE8"/>
<path d="M54.1337 53.5395L54.0937 53.5155C53.9035 53.5553 53.7082 53.5652 53.5149 53.5448C53.312 53.5265 53.1155 53.4646 52.9387 53.3634C52.8065 53.2939 52.6993 53.1848 52.632 53.0513C52.5751 52.9306 52.5629 52.7936 52.5973 52.6646C52.6435 52.5062 52.7278 52.3615 52.8427 52.2431C52.9984 52.0804 53.1784 51.9427 53.3762 51.835C53.6008 51.706 53.8398 51.604 54.0884 51.531C54.3272 51.4579 54.573 51.4106 54.8219 51.3896C55.0469 51.3695 55.2734 51.3767 55.4967 51.4109C55.6838 51.4364 55.8647 51.4961 56.0302 51.587C56.1736 51.6534 56.2855 51.7729 56.3423 51.9204C56.3599 51.9756 56.3647 52.034 56.3564 52.0913C56.3481 52.1486 56.3268 52.2033 56.2942 52.2511L56.3316 52.2725L56.7103 52.0058L57.9853 51.2749L58.6041 51.6323L54.3578 54.0676L53.7736 53.7315L54.1337 53.5395ZM53.7843 53.0247C53.8748 53.0752 53.973 53.1104 54.075 53.1287C54.1938 53.15 54.3148 53.1562 54.4351 53.1474C54.5671 53.1372 54.6976 53.1131 54.8245 53.0754C54.9644 53.0364 55.0989 52.9799 55.2246 52.9073C55.3364 52.847 55.4373 52.7686 55.5234 52.6753C55.5848 52.6117 55.6273 52.5323 55.6461 52.4459C55.6548 52.4112 55.6564 52.3752 55.6509 52.3399C55.6454 52.3046 55.6329 52.2708 55.6141 52.2405C55.5702 52.1698 55.5086 52.1118 55.4354 52.0724C55.3438 52.0227 55.2447 51.9885 55.142 51.9711C55.022 51.952 54.9003 51.9466 54.7792 51.9551C54.6447 51.9646 54.5115 51.9878 54.3818 52.0244C54.2432 52.0648 54.1098 52.1211 53.9843 52.1925C53.875 52.2506 53.7766 52.3273 53.6936 52.4192C53.6334 52.4841 53.5903 52.5629 53.5682 52.6486C53.5547 52.7195 53.566 52.793 53.6002 52.8566C53.6449 52.9286 53.7086 52.9867 53.7843 53.0247Z" fill="#F4EDE8"/>
<path d="M56.6091 55.0119L56.5718 54.9906C56.39 55.0092 56.2068 55.0092 56.025 54.9906C55.8438 54.9772 55.6679 54.9234 55.5102 54.8332C55.4034 54.7768 55.3119 54.6954 55.2435 54.5958C55.1916 54.5169 55.1664 54.4234 55.1714 54.3291C55.1839 54.2218 55.2296 54.1211 55.3021 54.041C55.3979 53.9333 55.5116 53.8431 55.6382 53.7743C55.788 53.689 55.9486 53.6244 56.1157 53.5822C56.2827 53.5424 56.4535 53.521 56.6251 53.5182C56.7933 53.5181 56.9608 53.5387 57.1239 53.5796C57.2799 53.6173 57.4298 53.6765 57.5694 53.7556C57.6906 53.8205 57.8019 53.9022 57.9001 53.9984C57.956 54.0564 58.0061 54.1198 58.0495 54.1877L58.1375 54.1371C58.2001 54.1114 58.2549 54.0698 58.2965 54.0165C58.3381 53.9632 58.3652 53.8999 58.3749 53.833C58.3749 53.721 58.3056 53.6223 58.1615 53.5369C57.8871 53.4051 57.5782 53.3631 57.2786 53.4169L57.2146 52.9368C57.7608 52.8393 58.3239 52.9266 58.815 53.1848C59.1707 53.3929 59.3387 53.6116 59.3191 53.841C59.2978 54.0704 59.0791 54.3051 58.663 54.5425L56.9185 55.5427L56.3077 55.1906L56.6091 55.0119ZM57.4814 54.5131C57.451 54.4444 57.4105 54.3806 57.3613 54.3238C57.2987 54.2567 57.2257 54.1999 57.1453 54.1557C57.0049 54.0721 56.8445 54.0279 56.6812 54.0277C56.5343 54.0244 56.389 54.0593 56.2597 54.1291C56.1424 54.1984 56.0863 54.2758 56.0917 54.3611C56.0973 54.4076 56.115 54.4518 56.1431 54.4892C56.1712 54.5267 56.2087 54.5561 56.2517 54.5745C56.3403 54.6239 56.4369 54.6574 56.5371 54.6732C56.6446 54.6914 56.7537 54.6977 56.8625 54.6919C56.9737 54.684 57.0836 54.6643 57.1906 54.6332C57.2957 54.6059 57.3969 54.5656 57.492 54.5131H57.4814Z" fill="#F4EDE8"/>
<path d="M49.5194 50.3463L49.4714 50.1223V50.0983H49.4261C49.2837 50.1168 49.1402 50.1257 48.9966 50.1249C48.851 50.1309 48.7058 50.1054 48.5709 50.0502C48.4361 49.9949 48.3147 49.9113 48.2151 49.8048C48.1781 49.7458 48.16 49.6768 48.1634 49.6072C48.1667 49.5376 48.1913 49.4707 48.2338 49.4154L49.4474 49.6581L50.7384 49.9249H50.7811L50.8051 49.8982C51.0291 49.6715 51.3625 49.2314 51.1011 48.8313C50.8717 48.4845 50.2529 48.2631 49.5648 48.2791C49.0492 48.2931 48.5433 48.4225 48.0844 48.6579C47.9036 48.7348 47.7397 48.8468 47.6024 48.9873C47.4651 49.1279 47.3569 49.2942 47.2842 49.4768C47.1855 49.8022 47.3642 50.1329 47.7456 50.3516C47.7982 50.3815 47.8526 50.4082 47.9083 50.4317C48.4238 50.6376 48.987 50.6931 49.5327 50.5917H49.5861V50.565C49.5514 50.4957 49.5354 50.421 49.5194 50.3463ZM48.7032 49.0126C48.8785 48.9208 49.0678 48.8587 49.2633 48.8286V48.8286C49.5584 48.774 49.8631 48.8122 50.1356 48.938C50.165 48.9547 50.1927 48.9744 50.2182 48.9966C50.2456 49.0145 50.2692 49.0375 50.2877 49.0645C50.3061 49.0914 50.319 49.1218 50.3257 49.1537C50.3324 49.1857 50.3327 49.2187 50.3267 49.2508C50.3206 49.2829 50.3082 49.3134 50.2903 49.3407L48.7032 49.0126Z" fill="#F4EDE8"/>
<path d="M60.6927 43.1103L60.0552 42.7422L60.4207 42.5341C60.6741 42.3874 60.7141 42.1767 60.5114 42.0593C60.3789 42.0034 60.2351 41.9791 60.0916 41.9883C59.9481 41.9976 59.8087 42.0402 59.6845 42.1127L59.3217 42.3207L57.9134 41.5205L58.2788 41.3125C58.5322 41.1684 58.5749 40.9551 58.3722 40.8377C58.2397 40.7817 58.0959 40.7574 57.9524 40.7667C57.8089 40.7759 57.6695 40.8185 57.5453 40.891L57.1799 41.0991L56.545 40.7337C56.3741 40.6618 56.1888 40.6304 56.0038 40.642C55.8187 40.6536 55.6388 40.7078 55.4781 40.8004L50.4342 43.6917C50.1061 43.8785 50.0528 44.1505 50.3142 44.3026L54.4619 46.7032C54.6328 46.775 54.8181 46.8064 55.0031 46.7948C55.1882 46.7833 55.3681 46.7291 55.5288 46.6365L60.5727 43.7451C60.9061 43.5344 60.9595 43.2596 60.6927 43.1103ZM59.8925 42.222C59.952 42.1877 60.0186 42.1677 60.0871 42.1635C60.1556 42.1594 60.2241 42.1712 60.2873 42.198C60.386 42.2514 60.3647 42.3554 60.2446 42.4248L59.8792 42.6328L59.6391 42.7715L59.4284 42.8889C59.3692 42.9236 59.3027 42.9441 59.2342 42.9488C59.1657 42.9534 59.097 42.942 59.0337 42.9156C58.9376 42.8595 58.959 42.7582 59.079 42.6888L59.2871 42.5688L59.5271 42.4301L59.8925 42.222ZM57.7587 40.9897C57.8181 40.9554 57.8847 40.9354 57.9532 40.9312C58.0217 40.927 58.0903 40.9389 58.1534 40.9657C58.2495 41.0217 58.2308 41.1231 58.1081 41.1925L57.7427 41.4005L57.5026 41.5392L57.2946 41.6592C57.2351 41.6936 57.1685 41.7136 57.1 41.7178C57.0315 41.7219 56.963 41.7101 56.8998 41.6832C56.8038 41.6272 56.8224 41.5259 56.9451 41.4565L57.1532 41.3365L57.3932 41.1978L57.7587 40.9897ZM56.3236 40.859L56.9611 41.2271L56.7531 41.3472C56.4997 41.4912 56.457 41.7046 56.6597 41.8219C56.7925 41.8767 56.936 41.9004 57.0794 41.8911C57.2227 41.8819 57.362 41.84 57.4866 41.7686L57.6947 41.6486L59.1003 42.4488L58.8923 42.5661C58.6389 42.7128 58.5962 42.9262 58.7989 43.0409C58.9314 43.0967 59.0749 43.1211 59.2183 43.1123C59.3617 43.1035 59.5012 43.0617 59.6258 42.9902L59.8365 42.8702L60.474 43.2383C60.6287 43.3263 60.5967 43.489 60.4047 43.6011L59.7885 43.9531L55.0647 41.2511L55.6782 40.8991C55.773 40.8447 55.8791 40.8128 55.9882 40.8059C56.0974 40.7989 56.2066 40.8171 56.3076 40.859H56.3236ZM54.7232 46.5431L50.5729 44.1425C50.4182 44.0545 50.4502 43.8918 50.6449 43.7798L54.8353 41.3792L59.5431 44.0892L55.3527 46.4898C55.2576 46.548 55.1501 46.5831 55.039 46.5924C54.9278 46.6017 54.816 46.5848 54.7126 46.5431H54.7232Z" fill="#FF9000"/>
<path d="M51.4959 44.1743C51.2665 44.0409 51.3119 43.7982 51.6026 43.6408H51.616C51.7582 43.5591 51.9174 43.5113 52.0812 43.5011C52.245 43.4909 52.4089 43.5186 52.5602 43.5821C52.7896 43.7155 52.7442 43.9582 52.4535 44.1156H52.4402C52.2979 44.1973 52.1387 44.2451 51.9749 44.2553C51.8111 44.2655 51.6472 44.2377 51.4959 44.1743V44.1743Z" fill="#F4EDE8"/>
<path d="M52.5494 44.7798C52.3173 44.6491 52.3653 44.4064 52.656 44.2463C52.7981 44.1642 52.9572 44.1159 53.121 44.1053C53.2848 44.0946 53.4488 44.1219 53.6003 44.185V44.185C53.8323 44.3184 53.7843 44.5611 53.4936 44.7185C53.3515 44.8006 53.1924 44.8489 53.0286 44.8595C52.8649 44.8702 52.7009 44.8429 52.5494 44.7798Z" fill="#F4EDE8"/>
<path d="M53.603 45.3882C53.3709 45.2548 53.419 45.0121 53.707 44.8547H53.7204C53.8624 44.7726 54.0215 44.7243 54.1853 44.7137C54.3491 44.703 54.5131 44.7303 54.6646 44.7934C54.8967 44.9268 54.8486 45.1695 54.5579 45.3269H54.5446C54.4033 45.4098 54.2445 45.4585 54.0811 45.4691C53.9176 45.4798 53.7539 45.4521 53.603 45.3882V45.3882Z" fill="#F4EDE8"/>
<path d="M54.6538 45.9936C54.4218 45.8602 54.4698 45.6175 54.7605 45.4601H54.7739C54.9162 45.3784 55.0754 45.3306 55.2391 45.3204C55.4029 45.3102 55.5668 45.338 55.7181 45.4015C55.9475 45.5348 55.8995 45.7749 55.6114 45.9349C55.4675 46.0188 55.3059 46.0678 55.1396 46.078C54.9733 46.0881 54.807 46.0593 54.6538 45.9936V45.9936Z" fill="#F4EDE8"/>
<path d="M52.8215 43.4167C52.5895 43.2834 52.6375 43.0406 52.9282 42.8833H52.9416C53.0829 42.8004 53.2416 42.7516 53.4051 42.741C53.5686 42.7303 53.7323 42.7581 53.8831 42.8219V42.8219C54.1152 42.9553 54.0672 43.198 53.7791 43.3554H53.7658C53.6237 43.4376 53.4646 43.4858 53.3008 43.4965C53.1371 43.5071 52.973 43.4798 52.8215 43.4167Z" fill="#F4EDE8"/>
<path d="M53.8752 44.0224C53.6431 43.889 53.6911 43.6463 53.9792 43.4889C54.1215 43.4072 54.2807 43.3594 54.4445 43.3492C54.6082 43.339 54.7721 43.3668 54.9234 43.4303C55.1555 43.561 55.1075 43.8037 54.8168 43.9637H54.8034C54.6636 44.0441 54.5071 44.0912 54.3461 44.1013C54.1852 44.1115 54.024 44.0845 53.8752 44.0224V44.0224Z" fill="#F4EDE8"/>
<path d="M54.926 44.6279C54.6966 44.4945 54.742 44.2518 55.0327 44.0944H55.0461C55.1883 44.0127 55.3476 43.9649 55.5113 43.9547C55.6751 43.9445 55.839 43.9722 55.9903 44.0357V44.0357C56.2197 44.1691 56.1743 44.4118 55.8836 44.5692H55.8703C55.728 44.6509 55.5688 44.6987 55.405 44.7089C55.2412 44.7191 55.0773 44.6914 54.926 44.6279Z" fill="#F4EDE8"/>
<path d="M57.2252 44.8625C57.2439 44.8625 57.2412 44.8891 57.2252 44.9025L56.4837 45.3292C56.4724 45.3345 56.4601 45.3372 56.4477 45.3372C56.4352 45.3372 56.4229 45.3345 56.4117 45.3292L55.8302 44.9958C55.8115 44.9958 55.8168 44.9665 55.8302 44.9531L56.5584 44.5397C56.5695 44.5339 56.5818 44.5308 56.5944 44.5308C56.6069 44.5308 56.6193 44.5339 56.6304 44.5397L57.2119 44.8758L57.2252 44.8625ZM57.3319 44.8064L56.7504 44.4704C56.7042 44.4511 56.6542 44.4428 56.6042 44.446C56.5542 44.4492 56.5057 44.464 56.4623 44.489L55.7208 44.9131C55.6328 44.9638 55.6168 45.0385 55.6888 45.0785L56.2703 45.4146C56.3165 45.4338 56.3665 45.4422 56.4165 45.4389C56.4665 45.4357 56.515 45.421 56.5584 45.3959L57.2999 44.9718C57.3879 44.9211 57.4039 44.8464 57.3319 44.8064Z" fill="#FF9000"/>
<path d="M55.1981 43.2622C54.9687 43.1288 55.014 42.8861 55.3048 42.7287C55.447 42.647 55.6063 42.5991 55.77 42.589C55.9338 42.5788 56.0977 42.6065 56.249 42.67V42.67C56.4784 42.8034 56.433 43.0461 56.1423 43.2035H56.129C55.9884 43.2831 55.8315 43.3298 55.6703 43.3399C55.509 43.3501 55.3476 43.3235 55.1981 43.2622V43.2622Z" fill="#F4EDE8"/>
<path d="M56.2517 43.8676C56.0196 43.7343 56.0676 43.4915 56.3583 43.3342C56.5006 43.2524 56.6598 43.2046 56.8236 43.1944C56.9874 43.1843 57.1513 43.212 57.3026 43.2755V43.2755C57.5346 43.4088 57.4866 43.6516 57.1986 43.8089H57.1852C57.0443 43.889 56.887 43.9359 56.7252 43.946C56.5635 43.9562 56.4015 43.9294 56.2517 43.8676Z" fill="#F4EDE8"/>
<path d="M57.3053 44.4756C57.0732 44.3422 57.1213 44.0995 57.4093 43.9421H57.4227C57.5647 43.86 57.7238 43.8117 57.8876 43.8011C58.0514 43.7904 58.2154 43.8177 58.3669 43.8808C58.599 44.0142 58.5509 44.2569 58.2602 44.4143C58.1168 44.4981 57.9558 44.5473 57.79 44.558C57.6242 44.5686 57.4583 44.5404 57.3053 44.4756V44.4756Z" fill="#F4EDE8"/>
</svg>
