<svg width="238" height="70" viewBox="0 0 238 70" fill="none" xmlns="http://www.w3.org/2000/svg">
<g clip-path="url(#clip0)">
<path d="M158.909 0C159.674 0.599462 159.861 1.14754 159.589 2.12381C159.232 3.39124 158.671 4.60729 158.093 5.78909C156.955 8.1013 156.683 10.6019 156.564 13.1196C156.513 14.2672 156.938 15.3462 157.192 16.4595C157.583 18.1894 157.94 19.9193 157.855 21.7176C157.821 22.3685 157.719 23.0193 157.872 23.6702C157.957 24.0127 158.076 24.321 158.195 24.6464C158.467 25.2973 158.756 25.9653 158.739 26.6504C158.722 27.952 159.232 29.2023 158.943 30.5212C158.841 31.0007 159.045 31.4803 159.419 31.8229C159.912 32.2682 160.014 32.8162 159.895 33.4328C159.793 33.998 159.691 34.5632 159.589 35.1285C159.487 35.6594 159.47 36.1732 159.657 36.6871C159.895 37.3722 159.912 38.0573 159.742 38.7595C159.521 39.7015 159.266 40.6264 158.858 41.4999C158.365 42.596 158.416 43.6237 159.079 44.6342C159.674 45.542 159.793 46.5525 159.572 47.5801C159.368 48.5735 159.555 49.4128 160.252 50.1664C161.118 51.0913 161.152 52.2217 160.745 53.3521C160.32 54.5339 160.473 55.63 161.135 56.6406C161.883 57.7881 162.308 59.0213 162.206 60.4257C162.189 60.7512 162.308 61.0595 162.359 61.3849C162.444 61.7959 162.427 62.1556 162.019 62.3954C161.628 62.6352 161.305 62.4639 161.016 62.1899C160.847 62.0357 160.745 61.9672 160.507 62.1214C159.929 62.481 159.351 62.1556 159.351 61.4363C159.351 60.9053 159.402 60.3744 159.47 59.8605C159.521 59.381 159.385 59.0042 158.96 58.7472C158.892 58.713 158.841 58.6616 158.773 58.6273C157.515 57.8737 156.768 56.8461 157.006 55.2875C157.074 54.8251 156.955 54.5339 156.496 54.2941C155.765 53.9173 155.578 53.1979 155.646 52.4272C155.714 51.6222 155.833 50.8172 156.037 50.0294C156.224 49.2929 156.088 48.6763 155.595 48.0768C154.32 46.5011 153.708 44.6856 153.691 42.6474C153.691 42.2364 153.708 41.8082 153.725 41.38C153.742 40.3181 153.674 39.2904 153.3 38.2628C152.672 36.4987 152.774 34.6831 153.351 32.9019C153.674 31.9256 153.963 30.9494 154.286 29.9731C154.575 29.0996 154.371 28.3974 153.691 27.9007C152.808 27.2327 152.451 26.3934 152.485 25.3315C152.485 25.2288 152.468 25.1089 152.451 25.0061C152.451 24.989 152.417 24.9719 152.349 24.9205C152.009 25.7255 151.856 26.5476 151.737 27.3868C151.601 28.2775 151.72 29.151 151.839 30.0245C152.077 31.7543 151.499 33.2787 150.36 34.529C149.442 35.5395 149.018 36.6528 148.95 37.9716C148.899 38.7937 148.831 39.6159 148.797 40.438C148.763 41.0546 148.542 41.6198 148.253 42.1507C147.505 43.5209 147.148 44.9768 147.216 46.5354C147.25 47.1006 147.233 47.6486 147.114 48.2138C146.995 48.7791 146.689 49.173 146.111 49.31C145.534 49.4299 145.126 49.173 144.786 48.7277C144.123 47.8542 143.987 46.7923 143.851 45.7475C143.834 45.6619 143.834 45.5591 143.834 45.4734C143.834 44.6856 143.562 44.206 142.695 44.0176C141.727 43.795 141.421 42.9728 141.387 42.048C141.37 41.791 141.421 41.517 141.421 41.2601C141.472 40.4551 141.472 39.6672 141.217 38.8622C141.013 38.2628 140.996 37.6119 140.894 36.9782C140.843 36.6528 140.792 36.3274 140.639 36.0362C139.806 34.4947 139.5 32.8334 139.33 31.1206C139.245 30.2985 138.956 29.6305 138.157 29.2537C137.767 29.0653 137.631 28.6714 137.546 28.2603C137.461 27.8321 137.274 27.4725 136.9 27.2156C136.152 26.7189 135.88 25.9995 135.931 25.126C135.982 24.3553 136.033 23.5674 136.084 22.7967C136.101 22.5055 136.084 22.2143 135.999 21.906C135.761 22.0088 135.659 22.1972 135.591 22.3685C134.962 23.8243 134.537 25.3487 134.299 26.9244C134.214 27.5067 134.299 28.1062 134.503 28.6714C134.945 29.8874 134.979 31.1378 134.673 32.3881C134.197 34.3406 133.977 36.3274 133.722 38.3142C133.603 39.1705 133.382 40.0269 133.195 40.8662C133.042 41.6026 133.076 42.322 133.212 43.0413C133.433 44.2917 133.093 45.3193 132.141 46.1928C131.206 47.0321 130.764 48.1796 130.577 49.3956C130.458 50.1664 130.764 50.9029 130.883 51.6393C131.104 53.0095 131.053 54.3284 130.492 55.6129C130.034 56.6406 129.762 57.7196 129.626 58.8329C129.541 59.5522 129.201 60.1688 128.742 60.6998C128.3 61.2136 127.637 61.1108 127.348 60.4943C127.178 60.1346 127.127 59.7578 127.127 59.3638C127.144 57.908 127.127 56.435 127.144 54.9792C127.144 54.551 127.11 54.1399 126.94 53.746C126.566 52.9239 126.6 52.0675 126.889 51.2454C127.382 49.8581 127.263 48.5393 126.719 47.2033C126.074 45.6619 125.836 44.069 126.295 42.4248C126.515 41.6369 126.855 40.8833 127.416 40.301C129.167 38.5197 129.32 36.3274 129.218 34.0152C129.167 32.8848 128.844 31.8057 128.759 30.6924C128.657 29.2709 128.776 27.8835 129.32 26.5305C130.288 24.0641 130.832 21.4779 131.393 18.9087C131.682 17.5728 132.124 16.2882 132.6 15.0037C132.668 14.8153 132.787 14.644 132.923 14.4898C133.467 13.8219 133.943 13.9075 134.231 14.7125C134.282 14.8495 134.299 14.9865 134.503 14.9352C135.132 14.781 135.455 15.1236 135.642 15.6716C135.659 15.723 135.659 15.7915 135.846 15.8258C136.016 14.4385 136.934 13.4451 137.682 12.3318C137.953 11.9207 138.038 11.4069 138.123 10.9273C138.276 10.1223 138.565 9.38586 139.041 8.70076C139.5 8.03279 139.925 7.34769 140.401 6.69684C140.741 6.20015 141.149 6.11451 141.659 6.35429C142.185 6.61121 142.406 7.02227 142.27 7.57034C141.947 9.00905 141.574 10.4306 141.064 11.818C140.673 12.9141 140.571 14.0617 140.503 15.2092C140.486 15.6031 140.741 15.9114 141.013 16.1683C141.659 16.7335 141.947 17.4186 141.862 18.275C141.794 19.0286 141.777 19.7994 141.744 20.553C141.727 20.8955 141.76 21.2552 141.964 21.5292C142.644 22.4199 142.678 23.4304 142.542 24.458C142.491 24.8006 142.525 25.0404 142.848 25.2459C143.324 25.5371 143.511 25.9995 143.477 26.5647C143.341 29.2023 143.528 31.8229 143.817 34.4262C143.868 34.9058 143.97 35.3854 144.225 35.7964C144.293 35.9163 144.344 36.139 144.531 36.1047C144.684 36.0705 144.718 35.8649 144.735 35.7108C144.803 35.0942 144.854 34.4776 144.922 33.861C145.126 31.9941 145.143 30.1101 145.483 28.2603C145.669 27.2327 146.009 26.2564 146.332 25.263C146.502 24.7663 146.723 24.2868 147.08 23.9442C148.389 22.6768 148.933 21.0668 149.375 19.354C149.816 17.5899 150.054 15.7915 150.649 14.0617C151.04 12.897 151.635 11.8865 152.451 10.9958C153.436 9.93394 153.929 8.6665 153.997 7.24492C154.048 6.046 154.354 5.00122 155.204 4.11059C155.85 3.44262 156.309 2.6205 156.785 1.81551C157.192 1.11329 157.668 0.479569 158.365 0.0171275C158.603 0 158.756 0 158.909 0Z" fill="white"/>
<path d="M237.344 31.6345C235.678 33.6042 233.826 35.3854 231.565 36.6871C230.97 37.0296 230.41 37.4065 229.9 37.8518C229.186 38.5026 228.387 39.0336 227.469 39.3761C226.603 39.7015 225.991 40.2496 225.566 41.106C224.767 42.6817 223.509 43.7607 221.793 44.2746C220.11 44.7713 218.836 45.7647 218.037 47.3575C217.748 47.9227 217.306 48.3509 216.796 48.7106C215.623 49.4985 214.468 50.3034 213.295 51.0742C212.292 51.725 211.595 52.5814 211.289 53.7632C211.136 54.3455 210.729 54.7908 210.338 55.2362C209.539 56.1439 208.655 57.0003 208.128 58.0964C207.533 59.3468 206.786 60.4087 205.647 61.265C204.78 61.9159 204.032 62.7209 203.319 63.543C202.299 64.7248 201.058 65.4441 199.528 65.6839C197.744 65.958 196.231 66.7458 194.94 68.0133C194.396 68.5442 193.784 69.0066 193.206 69.5033C192.968 69.7089 192.713 69.8801 192.407 69.9658C191.643 70.2056 190.963 69.6061 191.15 68.8354C191.286 68.2873 191.507 67.7563 191.897 67.3624C193.24 66.0265 194.6 64.7248 196.231 63.7485C196.571 63.543 196.928 63.3546 197.302 63.2176C198.169 62.875 198.832 62.2755 199.274 61.4706C199.732 60.6142 200.31 59.8948 201.245 59.518C201.432 59.4495 201.534 59.2954 201.602 59.107C201.806 58.5931 202.163 58.2163 202.554 57.8738C203.404 57.1373 204.236 56.418 205.069 55.6643C205.681 55.1163 205.698 54.8765 205.273 54.1743C204.729 53.2836 204.763 52.9411 205.443 52.1361C206.276 51.1598 207.228 50.3377 208.383 49.7554C208.689 49.6012 208.774 49.4471 208.536 49.1388C208.094 48.5393 208.196 48.1454 208.893 47.8028C210.015 47.2548 211.187 46.7923 212.377 46.4326C213.312 46.1415 213.38 46.0216 213.21 45.0282C213.091 44.3431 213.21 43.658 213.414 43.0071C213.873 41.5513 214.281 40.0955 214.672 38.6225C214.757 38.3313 214.689 38.1943 214.434 38.0916C213.567 37.7147 213.21 37.0468 213.278 36.0876C213.363 34.7859 213.091 33.5528 212.513 32.3881C212.139 31.6002 212.003 30.7267 211.969 29.8532C211.969 29.7162 211.952 29.5792 211.969 29.4251C212.122 27.1814 211.765 24.9548 211.544 22.7282C211.476 22.0089 211.51 21.3751 212.309 21.1011C212.53 21.0155 212.445 20.8099 212.445 20.6558C212.411 19.337 212.36 18.0182 212.309 16.6993C212.309 16.4596 212.309 16.2369 212.326 15.9971C212.36 15.6888 212.513 15.449 212.802 15.3634C213.074 15.2606 213.278 15.4662 213.431 15.6717C213.805 16.1513 214.145 16.648 214.366 17.2132C214.842 18.4463 215.317 19.6795 215.793 20.8956C215.929 21.2381 215.929 21.5978 215.98 21.9403C216.099 22.7625 216.422 23.5161 216.711 24.2868C216.864 24.6979 217.051 25.0918 217.17 25.5029C217.306 25.9824 217.544 26.325 217.969 26.599C218.564 26.993 218.819 27.6095 218.819 28.3118C218.836 29.7505 218.87 31.2063 218.887 32.645C218.887 32.8334 218.852 33.0561 218.937 33.1931C219.566 34.0837 219.6 35.2655 220.28 36.1219C220.875 36.8926 221.198 37.6976 220.807 38.6739C220.773 38.7424 220.79 38.828 220.79 39.0164C221.64 37.9545 222.829 37.7661 223.934 37.3893C225.039 37.0125 226.212 36.6871 227.18 36.0363C228.744 34.9915 230.545 34.3064 231.888 32.9191C232.228 32.5765 232.653 32.3367 233.078 32.1312C233.979 31.7201 234.862 31.2919 235.78 30.9151C236.46 30.624 236.817 30.7267 237.293 31.2919C237.344 31.3947 237.344 31.5146 237.344 31.6345Z" fill="white"/>
<path d="M21.7037 37.0639C22.0266 37.2866 22.2985 37.4065 22.6215 37.4236C23.1143 37.4578 23.4202 37.7833 23.6752 38.1772C24.1001 38.8623 24.44 39.5988 24.7799 40.3353C24.9159 40.6093 25.0178 40.7121 25.3238 40.5408C25.9696 40.1982 26.2925 40.301 26.6834 40.9347C26.9043 41.2773 27.0743 41.6369 27.2443 42.0138C27.3462 42.2364 27.4652 42.3049 27.7201 42.2193C28.6889 41.8939 29.4877 42.2193 30.2185 42.9044C30.9323 43.5895 31.3912 44.4287 31.7481 45.3194C32.054 46.0387 32.4619 46.621 33.1417 47.0492C34.1275 47.6658 34.7053 48.625 34.9263 49.7725C34.9773 50.0637 35.0622 50.3548 35.1302 50.6289C35.2832 51.2455 35.6401 51.6394 36.2689 51.7764C36.7958 51.8963 37.1697 52.2389 37.4076 52.7184C37.5266 52.9411 37.6286 53.1637 37.7305 53.3864C38.0875 54.1914 38.6143 54.7908 39.4641 55.1334C40.5008 55.5616 41.0447 56.4522 41.1127 57.5826C41.1977 58.713 41.6056 59.6893 42.3704 60.5286C43.577 61.8645 43.9509 63.4402 43.73 65.1872C43.696 65.4099 43.713 65.6154 43.764 65.8381C43.832 66.1292 43.832 66.4204 43.764 66.7116C43.577 67.4652 43.0502 67.6365 42.4723 67.1226C42.0644 66.763 41.8775 66.2491 41.6905 65.7696C41.4186 65.0331 41.0447 64.3994 40.3139 64.0226C40.025 63.8684 39.821 63.5944 39.668 63.3032C39.2602 62.4468 38.8353 61.5905 38.7843 60.6313C38.7163 59.5009 38.0365 58.8501 37.1357 58.4561C36.2179 58.0279 35.5551 57.3942 35.0792 56.5379C34.8243 56.0583 34.5694 55.5787 34.3144 55.0991C34.0935 54.6538 33.7536 54.3798 33.2607 54.277C32.258 54.0886 31.5781 53.4892 31.1363 52.5814C30.7963 51.8963 30.4224 51.2455 30.0825 50.5604C29.8956 50.2007 29.6576 50.115 29.2837 50.2863C29.0798 50.3891 28.8588 50.4747 28.6379 50.5604C27.8561 50.8344 27.2782 50.6117 26.9213 49.841C26.5474 49.036 26.1735 48.231 25.8336 47.426C25.6467 46.9807 25.3577 46.7581 24.8649 46.8094C24.474 46.8437 24.1511 46.6724 23.8621 46.4155C23.6752 46.2442 23.4712 46.0558 23.2843 45.8846C23.0463 45.6619 22.7914 45.6619 22.5365 45.8674C22.4855 45.9017 22.4345 45.9359 22.4005 45.9873C21.5507 46.8951 21.2788 46.4669 20.7349 45.8503C20.1741 45.2166 19.7662 44.4459 19.3243 43.7265C18.8314 42.9386 18.5765 42.8187 17.6927 42.99C16.8769 43.1442 16.1631 42.9386 15.5683 42.322C15.2114 41.9452 14.8545 41.5856 14.5315 41.1916C14.3446 40.9518 14.1746 40.969 13.9367 41.0889C13.3248 41.4143 13.1209 41.8425 13.3588 42.5104C13.5288 42.99 13.7497 43.4525 13.9707 43.9149C14.2766 44.5486 14.3106 45.1652 13.9027 45.7647C13.6648 46.1072 13.6818 46.4669 13.9027 46.8094C14.5995 47.9399 14.5995 49.1045 13.9537 50.2178C13.2569 51.4167 13.4268 52.4786 14.1746 53.5577C14.4636 53.9687 14.7185 54.4312 15.0074 54.8422C15.5513 55.6472 15.6023 56.5207 15.2284 57.3771C14.7865 58.3705 14.8884 59.2954 15.3813 60.2203C16.0781 61.5391 15.8742 62.4297 14.7015 63.3546C14.1236 63.817 14.0557 64.4507 14.0897 65.1187C14.1066 65.6154 14.1406 66.1121 14.1576 66.6088C14.1746 67.0199 14.0557 67.3795 13.6648 67.5851C13.2569 67.7906 12.9509 67.5508 12.662 67.311C12.1691 66.8828 11.8972 66.3348 11.8462 65.6839C11.8122 65.1872 11.7952 64.6905 11.7952 64.1938C11.7952 63.5772 11.5573 63.1319 11.0304 62.7894C10.2316 62.2756 10.1297 61.9673 10.3506 61.0252C10.5376 60.2031 10.3846 59.381 10.2656 58.576C10.2486 58.4561 10.1807 58.3362 10.0957 58.2506C9.6198 57.8395 9.43285 57.2915 9.33088 56.7091C9.21191 56.1097 8.872 55.5958 8.56608 55.082C7.83527 53.8488 7.41037 52.5471 7.66531 51.0913C7.75029 50.646 7.92024 50.2349 8.15818 49.841C8.36213 49.5156 8.41312 49.173 8.29415 48.8134C8.00522 47.957 7.6993 47.1177 7.10445 46.4155C6.61158 45.8332 6.50961 45.2166 6.9345 44.5315C7.22342 44.0519 7.29141 43.5038 7.3084 42.9558C7.35939 41.2601 7.05347 39.6502 6.33965 38.1087C6.01673 37.4236 5.88077 36.7385 6.10171 35.9849C6.22068 35.5396 6.10171 35.1285 5.81279 34.7517C5.57485 34.4263 5.31991 34.118 5.06498 33.8097C4.52112 33.1588 4.35116 32.4052 4.57211 31.5831C4.72507 31.0179 4.70807 30.487 4.43614 29.956C4.38515 29.8532 4.33417 29.7333 4.31717 29.6135C4.16421 28.3118 3.60336 27.0615 4.14722 25.7084C4.69108 24.3896 4.06224 23.3277 3.11048 22.5227C1.39393 21.0668 1.25796 19.2685 1.75083 17.2817C1.80182 17.0933 1.85281 16.922 1.92079 16.7507C2.32869 15.6374 2.07375 14.7468 1.13899 13.9761C-0.0846919 12.9655 -0.254648 11.681 0.544146 10.3108C0.765089 9.93399 1.07101 9.76271 1.46191 9.96824C2.03976 10.2423 2.46465 10.071 2.83855 9.60856C3.39941 8.95772 4.06224 8.4439 4.84404 8.04996C5.47287 7.72454 6.11871 7.69029 6.78154 7.89582C8.02222 8.28975 9.16092 7.99858 10.2147 7.33061C11.0474 6.81679 11.8972 6.2002 12.679 5.53222C14.2936 4.1449 16.1121 4.28192 17.8627 5.0184C19.4603 5.7035 21.0579 6.43998 22.4515 7.51901C22.9444 7.89582 23.5392 7.89582 24.1341 7.81018C24.338 7.77592 24.525 7.7588 24.7289 7.7588C25.5447 7.7588 25.9356 8.10135 26.0716 8.92346C26.1055 9.14612 26.1225 9.38591 26.1565 9.62569C26.2075 10.2423 26.3945 10.3793 27.0063 10.2252C27.3972 10.1224 27.7541 9.95111 28.162 9.89973C29.4027 9.72846 30.6434 10.8246 30.6264 12.0749C30.6094 12.9827 30.5924 13.8733 30.4904 14.7811C30.4564 15.1579 30.5754 15.449 30.8643 15.6888C31.9011 16.5281 32.156 17.5728 31.7141 18.806C31.3062 19.8851 31.5102 20.9812 31.6631 22.0774C31.7991 23.2078 31.5272 24.2012 30.7623 25.0404C30.2865 25.5542 30.0315 26.1537 30.0485 26.8559C30.0655 27.3012 29.9975 27.7294 29.8616 28.1405C29.7766 28.4145 29.6916 28.6886 29.4367 28.8427C28.9778 29.1339 28.8249 29.5963 28.7399 30.093C28.5529 31.1892 28.145 32.1826 27.4992 33.0732C27.0403 33.7069 26.4455 34.118 25.6637 34.2036C25.3917 34.2379 25.1198 34.3235 24.8479 34.3578C24.338 34.4434 23.9981 34.7174 23.8111 35.2313C23.6072 35.7965 23.1483 36.1904 22.6215 36.4987C22.3155 36.6529 22.0266 36.8584 21.7037 37.0639ZM12.4581 33.7583C12.713 33.7069 12.917 33.587 13.0869 33.45C13.9877 32.7478 14.6165 32.9704 15.3983 33.5357C15.9932 33.9638 16.0611 33.9638 16.639 33.5014C16.792 33.3815 16.9449 33.2274 17.0639 33.0732C17.4038 32.6793 17.8287 32.3881 18.2876 32.1655C18.9334 31.84 19.6132 31.6516 20.31 31.5317C21.1768 31.3776 21.5507 30.9837 21.7207 30.1102C21.7547 29.956 21.7717 29.8019 21.7887 29.6477C21.8566 28.346 22.2475 27.1814 23.2503 26.2907C23.3013 26.2393 23.3523 26.1708 23.4032 26.1195C24.1511 25.52 24.236 24.6807 24.202 23.8072C24.185 23.5332 24.1341 23.2592 23.9641 23.0708C23.3353 22.4028 23.4542 21.7691 23.9471 21.1182C24.0151 21.0326 24.0491 20.9298 24.1171 20.8442C24.253 20.6729 24.202 20.5359 24.0321 20.416C23.4202 20.0049 22.9614 19.4397 22.4855 18.8917C22.0776 18.4463 21.8736 18.001 22.1116 17.3844C22.2985 16.8706 21.9416 16.5109 21.6357 16.1513C21.3638 15.843 21.1088 16.0999 20.8879 16.1684C19.8172 16.4424 19.2903 16.2712 18.6445 15.3805C18.4575 15.1236 18.2876 14.8667 18.1516 14.5927C17.9986 14.2844 17.7947 14.1816 17.4548 14.1987C16.639 14.2501 15.8232 14.1645 15.0074 14.0446C14.3786 13.9418 13.8177 14.1131 13.3418 14.5584C13.0699 14.8153 12.815 15.0722 12.5261 15.3291C11.7443 15.9971 10.8775 16.2883 9.85774 15.9971C9.70478 15.9457 9.51783 15.9457 9.34787 15.9286C8.78702 15.8772 8.60007 16.0142 8.4641 16.5623C8.29415 17.2645 8.4641 17.8469 8.97397 18.3436C9.36487 18.7033 9.48384 19.1143 9.31388 19.6453C9.09294 20.3989 9.2629 21.1525 9.34787 21.9061C9.36487 22.026 9.48384 22.163 9.58581 22.2315C10.7245 23.105 11.0134 24.2526 10.6225 25.5885C10.4866 26.0852 10.6055 26.3764 11.0644 26.599C11.6593 26.8902 11.9482 27.404 11.9482 28.072C11.9482 28.5858 11.9482 29.0996 11.9482 29.6135C11.9482 29.9389 12.0672 30.1958 12.3391 30.4184C13.1379 31.0179 13.1889 31.2406 12.764 32.1826C12.594 32.6964 12.4921 33.2102 12.4581 33.7583Z" fill="white"/>
<path d="M67.0307 18.0866C67.0137 18.8402 66.8777 19.5938 66.6228 20.3131C66.3849 20.964 66.2999 21.5977 66.5888 22.2657C66.7588 22.6767 66.6398 23.122 66.6738 23.5673C66.6908 23.8243 66.6568 24.0812 66.7758 24.3038C67.3706 25.4685 67.1157 26.5989 66.6738 27.7122C66.4528 28.2603 66.3509 28.7741 66.5718 29.3393C66.6568 29.5791 66.7588 29.6133 67.0137 29.5448C68.2714 29.2023 69.2401 28.4487 70.1919 27.6094C70.7188 27.147 71.2626 26.7359 72.0444 26.8044C72.3503 26.8387 72.5713 26.5818 72.8092 26.3934C74.3218 25.1602 75.8344 23.927 77.347 22.6938C78.2988 21.9231 79.3865 21.4264 80.6272 21.3065C80.9671 21.2723 81.273 21.2894 81.443 21.6491C81.6129 22.0087 81.409 22.2314 81.1881 22.4712C80.8142 22.848 80.4572 23.2248 80.0663 23.5845C79.2845 24.2867 78.5367 25.0061 78.0269 25.9652C77.517 26.9072 76.5822 27.4039 75.6475 27.815C74.6787 28.226 74.1009 28.9454 73.8629 29.9388C73.4381 31.7372 72.3333 32.8676 70.6508 33.4842C70.1239 33.6726 69.614 33.861 69.0872 34.0836C68.1524 34.4604 67.8805 35.2825 68.3734 36.156C69.3081 37.8174 70.4638 39.3075 71.5515 40.849C71.7725 41.1744 72.0954 41.3457 72.4523 41.4656C72.6223 41.5169 72.7752 41.5512 72.9452 41.5683C74.0499 41.7396 74.7297 42.3391 74.8827 43.4866C75.0186 44.4971 75.4435 45.422 75.9874 46.2784C76.3613 46.8778 76.6162 47.5116 76.6502 48.2309C76.7862 50.4575 77.466 52.547 78.1458 54.6537C78.4518 55.6129 78.9106 56.5377 78.7407 57.5825C78.7067 57.7709 78.6897 57.9593 78.6557 58.1306C78.5537 58.7129 78.3668 58.9356 77.7889 58.987C77.534 59.0041 77.432 59.0726 77.381 59.3466C77.2621 59.9461 76.9731 60.1688 76.4293 60.1345C75.9194 60.1002 75.6305 59.792 75.5795 59.2096C75.5115 58.6444 75.3416 58.1135 75.0866 57.6168C74.8827 57.2228 74.7807 56.7946 74.7467 56.3665C74.6957 55.767 74.5088 55.2189 74.1349 54.7393C73.3701 53.746 72.8092 52.6498 72.5373 51.4166C72.3503 50.5945 71.9254 49.9094 71.2626 49.3613C70.6168 48.8475 70.2769 48.1795 70.1579 47.3403C69.92 45.6789 69.2741 44.1888 68.0504 42.9899C67.7105 42.6474 67.5406 42.2192 67.4046 41.7738C67.3196 41.4827 67.1837 41.4827 66.9967 41.6368C66.8607 41.7396 66.7588 41.8766 66.6398 41.9965C66.3169 42.3391 65.994 42.6131 65.4671 42.4589C65.1442 42.3562 65.2292 42.6645 65.1952 42.8186C64.8213 44.5999 64.5153 46.3983 64.0565 48.1453C63.7335 49.3956 63.1897 50.5945 62.7308 51.8105C62.5948 52.1702 62.3059 52.4614 62.034 52.7354C61.6941 53.0609 61.4051 53.0609 61.0652 52.7354C60.3514 52.0503 59.9775 51.2625 60.2494 50.2177C60.4704 49.3271 60.7083 48.4536 61.0143 47.5801C61.3882 46.5524 61.4561 45.4563 61.6601 44.3944C61.813 43.6407 61.932 42.87 62.051 42.0993C62.119 41.7053 62.034 41.3628 61.7281 41.0887C61.3372 40.7291 61.3032 40.2838 61.5581 39.8556C62.187 38.7765 62.4249 37.6119 62.4419 36.3787C62.4589 35.7278 62.6968 35.1113 62.8498 34.4775C62.8838 34.3577 62.9518 34.2035 62.8328 34.135C62.6798 34.0322 62.5779 34.1864 62.4929 34.2891C62.136 34.7173 61.7791 35.1455 61.4221 35.5737C61.1842 35.8649 60.9123 36.0875 60.5044 35.9848C60.0965 35.8649 59.7906 35.608 59.6886 35.1798C59.5696 34.7345 59.6206 34.2891 59.7736 33.861C60.7083 31.309 61.1502 28.6199 61.983 26.0337C62.7648 23.6187 62.7648 21.101 62.6628 18.6004C62.6458 18.0009 62.6968 17.4357 63.0707 16.9219C63.3257 16.5793 63.6316 16.4252 64.0225 16.5451C64.3454 16.6478 64.5833 16.5622 64.8213 16.3567C64.9062 16.271 65.0252 16.2025 65.1272 16.1511C65.875 15.723 66.5888 16.0141 66.8437 16.8362C66.9967 17.1617 67.0307 17.6241 67.0307 18.0866Z" fill="white"/>
<path d="M106.97 40.9518C107.106 40.7805 107.259 40.5921 107.395 40.4208C108.211 39.3075 109.197 38.3826 110.386 37.6633C110.998 37.2865 111.287 36.7898 111.372 36.0876C111.474 35.1969 111.695 34.3405 112.154 33.5698C112.341 33.2615 112.392 32.9018 112.46 32.5593C112.817 31.0692 113.123 29.562 113.565 28.089C113.735 27.5581 113.99 27.0956 114.363 26.6846C114.805 26.2221 115.247 26.1022 115.74 26.3078C116.216 26.5304 116.522 27.0785 116.403 27.678C116.199 28.62 115.944 29.5449 115.672 30.4697C115.451 31.2576 115.502 31.9598 116.012 32.6278C116.267 32.9532 116.318 33.33 116.199 33.7411C115.978 34.4947 115.774 35.2654 115.553 36.019C115.281 36.9611 115.094 37.9202 115.128 38.9136C115.179 40.1639 114.975 41.4313 115.247 42.6816C115.383 43.2811 115.604 43.8292 115.842 44.3944C116.25 45.3706 116.488 46.3983 116.607 47.4602C116.675 48.1453 116.352 48.7276 115.706 49.0359C115.111 49.31 114.584 49.1901 114.075 48.6763C113.531 48.1282 113.276 47.4431 113.123 46.6895C113.089 46.5182 113.038 46.3298 113.004 46.1414C112.783 46.2613 112.698 46.4668 112.562 46.6381C111.678 47.7171 110.454 47.974 109.197 47.3746C108.84 47.2033 108.466 47.032 108.109 46.8779C107.242 46.5182 106.681 45.9187 106.613 44.9253C106.613 44.8397 106.562 44.7541 106.528 44.617C106.325 44.8054 106.308 45.011 106.257 45.2165C106.121 45.6789 105.917 46.09 105.356 46.1414C104.778 46.1928 104.557 45.7817 104.336 45.3535C103.656 43.9662 102.925 42.596 102.093 41.2772C101.855 40.9175 101.532 40.6606 101.226 40.3866C101.073 40.2495 100.988 40.2838 100.971 40.4893C100.954 40.6777 100.988 40.849 101.056 41.0374C101.362 41.8081 101.43 42.596 101.226 43.4181C101.192 43.5551 101.158 43.6922 101.192 43.8292C101.362 44.7198 100.886 45.3021 100.291 45.8502C100.053 46.0729 99.7982 46.0729 99.5433 45.8673C98.8974 45.3706 98.4556 44.7883 98.5745 43.8977C98.6425 43.3839 98.7105 42.8187 98.1326 42.4761C98.0817 42.4418 98.0307 42.4247 97.9457 42.3905C97.8777 42.7673 97.9627 43.0927 97.9797 43.4352C98.0137 44.5828 98.0307 45.7303 98.0647 46.895C98.0647 47.2204 98.0307 47.5116 97.7927 47.7514C97.2319 48.3166 96.5521 48.1796 96.1781 47.4088C95.4303 45.816 94.6995 44.2231 94.2916 42.5104C94.1217 41.7739 93.7478 41.2087 93.034 40.9004C92.847 40.8147 92.796 40.8661 92.711 40.986C92.3201 41.517 91.9802 42.065 91.9632 42.7501C91.9462 43.264 91.6913 43.6922 91.3684 44.0861C91.0455 44.48 90.8755 44.8911 91.0795 45.4049C91.2324 45.7817 91.1304 46.1585 90.8585 46.4497C90.5186 46.8094 90.3147 47.2375 90.1787 47.7C90.0087 48.2481 89.7198 48.4707 89.2949 48.4365C88.87 48.3851 88.5131 48.0254 88.4452 47.5116C88.3942 47.169 88.3942 46.8265 88.3772 46.4839C88.3602 46.1071 88.2582 45.7475 88.0712 45.422C87.6294 44.617 87.7143 43.7778 88.1392 43.0584C88.938 41.6882 89.2779 40.1468 89.7878 38.6738C89.9068 38.3313 89.8048 37.9887 89.6858 37.6804C89.2779 36.6185 89.3799 35.5737 89.8728 34.5632C90.0937 34.1008 90.2807 33.6212 90.4846 33.1588C90.7396 32.5935 91.1135 32.1996 91.7763 32.2167C92.1842 32.2167 92.3881 31.9941 92.4731 31.6002C92.694 30.6753 92.949 29.7675 93.4419 28.9454C93.5438 28.757 93.6458 28.5515 93.8497 28.4487C94.6995 27.9349 95.4473 27.9349 95.5153 29.1167C95.6343 31.2576 96.1781 33.3472 96.4501 35.471C96.586 36.5671 97.0109 37.5948 97.1299 38.7081C97.1809 39.2048 97.5208 39.6501 97.7757 40.1296C98.4556 39.3075 98.9144 38.4683 98.7275 37.355C98.5405 36.1047 98.6935 34.8372 98.7955 33.5869C98.8125 33.3643 98.8464 33.1588 98.8464 32.9361C98.8464 32.4737 99.0674 32.1654 99.5093 32.0283C99.9342 31.8913 100.291 31.9598 100.597 32.3195C101.039 32.8162 101.243 33.3985 101.345 34.0494C101.43 34.5461 101.549 35.0257 101.753 35.471C101.821 35.608 101.872 35.7279 102.076 35.745C103.146 35.8135 103.333 35.9677 103.673 36.9953C103.69 37.0467 103.724 37.1152 103.775 37.2351C103.843 37.0809 103.894 36.9953 103.945 36.8925C104.54 35.4196 105.118 33.9637 105.713 32.4908C105.832 32.1996 105.951 31.9084 106.138 31.6687C106.392 31.3261 106.749 31.1377 107.174 31.1891C107.616 31.2405 107.888 31.5316 108.041 31.9256C108.296 32.5593 108.211 33.2101 108.092 33.861C107.735 35.8135 107.344 37.766 106.97 39.7186C106.868 40.0611 106.868 40.4893 106.97 40.9518ZM112.188 40.1981C111.61 40.7291 111.066 41.1744 110.42 41.4998C110.234 41.6026 110.115 41.8081 110.047 42.0137C109.911 42.5617 109.809 43.1098 109.826 43.675C109.826 43.8977 109.86 44.1203 110.098 44.2231C110.352 44.343 110.59 44.2402 110.777 44.069C110.981 43.8634 111.151 43.6065 111.389 43.4352C112.477 42.5789 112.358 41.4313 112.188 40.1981ZM93.1699 37.6633C93.4249 37.6633 93.6968 37.6633 93.9517 37.6633C94.1897 37.6804 94.2237 37.5776 94.1047 37.3892C93.5948 36.55 93.4419 35.6251 93.5438 34.666C93.5608 34.5632 93.6118 34.4091 93.4589 34.3919C93.2889 34.3577 93.2889 34.529 93.2549 34.6317C93 35.3168 92.745 35.9848 92.4901 36.6699C92.1332 37.6633 92.1332 37.6633 93.1699 37.6633Z" fill="white"/>
<path d="M183.128 40.9861C183.094 42.1165 182.89 43.1784 182.448 44.1889C182.074 45.0453 182.074 45.9702 182.006 46.8951C181.972 47.289 181.887 47.6658 181.734 48.0255C181.513 48.5222 181.088 48.7962 180.612 48.762C180.086 48.7277 179.661 48.3681 179.508 47.8542C179.423 47.5802 179.406 47.3061 179.44 47.015C179.576 46.0216 179.559 45.0282 179.44 44.0348C179.372 43.4525 179.474 42.8873 179.627 42.3392C179.848 41.5684 179.797 40.8491 179.406 40.1297C179.032 39.4275 179.151 38.7253 179.44 38.0231C179.61 37.5949 179.848 37.1838 179.984 36.7385C180.103 36.2932 180.001 35.8821 179.61 35.6937C178.352 35.0943 178.284 33.981 178.505 32.8677C178.862 31.0693 178.93 29.2538 179.134 27.4554C179.304 25.9139 179.559 24.3725 179.508 22.8139C179.508 22.5227 179.61 22.2658 179.814 22.0431C180.069 21.7691 180.391 21.6149 180.765 21.7177C181.156 21.8033 181.36 22.0774 181.445 22.4542C181.666 23.4818 181.751 24.5437 181.887 25.5885C181.904 25.6741 181.904 25.7769 181.921 25.8625C181.972 26.0338 182.023 26.2736 182.21 26.3079C182.363 26.3421 182.431 26.1195 182.516 25.9996C183.145 25.1946 183.757 24.3725 184.419 23.5846C185.099 22.7625 185.626 22.6597 186.578 23.105C187.258 23.4304 187.921 23.6017 188.685 23.4476C189.518 23.2763 190.198 23.6188 190.742 24.2354C191.116 24.6636 191.235 25.1432 190.929 25.657C190.674 26.1023 190.725 26.4963 190.997 26.9073C191.388 27.4897 191.745 28.0891 192.169 28.6372C193.189 29.956 192.832 32.0627 191.422 33.2787C191.014 33.6213 190.572 33.8782 190.045 33.9981C189.603 34.0837 189.195 34.2893 188.838 34.5633C188.226 35.0086 187.564 35.3854 186.884 35.6937C186.612 35.8136 186.34 35.9678 186.323 36.3103C186.306 36.6186 186.578 36.7385 186.799 36.8755C187.819 37.5435 188.43 38.554 188.991 39.5988C189.161 39.9242 189.161 40.2839 189.093 40.6436C188.974 41.3458 189.11 41.9795 189.535 42.5447C190.64 44.0348 191.099 45.6962 190.81 47.5459C190.64 48.5907 190.861 49.5841 191.252 50.5432C191.507 51.1941 191.728 51.8449 191.949 52.5129C192.152 53.1295 191.915 53.7461 191.371 54.0886C190.844 54.4312 190.266 54.3627 189.756 53.9002C189.161 53.335 188.855 52.6157 188.685 51.8278C188.515 50.9886 188.311 50.1664 188.023 49.3614C187.853 48.8819 187.819 48.3852 187.853 47.8885C187.904 46.8951 187.615 46.0558 186.901 45.3536C186.51 44.9597 186.238 44.4972 185.966 44.0177C185.337 42.9386 184.589 41.9624 183.553 41.2259C183.434 41.1231 183.349 41.0032 183.128 40.9861ZM187.02 28.3974C185.932 28.0891 185.388 28.3289 184.98 29.3052C184.742 29.8532 184.453 30.3499 183.859 30.5212C183.468 30.6411 183.468 30.8124 183.57 31.1207C183.621 31.292 183.723 31.429 183.859 31.5317C184.164 31.8058 184.419 32.1141 184.64 32.4395C185.065 33.0903 185.133 33.1075 185.609 32.508C185.983 32.0456 186.357 31.5489 186.238 30.9151C186.034 29.9389 186.068 29.0483 187.02 28.3974Z" fill="white"/>
<path d="M162.682 43.144C162.733 42.596 162.784 42.0136 162.852 41.4313C162.988 40.3009 162.767 39.2732 162.104 38.3312C161.39 37.3207 161.424 36.2588 162.189 35.2825C162.682 34.666 163.022 33.9637 163.141 33.193C163.311 32.0112 163.889 31.0692 164.857 30.4355C165.945 29.7161 166.659 28.6542 167.458 27.6779C168.376 26.5647 169.48 25.8453 170.993 26.0337C172.777 26.2564 174.137 27.2155 175.242 28.5857C175.293 28.6371 175.344 28.7227 175.361 28.7912C175.599 29.9216 176.126 30.9835 176.33 32.114C176.516 33.193 176.262 34.2035 175.854 35.1969C175.752 35.4196 175.65 35.6593 175.548 35.882C175.208 36.5842 175.31 37.2351 175.786 37.8345C176.279 38.4511 176.737 39.102 177.026 39.8556C177.383 40.7805 177.315 41.6711 176.788 42.4761C175.871 43.8977 174.8 45.1993 173.576 46.3811C172.981 46.9635 172.234 47.4773 171.486 47.5972C170.5 47.7685 169.497 47.974 168.478 48.0082C168.019 48.0254 167.662 47.7342 167.441 47.3231C167.237 46.9292 166.931 46.6894 166.523 46.5182C166.2 46.3811 165.894 46.1927 165.588 46.0043C165.078 45.6789 164.569 45.4563 163.94 45.6104C163.498 45.7132 163.073 45.3706 162.92 44.8568C162.75 44.3087 162.699 43.7606 162.682 43.144ZM169.038 32.0626C168.257 32.388 167.934 32.8333 168.019 33.5013C168.155 34.5118 167.832 35.2997 167.084 35.9505C166.693 36.2931 166.455 36.7555 166.387 37.2865C166.285 38.0743 166.506 38.8279 166.693 39.5815C166.744 39.7871 166.914 39.8727 167.118 39.8727C167.696 39.8556 168.07 40.181 168.359 40.6263C168.562 40.9346 168.783 41.2429 168.953 41.5683C169.174 42.0308 169.48 42.1678 169.99 42.0993C170.738 41.9965 170.925 41.7567 170.67 41.0202C170.619 40.8832 170.568 40.7633 170.5 40.6434C170.007 39.6843 170.041 38.7423 170.466 37.766C170.993 36.55 170.942 36.4472 169.854 35.745C168.851 35.0941 168.545 34.3577 168.8 33.1587C168.868 32.8162 168.953 32.4565 169.038 32.0626Z" fill="white"/>
<path d="M196.333 39.1192C195.773 39.1534 195.314 38.9307 194.872 38.6567C194.09 38.1771 193.274 37.8175 192.305 37.8346C191.677 37.8517 191.286 37.3721 191.252 36.7042C191.218 36.139 191.456 35.8135 192.118 35.7108C192.798 35.608 193.444 35.471 194.005 35.0428C194.345 34.7859 194.804 34.8887 195.229 34.8373C195.942 34.7516 196.18 34.4947 196.061 33.7925C195.891 32.8676 195.993 32.0112 196.401 31.172C196.605 30.7438 196.69 30.2814 196.69 29.8189C196.69 28.8598 196.928 27.952 197.251 27.0443C197.455 26.4962 197.608 25.9139 197.693 25.3315C197.795 24.6122 198.033 23.9099 198.339 23.242C198.866 22.0944 199.41 20.9469 199.953 19.7822C200.259 19.1314 200.769 18.7032 201.5 18.5662C202.435 18.3949 203.081 19.0286 202.928 19.9706C202.843 20.5016 202.622 20.9811 202.367 21.4436C201.993 22.0944 201.619 22.7281 201.245 23.379C200.956 23.8928 200.956 24.1326 201.398 24.4751C202.299 25.1602 202.299 26.5818 201.925 27.3697C201.415 28.4145 201.228 29.5449 201.007 30.6753C200.803 31.7715 200.48 32.8505 200.021 33.861C199.936 34.0494 199.868 34.2378 199.8 34.4262C199.58 35.1113 199.665 35.2312 200.412 35.2141C200.786 35.197 201.143 35.1456 201.517 35.0771C202.146 34.9743 202.69 35.0771 203.064 35.6594C203.183 35.8478 203.353 35.9163 203.574 35.8992C203.947 35.8821 204.321 35.8821 204.678 35.8992C205.256 35.9163 205.766 36.1047 206.174 36.5329C206.429 36.8241 206.752 36.9611 207.143 37.0296C207.771 37.1152 208.383 37.2523 208.91 37.6462C209.692 38.2457 209.709 38.9136 208.91 39.496C208.638 39.7015 208.451 39.907 208.4 40.2667C208.315 40.7976 207.992 41.0374 207.432 41.0888C206.633 41.1573 205.885 40.986 205.239 40.5065C204.695 40.0954 204.134 39.9927 203.489 40.0954C202.469 40.2667 201.517 40.0783 200.718 39.3761C200.701 39.3589 200.701 39.3589 200.684 39.3418C200.429 39.2048 200.174 38.9479 199.885 39.0849C199.648 39.2048 199.783 39.5473 199.8 39.77C199.834 40.6606 200.089 41.5684 199.766 42.4076C199.41 43.3668 199.274 44.2745 199.495 45.285C199.648 46.0558 199.478 46.8265 199.002 47.5459C198.509 48.2824 198.492 49.1901 198.407 50.0636C198.237 51.7079 198.101 53.3521 197.846 54.9621C197.659 56.1267 197.217 57.2229 196.86 58.3533C196.758 58.6616 196.571 58.9185 196.214 58.9528C195.874 58.987 195.688 58.7472 195.518 58.4903C195.212 58.0279 195.093 57.4969 195.059 56.9489C194.957 55.1847 195.195 53.4549 195.552 51.725C195.722 50.92 195.62 50.0807 195.637 49.2586C195.637 49.1045 195.586 48.9503 195.518 48.8133C195.093 47.9741 195.127 47.1348 195.467 46.2956C195.688 45.7817 195.688 45.3364 195.433 44.8226C195.025 44.0347 194.872 43.2126 195.433 42.4076C195.603 42.1507 195.671 41.8253 195.688 41.517C195.722 40.7805 195.891 40.0783 196.248 39.4274C196.299 39.3761 196.299 39.2562 196.333 39.1192Z" fill="white"/>
<path d="M43.8657 41.7225C43.7127 41.7225 43.6107 41.7225 43.5257 41.7225C42.7779 41.6711 42.421 41.2429 42.574 40.5064C42.7269 39.8042 42.9649 39.1191 43.4917 38.6053C44.0696 38.023 44.4435 37.3721 44.4775 36.5157C44.5115 35.7621 44.7494 35.0599 45.1063 34.3919C45.4632 33.724 45.5142 32.9875 45.6162 32.2681C45.7692 31.0863 46.364 30.3327 47.5197 30.0073C47.6897 29.9559 47.8426 29.8874 48.0126 29.8531C48.8454 29.699 49.3722 29.2537 49.4742 28.3631C49.5252 28.0034 49.7971 27.7293 50.0691 27.4896C50.9528 26.7531 51.9726 26.4105 53.0943 26.342C53.4682 26.3249 53.8421 26.4277 54.097 26.7359C54.335 27.01 54.6239 27.0956 54.9638 27.0614C55.8136 27.01 56.6634 26.9929 57.5131 26.9415C57.972 26.9243 58.3289 27.0785 58.5499 27.4896C58.7878 27.9177 58.7028 28.3288 58.4309 28.7056C57.8531 29.5449 57.0373 29.9559 56.0345 30.0244C55.4057 30.0758 54.7768 30.0587 54.131 30.0929C53.9271 30.1101 53.7401 30.1614 53.5362 30.2128C53.1963 30.2985 52.9753 30.4184 53.0943 30.8808C53.2302 31.4289 52.8733 31.8228 52.4994 32.1654C51.5477 33.0046 50.5789 33.8267 49.6102 34.666C49.1513 35.0599 48.7944 35.5052 48.6074 36.1047C48.5225 36.3616 48.5564 36.5157 48.7944 36.6528C48.9983 36.7726 49.2023 36.9439 49.3892 37.0981C49.7461 37.4235 49.8481 37.8174 49.7291 38.2799C49.6102 38.7423 49.4062 39.1534 49.1683 39.5473C48.8794 40.044 48.6074 40.5407 48.3355 41.0545C48.2165 41.26 48.1485 41.4827 48.1485 41.7225C48.1146 42.3391 48.5904 42.6474 49.1173 42.3562C49.4742 42.1678 49.7971 41.9109 50.12 41.6882C50.5959 41.3628 51.1058 41.26 51.6496 41.5341C51.9726 41.6882 52.2785 41.6711 52.5674 41.4484C53.0093 41.123 53.4682 41.1573 53.9101 41.4484C54.25 41.6711 54.5729 41.9109 54.8958 42.1507C55.5926 42.6474 56.2895 42.6645 57.0033 42.1678C57.0883 42.0993 57.1902 42.0479 57.2752 41.9965C57.6491 41.7567 58.057 41.5512 58.4819 41.8424C58.9068 42.1507 59.0088 42.6302 58.9238 43.1441C58.6858 44.6684 57.3262 45.6789 55.7966 45.4391C55.0828 45.3364 54.5049 45.5077 53.9611 45.9701C53.3492 46.4839 52.6864 46.8436 51.8366 46.5867C51.4627 46.4839 51.1908 46.6723 50.9528 46.9464C50.46 47.5458 50.103 48.2481 49.8141 48.9674C49.5762 49.5497 49.3043 50.0978 48.8454 50.5431C48.4035 50.9885 47.9786 50.9542 47.5877 50.4746C47.2308 50.0293 47.1458 49.4812 47.1458 48.9332C47.1288 48.2994 46.9589 47.8027 46.415 47.4088C45.9731 47.0834 45.8711 46.6038 45.9561 46.0729C46.0921 45.1309 45.9221 44.9425 44.9704 44.9425C44.5795 44.9425 44.2056 44.9767 43.8147 44.8739C43.3218 44.7369 43.1008 44.48 43.1348 43.9662C43.1688 43.1441 43.4408 42.4418 43.8657 41.7225Z" fill="white"/>
<path d="M36.9995 47.4602C36.9995 46.9635 36.9995 46.4668 36.9995 45.9701C36.9995 45.4905 36.8805 45.0452 36.6256 44.6513C36.3366 44.206 36.2177 43.7264 36.3366 43.1783C36.4386 42.7159 36.4046 42.2534 36.2007 41.8081C36.0307 41.4656 36.0477 41.0716 36.0987 40.712C36.2177 39.8898 36.2517 39.0677 36.2686 38.2456C36.2856 37.8174 36.1667 37.492 35.8268 37.2179C35.079 36.6185 34.977 35.8478 35.2829 34.9914C35.5208 34.3234 35.8098 33.6726 36.0647 33.0046C36.2856 32.4223 36.3026 31.9427 35.6568 31.6344C35.3169 31.4802 35.2149 31.1206 35.2489 30.7609C35.2829 30.504 35.3339 30.2299 35.4189 29.9902C35.7078 29.1167 35.8268 28.2432 35.7078 27.3354C35.6058 26.5133 35.8268 26.3078 36.6426 26.2735C36.9315 26.2735 37.1864 26.1879 37.4243 26.0337C37.7983 25.7939 38.2061 25.6912 38.665 25.7254C39.3618 25.7597 39.7358 26.0851 39.6508 26.7873C39.5318 27.6951 39.6848 28.5343 40.0417 29.3736C40.2796 29.9388 40.1097 30.504 39.9057 31.0521C39.5998 31.9084 39.4298 32.7819 39.4298 33.6897C39.4298 34.3919 39.6678 34.9229 40.2966 35.3339C41.2823 35.9676 41.4353 36.8411 40.8405 37.8517C40.6025 38.2456 40.3816 38.6567 40.1436 39.0677C39.8887 39.513 39.8547 39.9755 40.1097 40.4037C40.8745 41.7225 40.6875 43.0242 40.0587 44.3087C39.5318 45.422 39.3618 46.5867 39.4128 47.8027C39.4468 48.4878 39.4128 49.1729 39.3109 49.8409C39.2259 50.389 38.886 50.8685 38.4611 50.9542C38.0532 51.0398 37.6113 50.7829 37.3054 50.2691C37.1014 49.9094 36.9825 49.5326 36.9825 49.1215C36.9995 48.5735 36.9995 48.0254 36.9995 47.4602Z" fill="white"/>
<path d="M38.682 16.2026C38.648 16.4595 38.495 16.8363 38.614 17.0761C38.733 17.3159 39.1748 17.1274 39.4638 17.2473C39.9057 17.4357 40.1436 17.7612 40.1606 18.2407C40.1776 18.6175 40.0586 18.9772 39.9736 19.3369C39.7867 20.2104 39.7357 21.0839 39.5997 21.9574C39.3958 23.3105 38.0871 23.9271 36.9144 23.2248C36.3196 22.8652 35.7927 22.4027 35.2998 21.906C34.8919 21.495 34.79 20.964 34.9089 20.3988C35.0449 19.7822 35.3168 19.217 35.6058 18.6861C35.8777 18.1894 35.9457 17.7098 35.6227 17.196C35.2998 16.665 35.4018 16.1169 35.7247 15.6202C36.1326 14.9865 36.7615 14.6953 37.4923 14.6611C38.1721 14.644 38.699 15.3119 38.682 16.2026Z" fill="white"/>
</g>
<defs>
<clipPath id="clip0">
<rect width="237.344" height="70" fill="white"/>
</clipPath>
</defs>
</svg>
